<svg version="1.0" xmlns="http://www.w3.org/2000/svg" width="600.000000pt" height="600.000000pt" viewBox="0 0 600.000000 600.000000" preserveAspectRatio="xMidYMid meet" style="width: 357.92px; height: auto;"> <g transform="translate(0.000000,600.000000) scale(0.100000,-0.100000)" fill="#000000" stroke="none"> <path d="M2490 5073 c-55 -11 -153 -64 -204 -113 -55 -52 -98 -130 -111 -201 l-7 -36 45 -6 c25 -4 63 -14 86 -23 32 -13 41 -21 41 -40 0 -34 -21 -39 -88 -21 -94 26 -161 29 -244 13 -130 -25 -238 -96 -295 -194 -38 -65 -44 -178 -13 -249 32 -75 49 -87 109 -79 75 10 160 -3 172 -26 20 -37 -5 -48 -110 -48 -145 0 -239 -30 -344 -109 -64 -48 -113 -122 -132 -199 -53 -205 119 -410 378 -452 57 -9 68 -8 108 12 24 12 62 22 84 22 36 1 40 -2 40 -23 0 -26 0 -26 -97 -70 -222 -99 -288 -338 -142 -510 40 -48 137 -108 204 -128 30 -8 60 -18 66 -20 7 -3 20 24 33 65 24 80 87 171 151 217 77 56 127 198 110 310 -8 55 -5 71 16 79 23 9 44 -4 52 -33 13 -47 6 -183 -12 -225 -9 -22 -15 -41 -13 -43 2 -2 19 3 38 11 19 8 66 17 105 21 75 8 100 -4 92 -42 -2 -14 -20 -20 -83 -29 -135 -20 -202 -51 -286 -131 -82 -78 -114 -152 -114 -263 0 -71 4 -94 26 -141 111 -236 427 -322 681 -187 73 39 158 121 186 180 19 39 22 62 22 177 l0 133 -32 -7 c-110 -24 -189 -65 -270 -142 -50 -47 -60 -52 -78 -43 -33 18 -23 47 38 106 67 65 191 130 281 146 l61 12 0 378 c0 356 -1 379 -17 375 -151 -41 -214 -71 -291 -138 -27 -24 -37 -27 -52 -19 -32 17 -23 45 28 90 63 56 161 104 255 126 l77 18 0 136 0 136 -52 32 c-113 67 -224 86 -350 58 -122 -27 -204 -87 -269 -197 -40 -70 -111 -141 -172 -173 -30 -17 -38 -18 -51 -7 -29 24 -18 48 41 88 33 22 73 61 95 91 84 122 70 263 -38 373 -36 36 -45 51 -39 68 11 36 48 26 99 -29 55 -58 93 -135 102 -203 l7 -48 26 25 c14 14 51 36 81 49 152 67 329 62 467 -12 l53 -29 0 262 0 262 -113 13 c-152 17 -240 5 -352 -51 -33 -16 -70 -38 -82 -50 -29 -28 -67 -21 -71 13 -3 22 6 32 52 63 66 44 109 63 191 86 l60 17 -33 17 c-75 39 -201 201 -186 239 14 39 54 30 76 -17 27 -56 123 -151 187 -185 71 -37 133 -57 214 -66 l57 -7 0 111 c0 146 -22 217 -92 295 -90 101 -200 147 -346 145 -48 -1 -98 -4 -112 -6z m248 -34 c2 -5 10 -9 17 -9 25 0 65 -23 58 -33 -4 -6 0 -8 10 -4 9 3 17 2 19 -3 2 -5 9 -10 17 -12 8 -2 27 -16 43 -31 27 -27 37 -44 19 -33 -4 3 -17 -4 -27 -17 -18 -20 -18 -21 -1 -7 31 24 53 22 66 -6 6 -14 8 -30 5 -36 -4 -6 -2 -8 4 -4 16 10 30 -21 37 -84 1 -14 3 -27 4 -30 4 -9 0 -165 -4 -168 -2 -3 -34 1 -72 8 -73 12 -167 52 -155 65 4 5 2 5 -5 1 -15 -8 -65 34 -59 49 2 7 -2 12 -10 12 -7 0 -10 -5 -7 -10 4 -6 1 -7 -6 -3 -7 5 -10 15 -7 23 3 8 2 12 -3 9 -9 -6 -71 58 -71 73 0 16 -58 72 -65 62 -3 -6 -10 -9 -15 -6 -5 3 -15 -1 -23 -9 -8 -8 -17 -12 -20 -9 -3 3 -4 -16 -2 -42 2 -27 7 -51 12 -54 4 -3 25 -32 47 -63 21 -32 43 -58 48 -58 5 0 6 -5 2 -12 -5 -8 -2 -9 9 -5 16 6 22 -3 18 -26 -1 -5 2 -6 7 -3 4 2 14 1 21 -4 9 -5 0 -10 -28 -15 -22 -4 -41 -11 -41 -16 0 -5 -12 -9 -26 -9 -14 0 -23 -4 -19 -9 3 -5 -11 -15 -30 -21 -19 -6 -32 -16 -29 -22 4 -5 -4 -5 -16 2 -13 7 -20 8 -16 2 3 -6 -2 -17 -11 -24 -19 -14 -43 -52 -43 -67 0 -6 10 -20 23 -31 20 -19 20 -21 2 -14 -11 4 -17 4 -14 0 13 -15 62 -16 78 -3 30 26 41 29 34 10 -6 -15 -5 -16 9 -3 9 8 14 18 12 21 -2 3 20 19 48 34 28 15 48 23 45 18 -3 -5 0 -10 8 -10 8 0 12 4 9 9 -16 26 202 48 280 27 85 -22 82 -21 66 -10 -13 9 -12 11 3 11 17 0 18 -15 15 -225 -2 -132 1 -225 6 -225 5 0 7 -3 3 -6 -3 -4 -23 3 -43 15 -20 12 -39 20 -42 17 -2 -3 -18 2 -34 10 -16 8 -33 12 -39 9 -5 -4 -16 -1 -24 5 -8 7 -15 9 -15 5 0 -4 -6 -3 -12 3 -9 7 -42 6 -107 -4 -52 -8 -100 -13 -105 -12 -6 1 -35 -10 -65 -24 -30 -14 -60 -24 -67 -21 -7 2 -15 0 -19 -6 -4 -7 1 -8 12 -4 14 5 16 3 6 -7 -13 -14 -48 -6 -39 9 8 13 -25 93 -51 122 -13 14 -21 28 -17 31 3 4 -18 25 -46 47 -29 23 -48 41 -43 41 4 0 1 5 -7 10 -10 6 -20 4 -32 -6 -9 -9 -22 -13 -27 -9 -7 3 -11 -2 -11 -14 0 -12 -5 -21 -11 -21 -5 0 -7 5 -3 12 4 6 3 8 -3 5 -11 -7 -9 -65 3 -75 4 -4 4 2 0 13 -7 19 -6 19 10 3 17 -17 17 -19 -2 -40 l-19 -23 23 20 c23 19 24 19 38 0 8 -10 14 -23 14 -28 0 -4 5 -5 12 -1 8 5 9 2 5 -9 -4 -11 -1 -17 8 -17 32 0 60 -170 33 -199 -11 -11 -10 -12 1 -6 9 5 12 4 8 -2 -9 -14 -30 -66 -31 -76 -1 -11 -76 -77 -86 -77 -5 0 -11 6 -14 13 -3 6 -3 0 -1 -16 2 -15 0 -25 -5 -22 -5 3 -11 1 -15 -4 -3 -5 -14 -8 -25 -6 -11 2 -23 -1 -26 -7 -4 -7 -2 -8 4 -4 14 8 15 4 6 -18 -3 -9 -10 -13 -15 -10 -21 12 -2 -23 26 -50 17 -16 25 -26 18 -22 -6 3 -14 2 -17 -2 -8 -13 35 -8 63 7 13 7 21 9 18 4 -3 -5 3 -9 13 -9 10 0 16 6 13 12 -5 14 35 40 54 36 7 -2 10 3 7 12 -3 8 3 19 14 25 15 8 21 8 24 -1 3 -7 7 -2 10 10 4 15 3 20 -5 15 -7 -4 -6 1 2 10 7 9 18 14 24 10 6 -3 7 -1 3 5 -4 7 6 31 22 54 16 24 30 48 32 53 4 19 22 34 35 29 7 -3 16 0 21 7 5 8 3 10 -7 5 -8 -4 0 4 16 18 17 14 34 26 38 26 5 0 5 5 1 12 -4 7 -3 8 4 4 6 -4 22 0 35 9 13 8 27 12 31 8 4 -4 11 -2 15 5 4 7 28 15 52 18 72 8 147 9 143 3 -2 -4 22 -9 54 -13 66 -7 106 -30 97 -53 -4 -13 -3 -14 10 -3 12 10 18 10 30 0 12 -10 15 -39 15 -139 l0 -127 -40 3 c-25 1 -38 -2 -34 -8 3 -6 0 -10 -7 -8 -33 4 -50 -1 -43 -13 4 -7 4 -10 -1 -6 -4 4 -19 1 -34 -6 -14 -7 -31 -11 -38 -9 -7 2 -18 -5 -25 -16 -14 -22 -33 -29 -23 -8 4 6 -1 3 -9 -7 -14 -18 -21 -15 -17 7 1 5 -3 6 -9 2 -6 -3 -8 -11 -5 -16 4 -5 -8 -21 -24 -35 -18 -15 -28 -31 -24 -37 4 -7 -1 -6 -10 2 -9 7 -17 12 -18 10 0 -2 -2 -13 -4 -24 -1 -11 -6 -28 -9 -37 -5 -10 0 -24 12 -36 11 -11 18 -23 16 -25 -3 -3 0 -8 7 -13 8 -4 10 -3 5 4 -9 15 -1 15 25 2 13 -8 19 -7 19 0 0 6 5 8 12 4 6 -4 8 -3 5 3 -4 6 0 16 8 23 8 7 15 9 15 5 0 -5 9 2 20 15 28 33 119 81 155 84 13 0 21 5 18 10 -3 5 6 7 20 4 15 -3 24 -1 21 3 -3 5 0 9 5 9 8 0 11 -107 11 -340 0 -265 -3 -340 -12 -340 -9 0 -8 -3 2 -10 13 -8 12 -10 -1 -15 -9 -3 -29 -8 -45 -10 -16 -2 -31 -4 -34 -5 -3 -1 -14 -2 -25 -1 -15 1 -17 0 -7 -7 10 -7 4 -11 -22 -16 -23 -4 -34 -11 -30 -18 4 -6 3 -8 -3 -5 -5 4 -25 -5 -43 -18 -38 -28 -44 -30 -34 -12 3 6 -5 -1 -20 -17 -14 -16 -26 -25 -26 -21 0 5 -6 1 -13 -9 -14 -19 -52 -12 -40 8 3 6 2 8 -2 3 -5 -4 -10 -18 -12 -30 -2 -17 -1 -19 7 -7 7 12 11 12 20 2 5 -6 7 -10 4 -7 -8 5 -64 -63 -64 -77 0 -23 25 -51 57 -64 19 -9 38 -13 41 -10 3 3 -1 6 -8 6 -7 0 -3 9 10 20 13 12 30 18 38 15 12 -4 12 -2 3 8 -9 11 -7 17 6 28 11 9 14 10 9 2 -14 -24 22 -2 39 23 13 20 41 37 100 62 6 2 1 -3 -10 -12 -19 -14 -18 -15 12 -4 18 7 28 15 22 19 -6 3 2 9 18 12 15 3 36 9 46 13 18 7 20 -15 17 -214 0 -30 -28 -84 -40 -77 -5 3 -7 -4 -5 -15 2 -11 0 -18 -5 -15 -4 3 -10 -1 -13 -7 -3 -10 -8 -10 -23 2 -17 13 -17 13 1 -9 11 -14 14 -21 8 -17 -8 4 -13 2 -13 -4 0 -7 -7 -10 -14 -7 -10 4 -13 1 -10 -7 3 -8 -8 -23 -24 -35 -32 -22 -47 -27 -38 -12 4 5 -3 7 -15 4 -12 -4 -16 -8 -10 -13 17 -10 -39 -34 -141 -60 -43 -11 -72 -11 -215 3 -12 1 -28 8 -35 14 -6 7 -20 13 -29 13 -9 0 -22 7 -29 15 -7 8 -20 15 -30 15 -16 0 -104 82 -135 128 -9 12 -13 27 -9 34 4 6 3 8 -4 4 -6 -4 -15 12 -21 41 -15 65 -19 143 -7 136 5 -3 6 -2 3 4 -3 5 -1 28 5 51 10 38 18 47 41 43 5 -1 6 3 2 9 -3 6 -11 8 -16 5 -5 -3 -6 1 -3 10 6 14 9 14 28 -2 11 -10 15 -11 9 -3 -18 19 -16 33 5 56 10 10 21 26 24 35 7 19 80 59 106 59 10 0 23 -4 30 -10 9 -7 9 -7 2 2 -13 16 -13 31 0 23 6 -3 10 -2 10 4 0 9 32 24 55 26 6 1 28 5 50 9 22 3 57 7 78 8 21 1 33 4 27 8 -7 4 -4 12 8 23 19 17 19 71 1 83 -16 9 -133 11 -151 2 -23 -11 -47 0 -45 23 1 10 4 19 7 19 3 0 5 36 6 80 0 43 -3 77 -8 74 -4 -3 -8 6 -8 19 0 27 -39 65 -63 61 -8 -1 -25 -10 -36 -21 -18 -16 -19 -29 -17 -121 1 -57 -2 -105 -6 -108 -4 -3 -8 -13 -8 -24 0 -10 -7 -21 -16 -24 -9 -3 -14 -13 -10 -21 6 -16 -22 -49 -102 -119 -29 -26 -57 -44 -63 -41 -9 6 -13 -8 -10 -33 1 -8 -5 -22 -14 -32 -9 -10 -15 -21 -14 -26 4 -18 -41 -104 -53 -102 -19 4 -36 22 -31 31 3 5 -5 4 -17 -3 -13 -7 -20 -8 -16 -2 4 6 -2 10 -12 9 -10 0 -35 9 -55 22 -37 22 -48 41 -25 41 6 0 8 3 5 6 -4 4 -13 2 -20 -5 -11 -8 -21 -3 -45 24 -18 19 -32 39 -32 44 0 4 -6 14 -14 21 -8 6 -12 18 -9 26 3 8 0 14 -7 14 -7 0 -10 8 -7 20 3 11 2 20 -2 20 -10 0 -8 92 3 108 6 11 11 11 23 0 15 -12 15 -11 2 9 -9 16 -16 19 -21 10 -4 -7 -8 -8 -8 -4 0 17 51 107 74 130 14 14 22 27 20 30 -3 3 5 8 18 12 13 4 34 17 47 29 13 11 20 14 16 6 -6 -10 -2 -10 12 3 11 10 33 20 48 23 46 8 75 33 75 65 0 45 -30 68 -82 63 -23 -3 -45 -9 -48 -13 -13 -20 -51 -28 -114 -25 -54 3 -73 8 -88 24 -15 16 -23 18 -40 9 -15 -8 -19 -8 -14 0 4 6 2 11 -5 11 -7 0 -21 8 -32 17 -13 11 -17 13 -12 4 5 -8 -8 -2 -28 13 -20 16 -34 32 -31 37 3 5 0 8 -8 7 -7 -2 -12 5 -12 15 2 14 -1 15 -12 6 -12 -10 -13 -9 -8 6 6 13 4 16 -5 10 -10 -5 -11 -2 -7 13 4 11 2 23 -3 27 -7 3 -8 0 -5 -9 3 -9 1 -16 -5 -16 -6 0 -11 6 -11 14 0 7 -7 19 -15 26 -9 7 -14 19 -11 26 3 7 0 14 -6 16 -19 7 -18 140 2 197 17 52 54 102 73 98 5 -1 12 5 14 13 4 12 3 12 -5 1 -5 -7 -11 -9 -14 -5 -2 5 6 19 19 31 13 12 23 20 23 16 0 -3 7 0 15 7 12 10 18 10 32 -1 10 -8 14 -9 10 -2 -4 7 0 16 10 22 10 6 13 11 8 11 -6 0 -15 -3 -21 -7 -5 -5 -1 0 10 10 11 10 25 16 33 13 7 -3 13 -1 13 5 0 6 6 9 13 6 6 -2 17 2 22 10 6 7 33 15 60 18 28 3 61 8 73 11 17 3 22 1 16 -8 -5 -10 -4 -11 7 0 7 6 28 12 47 12 24 0 31 -4 26 -12 -5 -10 -4 -10 6 -1 9 9 19 9 33 2 14 -8 18 -8 13 0 -4 6 -2 11 3 11 6 0 11 -4 11 -10 0 -5 4 -10 8 -10 9 0 15 32 14 78 -2 54 -6 69 -19 69 -9 0 -9 -5 -1 -21 11 -21 11 -21 -11 -2 -24 22 -51 29 -51 15 0 -6 -5 -7 -10 -4 -6 4 -43 6 -83 6 l-72 0 -28 58 c-23 49 -26 67 -22 116 6 71 13 97 26 90 5 -3 6 1 3 9 -3 9 -1 16 5 16 6 0 8 7 5 15 -4 8 1 17 10 21 9 3 16 12 16 19 0 8 4 17 10 20 6 3 7 -1 4 -12 -3 -10 2 -7 10 7 8 14 16 21 16 15 1 -5 5 0 10 13 8 19 31 28 62 23 4 0 4 7 1 17 -3 9 -3 14 2 10 4 -4 14 -3 21 3 8 6 21 9 29 5 9 -3 14 -2 11 3 -9 13 14 19 106 27 82 6 170 -4 232 -28 26 -11 31 -9 57 20 20 23 30 28 37 19 7 -8 6 -18 -2 -30 -19 -24 -29 -21 -16 6 11 21 10 21 -4 3 -11 -13 -12 -23 -6 -31 5 -7 7 -15 3 -18 -3 -4 -4 -7 -1 -7 3 0 15 15 26 34 18 30 19 36 6 47 -8 7 -13 18 -10 25 3 8 0 11 -10 7 -10 -4 -13 1 -12 18 2 18 -2 24 -17 24 -18 0 -71 15 -115 32 -8 4 -18 6 -21 5 -4 -1 -2 14 4 33 5 19 14 32 19 29 5 -3 8 0 7 7 -4 24 20 71 33 63 7 -5 8 -3 3 5 -8 13 79 101 99 101 6 0 2 -7 -8 -15 -11 -8 -15 -15 -9 -15 12 0 28 19 28 34 0 13 120 55 155 54 16 -1 33 2 37 6 10 10 167 -5 171 -15z m-388 -339 c0 -5 -2 -10 -4 -10 -3 0 -8 5 -11 10 -3 6 -1 10 4 10 6 0 11 -4 11 -10z"></path> <path d="M2285 4920 c-3 -5 -5 -10 -3 -11 33 -8 38 -7 27 7 -14 17 -16 17 -24 4z"></path> <path d="M2210 4776 c0 -2 7 -7 16 -10 8 -3 12 -2 9 4 -6 10 -25 14 -25 6z"></path> <path d="M2492 4693 c-10 -18 -9 -21 6 -19 9 2 16 6 15 10 -7 27 -11 29 -21 9z"></path> <path d="M2279 4581 c11 -7 11 -9 0 -14 -8 -2 -2 -4 14 -3 24 1 25 2 10 14 -9 6 -22 12 -27 12 -6 0 -5 -4 3 -9z"></path> <path d="M1809 4493 c-12 -16 -12 -17 2 -6 9 7 20 9 24 5 5 -4 5 -1 1 6 -9 16 -11 15 -27 -5z"></path> <path d="M2163 4225 c0 -8 4 -12 9 -9 5 3 6 10 3 15 -9 13 -12 11 -12 -6z"></path> <path d="M2287 4219 c7 -7 15 -10 18 -7 3 3 -2 9 -12 12 -14 6 -15 5 -6 -5z"></path> <path d="M2361 4127 c2 -1 13 -9 24 -17 19 -14 19 -14 6 3 -7 9 -18 17 -24 17 -6 0 -8 -1 -6 -3z"></path> <path d="M2668 4053 c7 -3 16 -2 19 1 4 3 -2 6 -13 5 -11 0 -14 -3 -6 -6z"></path> <path d="M2900 3886 c0 -2 7 -7 16 -10 8 -3 12 -2 9 4 -6 10 -25 14 -25 6z"></path> <path d="M2440 3785 c0 -8 4 -15 10 -15 5 0 7 7 4 15 -4 8 -8 15 -10 15 -2 0 -4 -7 -4 -15z"></path> <path d="M2249 3743 c-13 -16 -12 -17 4 -4 9 7 17 15 17 17 0 8 -8 3 -21 -13z"></path> <path d="M2084 3668 c-7 -11 11 -17 26 -8 9 5 20 4 29 -3 11 -9 13 -9 8 0 -4 6 -1 13 5 16 7 2 -4 4 -25 3 -22 -1 -41 -4 -43 -8z"></path> <path d="M2356 3621 c-3 -5 1 -11 9 -14 9 -4 12 -1 8 9 -6 16 -10 17 -17 5z"></path> <path d="M2094 3547 c1 -20 4 -23 14 -15 7 6 9 14 5 17 -4 4 -11 10 -14 14 -4 5 -6 -3 -5 -16z"></path> <path d="M2828 3553 c7 -3 16 -2 19 1 4 3 -2 6 -13 5 -11 0 -14 -3 -6 -6z"></path> <path d="M1859 3333 c-13 -16 -12 -17 4 -4 16 13 21 21 13 21 -2 0 -10 -8 -17 -17z"></path> <path d="M2275 3029 c-4 -6 -5 -12 -2 -15 2 -3 7 2 10 11 7 17 1 20 -8 4z"></path> <path d="M2624 3026 c1 -8 5 -18 8 -22 4 -3 5 1 4 10 -1 8 -5 18 -8 22 -4 3 -5 -1 -4 -10z"></path> <path d="M1800 2726 c0 -2 8 -10 18 -17 15 -13 16 -12 3 4 -13 16 -21 21 -21 13z"></path> <path d="M2220 2701 c0 -6 4 -13 10 -16 6 -3 7 1 4 9 -7 18 -14 21 -14 7z"></path> <path d="M2970 2395 c-9 -11 -10 -19 -3 -26 8 -8 13 -7 18 2 5 8 4 10 -3 5 -16 -9 -15 7 0 22 7 7 9 12 6 12 -3 0 -11 -7 -18 -15z"></path> <path d="M2304 2233 c4 -4 16 -8 28 -10 28 -4 18 6 -12 12 -12 2 -20 1 -16 -2z"></path> <path d="M2259 5028 c7 -9 9 -23 5 -30 -6 -10 -4 -11 7 0 11 10 10 15 -6 30 -17 15 -18 15 -6 0z"></path> <path d="M2286 5028 c3 -5 10 -6 15 -3 13 9 11 12 -6 12 -8 0 -12 -4 -9 -9z"></path> <path d="M2923 5026 c0 -8 5 -14 11 -13 6 1 10 -4 8 -11 -1 -8 2 -11 8 -7 8 5 6 13 -6 26 -21 23 -21 23 -21 5z"></path> <path d="M2167 4885 c-4 -8 -3 -16 1 -19 4 -3 9 4 9 15 2 23 -3 25 -10 4z"></path> <path d="M3700 4868 c-93 -50 -137 -150 -111 -248 l13 -45 -89 -82 -88 -83 -137 0 -138 0 0 -60 0 -60 159 0 160 0 106 101 c79 75 110 99 123 94 95 -39 171 -25 242 43 75 73 89 151 43 243 -39 75 -91 110 -174 116 -54 4 -71 1 -109 -19z m160 -13 c11 -4 18 -11 15 -16 -4 -5 2 -9 13 -9 22 0 55 -33 45 -45 -5 -4 -3 -5 4 -1 7 4 17 -2 23 -14 15 -27 3 -45 -18 -28 -15 10 -15 10 -4 -2 7 -8 18 -15 25 -15 19 0 20 -81 2 -130 -12 -30 -26 -47 -45 -55 -16 -7 -31 -18 -34 -25 -8 -21 -82 -28 -152 -15 -47 9 -68 9 -78 1 -7 -6 -15 -8 -18 -5 -3 3 -5 -2 -4 -12 0 -10 -22 -35 -54 -60 -53 -42 -78 -55 -65 -34 11 18 -1 11 -21 -12 -15 -19 -16 -20 -1 -9 9 7 17 9 17 3 0 -14 -28 -35 -38 -28 -6 3 -16 -2 -23 -12 -12 -15 -12 -16 2 -5 13 10 16 10 16 -1 0 -8 -7 -12 -16 -11 -9 2 -73 4 -143 4 l-128 1 0 25 c0 14 6 27 13 30 18 6 255 11 255 5 -1 -15 3 -20 12 -15 6 4 7 12 3 18 -4 7 -8 18 -9 25 -2 11 0 11 14 0 9 -7 13 -8 9 -2 -7 12 27 54 44 54 6 0 7 5 3 12 -4 6 -3 8 3 5 6 -4 23 9 38 28 16 19 32 32 37 29 4 -3 8 2 8 11 0 9 4 14 9 11 10 -6 8 14 -4 74 -8 41 -9 46 -7 84 2 21 6 27 17 22 13 -4 13 -2 5 14 -12 22 -13 41 -1 22 6 -10 10 -5 14 17 4 17 10 30 14 29 5 -1 22 6 40 15 18 9 39 17 48 17 9 0 14 4 10 9 -6 10 70 7 105 -4z"></path> <path d="M3722 4831 c-11 -6 -10 -10 4 -15 9 -4 22 -2 28 4 8 8 6 9 -8 4 -13 -5 -17 -4 -12 4 8 14 6 15 -12 3z"></path> <path d="M3843 4809 c-6 -6 -33 -13 -60 -15 -26 -2 -49 -8 -51 -14 -2 -5 -8 -10 -13 -10 -6 0 -7 6 -3 13 4 6 4 9 0 5 -4 -3 -8 -10 -8 -15 -1 -4 -8 -14 -17 -21 -12 -10 -12 -12 -1 -6 11 6 10 2 -2 -13 -24 -27 -22 -79 4 -116 12 -17 17 -28 11 -24 -13 8 -11 -18 2 -30 4 -4 5 -2 1 5 -4 7 -1 12 8 12 9 0 16 -4 16 -8 0 -8 29 -14 70 -14 36 0 53 5 68 22 12 13 13 13 7 0 -4 -8 2 -4 13 10 11 13 18 28 16 32 -2 3 0 9 5 13 6 3 9 23 8 45 0 21 -5 36 -9 34 -4 -3 -8 3 -8 14 0 10 -9 27 -20 37 -14 12 -17 22 -10 30 17 21 -7 34 -27 14z m17 -14 c-7 -9 -15 -13 -17 -11 -7 7 7 26 19 26 6 0 6 -6 -2 -15z m3 -53 c60 -56 16 -162 -68 -162 -83 0 -129 110 -69 165 43 40 91 39 137 -3z"></path> <path d="M3774 4624 c-18 -14 -18 -15 4 -4 12 6 22 13 22 15 0 8 -5 6 -26 -11z"></path> <path d="M3902 4798 c2 -7 -3 -12 -11 -10 -12 3 -12 0 -1 -13 7 -8 15 -13 18 -10 10 10 10 35 1 41 -5 3 -8 0 -7 -8z"></path> <path d="M3921 4583 c-1 -17 16 -25 25 -12 4 7 3 9 -4 5 -5 -3 -13 0 -15 6 -4 9 -6 10 -6 1z"></path> <path d="M3598 4458 c-10 -10 -14 -18 -9 -18 10 0 36 29 30 34 -2 1 -12 -6 -21 -16z"></path> <path d="M3496 4431 c-4 -5 -2 -12 3 -15 5 -4 12 -2 15 3 4 5 2 12 -3 15 -5 4 -12 2 -15 -3z"></path> <path d="M4051 4733 c-1 -17 16 -25 25 -12 4 7 3 9 -4 5 -5 -3 -13 0 -15 6 -4 9 -6 10 -6 1z"></path> <path d="M1800 4630 c-9 -6 -10 -10 -3 -10 6 0 15 5 18 10 8 12 4 12 -15 0z"></path> <path d="M1706 4542 c-3 -5 1 -9 9 -9 8 0 12 4 9 9 -3 4 -7 8 -9 8 -2 0 -6 -4 -9 -8z"></path> <path d="M3489 4533 c-13 -16 -12 -17 4 -4 16 13 21 21 13 21 -2 0 -10 -8 -17 -17z"></path> <path d="M4075 4361 c-42 -19 -99 -76 -110 -110 -6 -19 -14 -21 -99 -21 l-92 0 -116 -110 -116 -110 -56 0 -56 0 0 -60 0 -60 76 0 76 0 118 110 118 110 71 0 c42 0 71 -4 71 -10 0 -26 54 -92 96 -116 151 -89 345 44 318 217 -10 58 -60 128 -113 156 -54 28 -129 30 -186 4z m110 -12 c3 -4 14 -5 25 -2 12 3 20 0 20 -7 0 -7 6 -10 14 -7 8 3 17 -1 20 -9 3 -8 10 -14 16 -14 16 0 42 -28 36 -39 -3 -5 1 -12 10 -15 11 -4 15 -14 12 -31 -3 -15 -1 -22 5 -18 6 4 7 -4 3 -21 -5 -20 -3 -26 5 -21 8 6 8 2 0 -14 -7 -12 -9 -26 -6 -31 3 -6 1 -10 -5 -10 -6 0 -8 -4 -5 -10 3 -5 1 -18 -5 -27 -9 -14 -10 -14 -7 -2 3 9 -1 16 -8 16 -8 0 -12 -8 -10 -20 3 -13 0 -17 -10 -13 -10 3 -12 0 -8 -11 5 -12 2 -15 -10 -10 -9 3 -19 1 -23 -5 -5 -7 -2 -8 6 -3 8 5 11 3 9 -4 -3 -7 -8 -12 -13 -11 -5 1 -12 -4 -17 -11 -9 -16 -117 -20 -144 -6 -11 6 -24 10 -28 9 -5 -1 -5 3 -1 9 5 9 2 10 -10 6 -10 -4 -15 -3 -11 3 3 6 -2 10 -11 10 -10 0 -15 3 -11 6 5 6 0 15 -30 49 -10 11 -10 14 0 18 7 4 6 6 -4 6 -9 1 -22 7 -28 14 -7 9 -34 14 -75 14 -35 0 -69 4 -75 7 -7 5 -9 1 -5 -9 5 -11 2 -14 -12 -8 -13 5 -15 3 -9 -7 6 -10 4 -12 -9 -7 -9 4 -15 3 -12 -2 3 -5 -1 -14 -9 -21 -8 -7 -12 -16 -9 -21 7 -12 -44 -23 -59 -13 -7 5 -4 1 6 -8 11 -10 15 -18 10 -18 -16 0 -62 -47 -55 -56 4 -4 1 -4 -6 0 -7 4 -15 1 -18 -9 -10 -25 -59 -45 -114 -45 -49 0 -50 1 -50 30 0 28 3 30 35 30 33 0 95 23 95 36 0 3 -6 2 -12 -2 -10 -6 -9 -3 0 8 8 9 19 15 27 12 7 -3 16 0 21 7 5 8 3 10 -7 4 -8 -4 20 25 61 64 41 38 81 70 88 71 6 0 12 5 12 10 0 6 32 10 76 10 75 0 112 11 127 37 5 7 12 11 17 8 5 -3 11 -1 15 5 3 5 1 10 -6 10 -7 0 -5 6 6 13 11 9 15 19 10 27 -6 10 -4 12 8 7 11 -4 17 -1 17 7 0 15 27 30 47 27 6 -1 14 3 17 8 7 11 65 12 71 0z"></path> <path d="M4135 4340 c27 -12 43 -12 25 0 -8 5 -22 9 -30 9 -10 0 -8 -3 5 -9z"></path> <path d="M4069 4323 c-13 -16 -12 -17 4 -4 9 7 17 15 17 17 0 8 -8 3 -21 -13z"></path> <path d="M4108 4300 c18 -21 15 -35 -5 -19 -15 12 -16 12 -10 -3 4 -12 2 -15 -7 -12 -8 3 -17 0 -22 -7 -4 -8 -3 -10 4 -5 8 5 10 2 6 -8 -3 -9 -9 -14 -13 -11 -8 5 -9 2 -17 -67 -6 -49 -4 -54 63 -108 15 -12 110 -23 98 -11 -2 2 6 11 18 21 20 16 22 17 34 1 10 -14 11 -13 6 7 -3 14 1 30 11 41 23 26 17 70 -18 116 -16 22 -31 42 -33 44 -2 3 -24 6 -49 7 -25 1 -53 8 -62 15 -14 11 -15 11 -4 -1z m86 -44 c61 -25 81 -78 52 -135 -29 -55 -99 -66 -147 -23 -52 47 -40 130 24 157 40 18 32 17 71 1z"></path> <path d="M4166 4197 c3 -10 9 -15 12 -12 3 3 0 11 -7 18 -10 9 -11 8 -5 -6z"></path> <path d="M4146 4148 c3 -5 10 -6 15 -3 13 9 11 12 -6 12 -8 0 -12 -4 -9 -9z"></path> <path d="M4045 4279 c-4 -6 -5 -12 -2 -15 2 -3 7 2 10 11 7 17 1 20 -8 4z"></path> <path d="M3940 4188 c0 -4 4 -8 9 -8 6 0 12 4 15 8 3 5 -1 9 -9 9 -8 0 -15 -4 -15 -9z"></path> <path d="M3635 4060 c-3 -5 -1 -10 4 -10 6 0 11 5 11 10 0 6 -2 10 -4 10 -3 0 -8 -4 -11 -10z"></path> <path d="M4385 4299 c-4 -6 -5 -12 -2 -15 2 -3 7 2 10 11 7 17 1 20 -8 4z"></path> <path d="M3606 4142 c-3 -5 1 -9 9 -9 8 0 12 4 9 9 -3 4 -7 8 -9 8 -2 0 -6 -4 -9 -8z"></path> <path d="M1690 4136 c0 -2 8 -10 18 -17 15 -13 16 -12 3 4 -13 16 -21 21 -21 13z"></path> <path d="M1724 4094 c-18 -14 -18 -15 4 -4 12 6 22 13 22 15 0 8 -5 6 -26 -11z"></path> <path d="M3126 4067 c3 -10 9 -15 12 -12 3 3 0 11 -7 18 -10 9 -11 8 -5 -6z"></path> <path d="M3410 4076 c0 -2 7 -7 16 -10 8 -3 12 -2 9 4 -6 10 -25 14 -25 6z"></path> <path d="M3385 4029 c-4 -6 -5 -12 -2 -15 2 -3 7 2 10 11 7 17 1 20 -8 4z"></path> <path d="M3774 4024 c-18 -14 -18 -15 4 -4 12 6 22 13 22 15 0 8 -5 6 -26 -11z"></path> <path d="M3155 3950 l0 -60 80 0 80 0 0 60 0 60 -80 0 -80 0 0 -60z m133 -2 c3 -28 2 -28 -52 -28 -56 0 -56 0 -56 31 l0 30 53 -3 c48 -3 52 -5 55 -30z"></path> <path d="M1471 3983 c7 -12 15 -20 18 -17 3 2 -3 12 -13 22 -17 16 -18 16 -5 -5z"></path> <path d="M1496 3987 c3 -10 9 -15 12 -12 3 3 0 11 -7 18 -10 9 -11 8 -5 -6z"></path> <path d="M3696 3928 c3 -5 10 -6 15 -3 13 9 11 12 -6 12 -8 0 -12 -4 -9 -9z"></path> <path d="M1383 3865 c-3 -9 -3 -18 -1 -21 3 -3 8 4 11 16 6 23 -1 27 -10 5z"></path> <path d="M2383 3841 c0 -11 5 -18 9 -15 4 3 5 11 1 19 -7 21 -12 19 -10 -4z"></path> <path d="M4315 3797 c-40 -19 -89 -68 -105 -106 l-12 -31 -239 0 -239 0 0 -60 0 -60 238 0 237 0 13 -30 c18 -40 69 -90 109 -106 43 -19 125 -18 171 1 151 64 170 274 34 369 -36 25 -54 31 -110 33 -42 2 -79 -2 -97 -10z m50 -16 c-3 -6 7 -6 27 0 37 10 98 -5 98 -24 0 -7 4 -6 10 3 8 13 10 12 10 -4 0 -11 3 -17 6 -13 10 10 32 -17 26 -32 -3 -8 -1 -12 5 -8 17 11 41 -56 39 -109 -2 -53 -43 -141 -64 -136 -7 1 -12 -6 -12 -15 0 -15 -2 -16 -10 -3 -5 8 -10 10 -10 5 0 -17 -62 -35 -95 -28 -17 3 -40 6 -52 6 -13 -1 -20 3 -17 9 4 6 1 8 -7 6 -14 -5 -51 30 -97 90 -16 22 -19 32 -10 35 7 3 -81 3 -197 1 -232 -4 -268 0 -270 34 -1 13 1 25 5 27 4 3 112 5 241 6 129 1 228 3 222 6 -13 5 14 49 66 105 20 23 27 25 40 15 11 -9 13 -9 8 0 -4 7 0 16 10 22 23 13 36 14 28 2z"></path> <path d="M4302 3735 c0 -16 2 -22 5 -12 2 9 2 23 0 30 -3 6 -5 -1 -5 -18z"></path> <path d="M4338 3733 c7 -3 16 -2 19 1 4 3 -2 6 -13 5 -11 0 -14 -3 -6 -6z"></path> <path d="M4380 3720 c0 -5 -7 -7 -15 -4 -8 4 -15 1 -15 -4 0 -6 -8 -13 -18 -16 -9 -3 -26 -23 -36 -43 -10 -21 -22 -46 -27 -55 -12 -24 -11 -37 1 -18 8 12 10 11 10 -6 0 -11 11 -31 25 -44 13 -12 22 -27 18 -33 -4 -6 -1 -7 6 -3 7 5 20 1 29 -6 26 -23 46 -33 38 -20 -7 12 16 17 59 14 15 -2 16 0 7 7 -11 6 -10 10 5 16 10 5 21 8 24 7 12 -2 40 85 33 103 -4 10 -3 16 2 13 5 -4 10 5 10 18 2 23 1 24 -12 7 -13 -17 -14 -17 -8 0 4 10 1 17 -6 17 -6 0 -8 5 -4 12 4 7 3 8 -5 4 -6 -4 -24 2 -39 13 -32 22 -82 35 -82 21z m93 -60 c31 -35 34 -69 10 -111 -33 -55 -96 -62 -149 -16 -21 18 -27 32 -27 64 0 49 6 59 47 84 41 26 83 18 119 -21z"></path> <path d="M4401 3660 c-10 -5 -9 -8 2 -13 7 -3 19 -2 26 3 10 5 9 8 -2 13 -7 3 -19 2 -26 -3z"></path> <path d="M4346 3623 c-6 -14 -5 -15 5 -6 7 7 10 15 7 18 -3 3 -9 -2 -12 -12z"></path> <path d="M4420 3621 c0 -6 4 -13 10 -16 6 -3 7 1 4 9 -7 18 -14 21 -14 7z"></path> <path d="M4384 3609 c-3 -6 -1 -16 5 -22 9 -9 10 -7 5 7 -6 15 -4 17 6 11 9 -5 11 -4 6 3 -9 15 -13 15 -22 1z"></path> <path d="M4460 3710 c8 -5 20 -10 25 -10 6 0 3 5 -5 10 -8 5 -19 10 -25 10 -5 0 -3 -5 5 -10z"></path> <path d="M4224 3619 c-3 -6 -2 -15 3 -20 5 -5 9 -1 9 11 0 23 -2 24 -12 9z"></path> <path d="M4197 3589 c7 -7 15 -10 18 -7 3 3 -2 9 -12 12 -14 6 -15 5 -6 -5z"></path> <path d="M4340 3466 c0 -2 7 -7 16 -10 8 -3 12 -2 9 4 -6 10 -25 14 -25 6z"></path> <path d="M4613 3747 c0 -8 6 -14 14 -14 9 0 10 4 2 14 -6 7 -12 13 -14 13 -1 0 -2 -6 -2 -13z"></path> <path d="M3155 3600 l0 -60 98 0 97 0 0 60 0 60 -97 0 -98 0 0 -60z m148 31 c17 -7 27 -18 27 -31 0 -27 -39 -41 -101 -39 -42 2 -47 5 -36 18 9 12 9 13 0 7 -9 -5 -13 0 -13 14 0 14 4 19 13 14 9 -6 9 -5 0 7 -11 13 -6 16 36 18 26 1 60 -3 74 -8z"></path> <path d="M3304 3600 c0 -13 4 -16 10 -10 7 7 7 13 0 20 -6 6 -10 3 -10 -10z"></path> <path d="M3480 3600 l0 -60 59 0 59 0 0 60 0 60 -59 0 -59 0 0 -60z m87 0 c0 -33 -3 -37 -26 -35 -19 1 -27 7 -29 24 -5 34 3 47 30 47 22 0 25 -4 25 -36z"></path> <path d="M4180 3471 c0 -6 4 -13 10 -16 6 -3 7 1 4 9 -7 18 -14 21 -14 7z"></path> <path d="M1447 3383 c3 -7 6 -13 8 -13 2 0 5 6 8 13 3 8 -1 14 -8 14 -7 0 -11 -6 -8 -14z"></path> <path d="M1476 3382 c-3 -5 1 -9 9 -9 8 0 12 4 9 9 -3 4 -7 8 -9 8 -2 0 -6 -4 -9 -8z"></path> <path d="M3646 3307 c3 -10 9 -15 12 -12 3 3 0 11 -7 18 -10 9 -11 8 -5 -6z"></path> <path d="M3155 3250 l0 -60 80 0 80 0 0 60 0 60 -80 0 -80 0 0 -60z m130 0 c0 -23 -4 -25 -52 -28 -51 -3 -53 -2 -53 22 0 15 5 26 11 26 5 0 8 4 5 8 -2 4 16 5 42 2 42 -4 47 -8 47 -30z"></path> <path d="M3430 3250 l0 -60 56 0 56 0 116 -110 116 -110 92 0 c91 0 92 0 103 -29 16 -38 68 -87 113 -105 158 -66 329 82 287 248 -34 134 -194 202 -313 132 -44 -26 -96 -87 -96 -113 0 -9 -20 -13 -71 -13 l-71 0 -118 110 -118 110 -76 0 -76 0 0 -60z m170 9 c14 -12 18 -18 10 -14 -8 4 -6 0 4 -9 10 -8 23 -13 29 -9 6 3 8 2 5 -3 -3 -5 3 -17 14 -26 10 -10 18 -16 18 -13 0 3 11 -5 24 -17 13 -13 21 -27 18 -32 -3 -5 2 -6 12 -3 9 4 15 3 12 -2 -3 -5 1 -14 9 -21 8 -7 12 -16 9 -21 -3 -5 1 -6 9 -3 8 3 22 -2 31 -12 13 -13 30 -15 75 -12 50 3 58 2 53 -11 -3 -9 5 -4 17 12 12 15 30 27 39 27 15 0 15 2 2 10 -12 8 -12 10 -1 10 8 0 11 3 8 6 -3 4 7 19 23 34 16 15 26 30 22 34 -3 4 2 4 12 0 15 -6 17 -4 11 7 -8 12 -6 12 8 0 10 -8 20 -11 24 -7 3 3 1 6 -6 6 -30 0 4 19 43 25 54 9 109 -2 99 -18 -4 -8 -1 -7 9 1 13 10 17 10 22 -3 3 -9 9 -14 14 -11 4 2 9 -4 9 -15 1 -12 -3 -17 -9 -13 -6 4 -8 3 -5 -4 4 -5 15 -8 25 -5 20 5 42 -27 46 -69 2 -14 7 -31 11 -39 7 -11 5 -11 -10 1 -17 14 -18 14 -6 -7 11 -22 5 -77 -8 -69 -3 2 -7 -6 -7 -19 -2 -26 -33 -65 -52 -65 -7 0 -10 -5 -6 -12 4 -7 3 -8 -5 -4 -6 4 -18 3 -24 -3 -7 -5 -22 -10 -32 -10 -11 1 -31 -2 -44 -5 -13 -3 -31 -1 -40 5 -12 8 -10 9 9 4 19 -5 21 -4 10 4 -8 6 -25 8 -38 4 -30 -7 -54 14 -46 41 6 20 5 20 -8 3 -13 -18 -15 -18 -29 -1 -12 16 -12 17 1 10 9 -4 8 -1 -2 7 -10 8 -18 17 -18 20 0 4 8 4 18 0 9 -3 14 -3 10 1 -3 4 -14 9 -23 10 -9 1 -20 7 -23 13 -16 24 -56 34 -131 32 l-78 -2 -66 67 c-37 36 -63 66 -59 66 4 1 -6 8 -23 16 -16 8 -21 12 -10 9 15 -5 17 -3 9 5 -6 6 -20 13 -30 14 -11 2 -18 6 -16 11 5 13 -48 35 -85 35 -32 0 -34 2 -31 28 3 23 8 28 43 32 50 7 64 4 95 -21z"></path> <path d="M3586 3191 c-3 -4 6 -8 20 -9 13 -1 24 0 24 2 0 7 -40 14 -44 7z"></path> <path d="M4076 3147 c3 -10 9 -15 12 -12 3 3 0 11 -7 18 -10 9 -11 8 -5 -6z"></path> <path d="M4124 3146 c-17 -8 -43 -27 -58 -42 -24 -25 -26 -35 -22 -74 8 -67 9 -70 17 -64 4 2 10 0 14 -6 3 -5 0 -10 -7 -10 -10 0 -9 -3 2 -9 8 -6 18 -7 22 -5 4 3 8 0 8 -6 0 -7 7 -9 16 -6 11 4 15 2 11 -7 -4 -11 3 -12 36 -6 23 4 46 5 51 2 5 -4 6 0 1 7 -6 10 -4 12 9 7 9 -4 14 -3 11 2 -3 5 4 12 15 16 11 4 18 11 15 16 -4 5 1 16 10 25 10 10 13 24 9 36 -4 13 -2 18 4 14 6 -3 14 -1 18 5 4 8 3 9 -4 5 -7 -4 -12 -2 -12 4 0 6 -7 19 -16 27 -10 10 -14 26 -11 42 4 21 3 23 -6 10 -10 -16 -13 -16 -36 1 -38 27 -62 31 -97 16z m85 -30 c73 -38 65 -139 -15 -172 -97 -40 -173 88 -95 158 35 31 68 35 110 14z"></path> <path d="M4125 3070 c-4 -6 -1 -9 7 -8 7 2 12 -2 11 -9 -2 -12 23 -12 32 0 3 4 2 5 -2 2 -3 -3 -14 2 -24 11 -11 10 -19 12 -24 4z"></path> <path d="M4303 3127 c0 -8 6 -14 14 -14 9 0 10 4 2 14 -6 7 -12 13 -14 13 -1 0 -2 -6 -2 -13z"></path> <path d="M3775 3072 c-12 -8 -13 -28 -2 -36 4 -3 5 -3 2 0 -2 4 0 15 6 25 11 21 9 23 -6 11z"></path> <path d="M3952 3028 c-16 -16 -15 -25 1 -25 7 0 13 9 13 19 0 21 1 21 -14 6z"></path> <path d="M4235 2901 c-3 -5 -2 -12 3 -15 5 -3 9 1 9 9 0 17 -3 19 -12 6z"></path> <path d="M4265 2900 c-3 -5 -1 -10 4 -10 6 0 11 5 11 10 0 6 -2 10 -4 10 -3 0 -8 -4 -11 -10z"></path> <path d="M3696 3272 c-3 -5 1 -9 9 -9 8 0 12 4 9 9 -3 4 -7 8 -9 8 -2 0 -6 -4 -9 -8z"></path> <path d="M3380 3181 c0 -6 4 -13 10 -16 6 -3 7 1 4 9 -7 18 -14 21 -14 7z"></path> <path d="M3127 3137 c-3 -7 3 -13 14 -13 13 0 15 3 7 13 -6 7 -12 13 -13 13 -2 0 -5 -6 -8 -13z"></path> <path d="M3606 3058 c3 -5 10 -6 15 -3 13 9 11 12 -6 12 -8 0 -12 -4 -9 -9z"></path> <path d="M3150 2850 l0 -60 138 0 137 0 89 -83 89 -83 -11 -33 c-51 -146 66 -292 223 -279 75 6 131 45 168 117 44 87 32 164 -35 237 -65 71 -157 89 -250 49 -13 -5 -43 18 -123 94 l-106 101 -160 0 -159 0 0 -60z m314 28 c-3 -4 -2 -8 3 -8 4 0 19 -9 33 -20 22 -16 22 -19 5 -16 -11 2 -26 -1 -32 -7 -14 -10 -18 3 -5 19 4 5 -2 0 -13 -11 -18 -18 -31 -20 -147 -17 l-128 3 0 29 0 29 133 3 c72 2 137 3 144 4 7 0 10 -3 7 -8z m72 -69 c8 -6 14 -18 14 -25 0 -8 5 -14 11 -14 5 0 7 6 3 13 -4 7 -3 9 2 4 5 -5 9 -14 9 -20 0 -7 9 -13 20 -15 30 -6 47 -23 40 -41 -3 -8 -3 -12 1 -8 4 4 13 2 21 -5 10 -8 27 -8 67 2 83 20 196 -3 156 -31 -12 -9 -12 -10 3 -5 29 9 64 -14 79 -53 18 -47 23 -128 8 -146 -6 -8 -9 -18 -7 -22 8 -13 -20 -46 -33 -38 -6 3 -9 1 -8 -5 6 -24 -51 -54 -112 -60 -33 -3 -60 -2 -60 2 0 4 -7 8 -15 8 -21 0 -66 30 -60 40 3 4 -3 7 -12 6 -9 0 -18 5 -21 13 -3 9 0 11 8 6 9 -6 11 -4 6 4 -5 7 -14 10 -22 7 -17 -7 -17 -9 -19 84 -1 41 2 81 7 87 7 9 5 24 -6 48 -9 19 -19 35 -22 35 -3 0 -2 -5 2 -12 4 -6 -4 -3 -18 8 -14 10 -24 21 -22 23 2 2 -7 11 -19 21 -19 16 -20 20 -7 35 14 17 14 17 -7 5 -19 -12 -24 -12 -41 4 -25 21 -39 64 -16 45 8 -7 14 -8 13 -3 -1 5 -1 12 0 16 1 10 40 1 57 -13z"></path> <path d="M3507 2799 c13 -16 8 -29 -9 -29 -5 0 -7 4 -4 8 3 5 -2 9 -10 9 -13 0 -13 -2 1 -16 13 -14 17 -14 31 0 14 14 13 17 -3 30 -16 12 -17 12 -6 -2z"></path> <path d="M3607 2729 c7 -7 15 -10 18 -7 3 3 -2 9 -12 12 -14 6 -15 5 -6 -5z"></path> <path d="M3576 2708 c3 -5 10 -6 15 -3 13 9 11 12 -6 12 -8 0 -12 -4 -9 -9z"></path> <path d="M3765 2641 c-11 -5 -23 -7 -27 -4 -5 2 -8 -1 -8 -6 0 -6 -7 -11 -16 -11 -9 0 -12 5 -8 13 4 6 4 9 0 5 -4 -3 -6 -8 -4 -11 2 -3 -6 -15 -17 -28 -11 -12 -14 -19 -7 -15 15 9 16 -10 1 -19 -15 -10 -7 -88 11 -103 10 -9 10 -11 1 -6 -9 5 -12 3 -7 -5 4 -6 12 -9 17 -5 6 3 8 -5 5 -20 -3 -17 1 -29 12 -36 14 -8 14 -10 2 -10 -11 0 -11 -3 3 -11 14 -8 22 -8 30 1 9 8 7 9 -7 4 -14 -5 -17 -4 -12 4 4 7 1 15 -7 18 -7 2 -14 11 -14 19 0 17 14 20 19 5 5 -17 88 -23 106 -8 13 11 14 11 7 -2 -7 -12 -5 -12 11 1 21 18 48 14 37 -4 -3 -7 -2 -8 2 -4 15 13 14 36 -1 30 -12 -4 -13 -1 -3 21 7 14 15 26 18 26 4 0 8 20 9 45 1 26 -3 45 -9 45 -6 0 -8 4 -5 8 2 4 -5 19 -16 32 -11 14 -17 18 -13 10 4 -8 -1 -6 -9 4 -12 15 -16 16 -16 5 0 -10 -3 -11 -8 -2 -10 16 -53 24 -77 14z m102 -56 c37 -42 25 -121 -21 -143 -39 -19 -56 -21 -81 -12 -72 27 -89 108 -35 162 28 27 36 30 73 25 28 -4 49 -14 64 -32z"></path> <path d="M3925 2630 c-4 -6 -2 -17 4 -24 6 -7 8 -22 5 -32 -4 -11 -4 -16 1 -12 11 11 16 66 5 73 -5 3 -12 1 -15 -5z"></path> <path d="M3625 2470 c3 -5 8 -10 11 -10 2 0 4 5 4 10 0 6 -5 10 -11 10 -5 0 -7 -4 -4 -10z"></path> <path d="M3855 2360 c-3 -6 1 -7 9 -4 18 7 21 14 7 14 -6 0 -13 -4 -16 -10z"></path> <path d="M2316 2892 c-3 -5 1 -9 9 -9 8 0 12 4 9 9 -3 4 -7 8 -9 8 -2 0 -6 -4 -9 -8z"></path> <path d="M2280 2865 c-11 -13 -10 -14 4 -9 9 3 16 10 16 15 0 13 -6 11 -20 -6z"></path> <path d="M4013 2843 c4 -3 1 -13 -6 -22 -11 -14 -10 -14 5 -2 16 12 16 31 1 31 -4 0 -3 -3 0 -7z"></path> <path d="M4305 2829 c-4 -6 -5 -12 -2 -15 2 -3 7 2 10 11 7 17 1 20 -8 4z"></path> <path d="M1680 2756 c0 -2 8 -10 18 -17 15 -13 16 -12 3 4 -13 16 -21 21 -21 13z"></path> <path d="M3390 2756 c0 -2 7 -7 16 -10 8 -3 12 -2 9 4 -6 10 -25 14 -25 6z"></path> <path d="M2095 2629 c-4 -6 -5 -12 -2 -15 2 -3 7 2 10 11 7 17 1 20 -8 4z"></path> <path d="M4055 2479 c-4 -6 -4 -13 -1 -16 3 -4 6 -1 6 6 0 7 5 9 12 5 7 -4 8 -3 4 4 -9 15 -13 15 -21 1z"></path> <path d="M2244 2186 c1 -8 5 -18 8 -22 4 -3 5 1 4 10 -1 8 -5 18 -8 22 -4 3 -5 -1 -4 -10z"></path>                         </g> </svg>