<?xml version="1.0" encoding="utf-8"?>
<!DOCTYPE svg PUBLIC "-//W3C//DTD SVG 20010904//EN" "http://www.w3.org/TR/2001/REC-SVG-20010904/DTD/svg10.dtd">
<svg version="1.0" xmlns="http://www.w3.org/2000/svg" width="829pt" height="623pt" viewBox="0 0 829 623" preserveAspectRatio="xMidYMid meet">
<g fill="#EC764EFF">
<path d="M 217.54 502.25 C 221.08 494.06 225.14 482.23 225.62 478.72 L 226.21 474.44 L 220.90 471.97 C 217.78 470.52 212.84 466.75 208.91 462.83 L 202.23 456.16 L 201.62 459.96 C 201.29 462.05 200.22 464.73 199.26 465.92 C 197.19 468.45 190.55 470.96 187.79 470.24 C 182.92 468.96 181.02 460.02 184.95 456.84 C 187.64 454.66 191.84 454.42 192.60 456.41 C 192.90 457.18 192.68 459.55 192.11 461.66 L 191.08 465.50 L 193.59 462.63 C 196.92 458.84 196.61 453.53 192.92 450.78 C 191.50 449.72 184.75 447.28 177.92 445.36 C 163.35 441.25 157.42 438.26 151.87 432.25 C 145.79 425.64 142.87 418.41 142.24 408.38 C 141.34 393.97 145.68 382.98 154.80 376.57 C 158.19 374.19 160.35 373.51 165.56 373.18 C 172.05 372.76 172.10 372.78 175.79 376.67 L 179.50 380.57 L 179.18 371.78 L 178.86 363.00 L 226.10 363.00 L 273.35 363.00 L 271.06 365.44 C 269.80 366.78 266.56 368.44 263.86 369.13 L 258.95 370.39 L 263.79 372.20 C 269.49 374.32 273.67 378.36 275.41 383.42 L 276.66 387.06 L 277.86 383.08 C 279.44 377.79 283.99 373.43 289.78 371.65 C 292.78 370.74 293.66 370.17 292.21 370.10 C 289.41 369.98 282.84 366.72 281.06 364.57 C 279.89 363.16 280.60 363.00 287.88 363.00 L 296.01 363.00 L 295.45 370.25 C 292.80 404.61 289.08 422.09 280.45 440.81 L 277.08 448.11 L 279.88 445.75 C 282.93 443.19 287.62 441.26 298.50 438.10 C 322.77 431.03 333.16 410.23 322.90 389.21 C 318.09 379.33 309.27 374.64 303.73 378.99 C 300.41 381.61 300.12 385.88 302.90 391.07 C 305.24 395.43 304.18 398.00 300.05 398.00 C 297.75 398.00 296.98 397.39 296.10 394.85 C 294.56 390.44 294.73 384.71 296.53 380.22 C 300.83 369.48 317.25 370.73 326.16 382.47 C 331.51 389.52 333.34 396.28 332.76 406.83 C 332.17 417.68 329.36 425.27 323.54 431.74 C 317.82 438.11 311.82 441.23 297.95 445.08 C 281.83 449.55 279.00 451.32 279.00 456.89 C 279.00 459.59 280.97 463.77 282.52 464.37 C 283.48 464.74 283.53 464.09 282.74 461.51 C 281.40 457.15 282.32 455.00 285.51 455.00 C 289.40 455.00 293.21 459.28 292.41 462.73 C 291.19 467.96 289.23 470.00 285.43 470.00 C 278.07 470.00 272.40 464.24 273.18 457.55 C 273.54 454.47 273.30 454.62 266.03 462.04 C 261.10 467.07 256.69 470.55 253.25 472.11 C 249.90 473.63 248.00 475.11 248.00 476.19 C 248.00 478.30 252.77 493.59 254.49 497.00 C 255.18 498.38 256.06 500.51 256.44 501.75 L 257.13 504.00 L 236.96 504.00 C 218.13 504.00 216.84 503.88 217.54 502.25ZM 193.56 440.11 C 188.64 430.40 182.22 406.58 180.73 392.50 C 180.42 389.61 180.37 389.65 179.17 393.75 C 178.08 397.46 177.56 398.00 175.08 398.00 C 170.54 398.00 169.54 395.86 171.95 391.35 C 176.94 382.04 171.75 374.55 162.89 378.29 C 151.97 382.90 145.76 398.71 149.36 412.75 C 152.90 426.58 161.11 433.83 178.90 438.84 C 182.96 439.99 188.36 441.97 190.90 443.24 C 193.43 444.51 195.64 445.47 195.82 445.37 C 195.99 445.28 194.97 442.91 193.56 440.11ZM 248.15 436.65 C 270.02 425.98 267.42 393.12 244.16 386.36 C 233.41 383.23 223.58 386.13 216.10 394.62 C 203.88 408.51 208.86 429.74 226.15 437.52 C 230.66 439.55 243.23 439.05 248.15 436.65ZM 227.04 425.79 C 227.07 425.08 227.45 422.61 227.90 420.31 C 228.66 416.39 228.49 415.90 225.36 412.86 C 221.28 408.91 221.17 408.00 224.75 407.99 C 229.97 407.96 231.65 406.90 233.94 402.18 L 236.21 397.52 L 238.20 401.51 C 240.74 406.59 242.58 408.00 246.63 408.00 C 251.23 408.00 251.43 409.19 247.46 413.04 C 245.55 414.89 244.18 417.10 244.41 417.95 C 244.64 418.80 245.12 421.23 245.48 423.35 L 246.13 427.19 L 241.12 424.47 L 236.11 421.74 L 231.56 424.41 C 228.58 426.16 227.02 426.64 227.04 425.79ZM 213.47 383.58 C 215.30 382.71 217.63 381.96 218.65 381.91 C 219.67 381.86 218.93 381.37 217.00 380.83 C 212.77 379.63 209.18 376.52 207.49 372.58 L 206.23 369.65 L 205.54 372.81 C 204.74 376.47 201.24 379.57 196.83 380.54 L 193.76 381.21 L 197.71 382.98 C 201.90 384.86 205.97 389.20 206.05 391.88 C 206.08 392.77 207.01 391.62 208.12 389.33 C 209.42 386.66 211.34 384.59 213.47 383.58Z"/></g>
<g fill="#383234FF">
<path d="M 568.50 187.00 C 550.99 185.65 536.93 182.42 522.00 176.32 C 512.45 172.42 500.14 165.50 495.26 161.29 L 492.02 158.50 L 495.99 143.00 C 498.17 134.47 499.96 126.94 499.98 126.25 C 499.99 125.57 490.55 120.28 479.00 114.50 C 467.45 108.72 458.00 103.63 458.00 103.19 C 458.00 102.74 458.56 101.63 459.25 100.71 C 460.42 99.15 464.05 99.22 513.00 101.67 L 565.50 104.29 L 613.25 125.28 C 658.70 145.27 661.00 146.40 661.00 148.89 L 661.00 151.50 L 637.65 151.20 L 614.30 150.90 L 613.28 156.20 L 612.26 161.50 L 612.08 153.00 L 611.90 144.50 L 589.70 130.80 C 577.49 123.26 567.35 117.52 567.17 118.05 C 566.66 119.48 561.40 119.19 557.36 117.51 C 554.88 116.47 553.96 115.55 554.36 114.51 C 555.10 112.58 554.55 112.60 552.57 114.57 C 549.28 117.87 553.57 121.07 563.57 122.79 C 567.41 123.45 572.86 126.28 586.07 134.47 C 595.66 140.41 604.29 145.95 605.25 146.79 C 606.80 148.14 607.00 150.45 607.00 167.07 L 607.00 185.82 L 598.25 186.45 C 580.49 187.71 578.30 187.75 568.50 187.00Z"/></g>
<g fill="#EC764EFF">
<path d="M 430.32 447.53 L 424.21 440.76 L 416.35 443.38 C 412.03 444.82 408.18 446.00 407.79 446.00 C 406.76 446.00 405.52 439.34 405.17 431.87 L 405.00 428.25 L 396.13 426.52 L 387.25 424.80 L 389.11 417.65 C 390.13 413.72 390.95 409.60 390.93 408.50 C 390.90 407.31 388.47 404.48 384.89 401.50 L 378.90 396.50 L 385.12 390.61 L 391.35 384.73 L 389.53 378.11 C 386.56 367.24 386.56 367.33 389.16 366.69 C 390.45 366.37 393.88 365.80 396.79 365.42 C 402.84 364.63 403.03 364.39 405.44 354.38 L 407.15 347.26 L 414.61 349.63 C 418.72 350.93 422.62 351.97 423.29 351.92 C 423.95 351.88 426.98 348.98 430.00 345.47 L 435.50 339.10 L 438.00 341.81 C 439.38 343.30 441.96 346.30 443.74 348.47 L 446.98 352.43 L 455.18 349.74 C 459.69 348.26 463.55 347.21 463.74 347.41 C 463.93 347.60 464.92 351.25 465.94 355.50 C 466.95 359.76 468.37 363.61 469.08 364.05 C 469.79 364.49 472.90 365.14 476.00 365.50 C 484.48 366.48 484.45 366.42 481.99 376.02 L 479.87 384.35 L 486.01 389.82 L 492.15 395.29 L 485.99 401.51 L 479.82 407.73 L 481.99 415.46 C 483.18 419.70 483.94 423.40 483.67 423.67 C 483.40 423.93 480.04 424.96 476.20 425.95 C 472.37 426.93 468.78 428.02 468.25 428.35 C 467.71 428.68 467.05 432.35 466.78 436.49 C 466.52 440.64 466.05 444.28 465.75 444.59 C 465.44 444.89 461.27 444.36 456.47 443.41 L 447.75 441.68 L 442.09 447.99 L 436.43 454.30 L 430.32 447.53ZM 451.22 429.76 C 463.14 424.30 472.36 411.83 473.62 399.48 C 475.70 379.13 459.80 360.04 439.34 358.33 C 418.07 356.54 399.00 374.05 399.00 395.35 C 399.00 398.81 399.68 403.86 400.51 406.57 C 403.75 417.18 414.33 427.95 425.00 431.49 C 431.99 433.80 444.14 433.00 451.22 429.76Z"/></g>
<g fill="#383234FF">
<path d="M 475.20 463.25 C 474.11 460.09 472.89 456.71 472.50 455.75 C 471.82 454.09 475.97 454.00 551.43 454.00 C 639.29 454.00 636.70 454.18 638.86 447.96 C 640.46 443.39 640.48 219.68 638.89 215.12 C 637.23 210.36 633.63 209.00 622.69 209.00 L 613.27 209.00 L 612.64 204.36 C 612.29 201.81 612.00 198.62 612.00 197.27 L 612.00 194.83 L 628.25 195.20 C 646.20 195.62 648.79 196.31 652.02 201.54 C 653.97 204.68 654.00 207.03 654.00 336.87 L 654.00 469.00 L 565.59 469.00 L 477.18 469.00 L 475.20 463.25Z"/></g>
<g fill="#19767FFF">
<path d="M 91.37 584.23 C 87.64 581.21 87.00 578.54 87.00 566.03 C 87.00 556.31 87.34 553.42 88.70 551.33 C 92.33 545.79 87.45 546.00 213.00 546.00 C 316.69 546.00 329.13 546.16 329.65 547.54 C 329.98 548.39 329.93 549.40 329.54 549.79 C 329.15 550.18 305.66 550.73 277.33 551.00 L 225.83 551.50 L 223.41 554.31 C 221.27 556.80 221.00 558.07 221.00 565.62 C 221.00 574.12 221.92 577.42 224.91 579.72 C 226.11 580.64 238.60 580.94 275.68 580.97 C 305.14 580.99 325.90 581.39 327.43 581.98 C 328.85 582.51 330.00 583.64 330.00 584.48 C 330.00 585.83 317.06 586.00 211.75 585.98 C 101.22 585.96 93.36 585.84 91.37 584.23Z"/></g>
<g fill="#EC764EFF">
<path d="M 580.00 569.00 L 580.00 552.00 L 657.25 552.00 L 734.50 552.00 L 734.17 560.14 C 733.93 566.12 734.19 568.51 735.17 569.13 C 736.19 569.77 736.09 569.97 734.75 569.98 C 733.23 570.00 733.00 571.05 733.00 578.00 L 733.00 586.00 L 656.50 586.00 L 580.00 586.00 L 580.00 569.00Z"/></g>
<g fill="#CE4646FF">
<path d="M 425.00 431.49 C 414.33 427.95 403.75 417.18 400.51 406.57 C 392.92 381.73 413.51 356.16 439.34 358.33 C 459.80 360.04 475.70 379.13 473.62 399.48 C 472.36 411.83 463.14 424.30 451.22 429.76 C 444.14 433.00 431.99 433.80 425.00 431.49ZM 430.78 412.11 L 436.51 409.22 L 442.01 412.06 C 445.03 413.63 447.99 414.93 448.59 414.95 C 449.36 414.99 449.31 413.01 448.40 408.25 L 447.12 401.50 L 452.25 396.27 C 455.07 393.40 457.18 390.86 456.94 390.63 C 456.70 390.40 453.57 389.83 450.00 389.36 L 443.50 388.50 L 440.33 382.53 C 438.58 379.24 436.74 376.41 436.24 376.25 C 435.74 376.08 434.10 378.83 432.60 382.36 L 429.87 388.78 L 423.18 389.49 C 419.51 389.88 416.19 390.39 415.81 390.62 C 415.44 390.85 417.40 393.16 420.17 395.76 C 425.21 400.47 425.22 400.49 424.61 405.49 C 424.27 408.25 423.72 411.51 423.38 412.75 C 422.57 415.73 423.83 415.62 430.78 412.11Z"/></g>
<g fill="#383234FF">
<path d="M 186.00 536.00 L 186.00 526.00 L 190.50 526.00 L 195.00 526.00 L 195.00 515.00 L 195.00 504.00 L 238.00 504.00 L 281.00 504.00 L 281.00 515.00 L 281.00 526.00 L 285.61 526.00 C 289.40 526.00 290.11 526.28 289.61 527.58 C 289.27 528.45 289.00 532.95 289.00 537.58 L 289.00 546.00 L 237.50 546.00 L 186.00 546.00 L 186.00 536.00ZM 258.00 516.50 L 258.00 510.00 L 236.50 510.00 L 215.00 510.00 L 215.00 516.50 L 215.00 523.00 L 236.50 523.00 L 258.00 523.00 L 258.00 516.50Z"/></g>
<g fill="#F6B69BFF">
<path d="M 226.15 437.52 C 208.86 429.74 203.88 408.51 216.10 394.62 C 223.58 386.13 233.41 383.23 244.16 386.36 C 263.45 391.96 269.82 417.10 255.54 431.18 C 253.48 433.21 250.16 435.67 248.15 436.65 C 243.23 439.05 230.66 439.55 226.15 437.52ZM 241.12 424.47 L 246.13 427.19 L 245.48 423.35 C 245.12 421.23 244.64 418.80 244.41 417.95 C 244.18 417.10 245.55 414.89 247.46 413.04 C 251.43 409.19 251.23 408.00 246.63 408.00 C 242.58 408.00 240.74 406.59 238.20 401.51 L 236.21 397.52 L 233.94 402.18 C 231.65 406.90 229.97 407.96 224.75 407.99 C 221.17 408.00 221.28 408.91 225.36 412.86 C 228.49 415.90 228.66 416.39 227.90 420.31 C 226.56 427.21 226.64 427.30 231.56 424.41 L 236.11 421.74 L 241.12 424.47Z"/></g>
<g fill="#383234FF">
<path d="M 55.00 587.00 C 55.00 586.34 139.17 586.00 305.50 586.00 L 556.00 586.00 L 556.00 569.00 L 556.00 552.00 L 568.00 552.00 L 580.00 552.00 L 580.00 569.00 L 580.00 586.00 L 676.00 586.00 C 739.33 586.00 772.00 586.34 772.00 587.00 C 772.00 587.66 651.83 588.00 413.50 588.00 C 175.17 588.00 55.00 587.66 55.00 587.00Z"/></g>
<g fill="#B0AFD1FF">
<path d="M 337.42 238.03 C 330.23 235.12 281.00 183.23 281.00 178.56 C 281.00 177.87 283.14 175.51 285.76 173.30 L 290.52 169.29 L 304.33 189.14 L 318.13 209.00 L 355.57 209.00 L 393.00 209.00 L 393.00 201.83 C 393.00 197.89 393.24 194.91 393.53 195.20 C 393.83 195.49 393.76 203.66 393.38 213.35 L 392.69 230.97 L 364.23 230.93 C 348.58 230.91 335.55 231.12 335.28 231.38 C 335.02 231.65 336.02 233.47 337.52 235.43 C 339.01 237.40 340.07 238.97 339.87 238.94 C 339.67 238.90 338.56 238.49 337.42 238.03Z"/></g>
<g fill="#383234FF">
<path d="M 291.55 466.26 C 294.69 460.23 291.71 454.61 285.69 455.19 C 282.63 455.49 282.50 455.67 282.59 459.80 C 282.67 463.46 282.47 463.90 281.31 462.74 C 280.55 461.98 279.66 459.71 279.34 457.68 L 278.74 454.00 L 338.87 454.00 C 372.73 454.00 399.00 454.38 399.00 454.88 C 399.00 455.36 397.92 458.62 396.60 462.13 L 394.21 468.50 L 342.16 468.76 L 290.11 469.02 L 291.55 466.26Z"/></g>
<g fill="#383234FF">
<path d="M 190.00 234.95 C 190.00 201.71 190.19 200.59 196.27 197.27 C 199.04 195.75 202.80 195.46 222.75 195.18 C 235.54 195.01 246.00 195.25 246.00 195.72 C 246.00 196.19 245.14 199.03 244.08 202.02 C 243.03 205.01 242.38 207.81 242.64 208.23 C 242.90 208.65 236.14 209.00 227.61 209.00 C 217.71 209.00 211.14 209.43 209.47 210.19 C 204.41 212.50 204.00 214.82 204.00 240.95 L 204.00 265.00 L 197.00 265.00 L 190.00 265.00 L 190.00 234.95Z"/></g>
<g fill="#EC764EFF">
<path d="M 323.95 269.92 C 318.80 267.15 311.00 260.09 311.00 258.22 C 311.00 257.75 313.88 255.05 317.40 252.23 C 320.93 249.40 325.76 244.60 328.14 241.55 C 330.52 238.50 332.73 236.00 333.04 236.00 C 333.35 236.00 336.47 238.01 339.96 240.47 C 343.45 242.93 349.05 245.84 352.40 246.94 C 360.02 249.44 370.88 249.32 376.00 246.68 L 379.50 244.88 L 386.23 252.19 C 389.93 256.21 392.86 260.16 392.73 260.96 C 392.60 261.76 390.54 263.78 388.16 265.46 C 384.44 268.07 382.96 268.49 377.66 268.45 C 369.95 268.39 363.61 265.31 355.20 257.53 C 351.92 254.49 349.00 252.00 348.71 252.00 C 348.43 252.00 346.86 254.36 345.23 257.25 C 342.37 262.32 335.36 269.66 331.34 271.82 C 329.80 272.64 328.25 272.24 323.95 269.92Z"/></g>
<g fill="#19767FFF">
<path d="M 700.46 316.23 C 699.89 315.83 693.70 309.55 686.71 302.28 C 673.21 288.24 672.10 286.15 675.56 281.22 C 676.70 279.59 678.12 279.00 680.91 279.00 C 684.40 279.00 685.46 279.77 693.55 288.17 L 702.39 297.33 L 720.50 278.59 C 737.63 260.86 738.80 259.86 741.96 260.17 C 746.19 260.59 749.55 264.68 748.63 268.33 C 747.96 271.00 704.43 317.01 702.59 316.98 C 701.99 316.98 701.03 316.64 700.46 316.23Z"/></g>
<g fill="#B0AFD1FF">
<path d="M 368.01 537.25 C 368.02 536.29 368.30 533.81 368.64 531.75 L 369.26 528.00 L 423.59 528.00 L 477.91 528.00 L 478.54 531.75 C 478.89 533.81 479.39 536.29 479.65 537.25 C 480.11 538.90 476.98 539.00 424.07 539.00 C 371.33 539.00 368.00 538.90 368.01 537.25Z"/></g>
<g fill="#B0AFD1FF">
<path d="M 205.00 222.67 C 205.00 215.02 205.21 214.15 207.58 211.92 C 210.05 209.60 210.88 209.48 227.15 209.00 C 242.51 208.55 244.30 208.67 245.74 210.26 C 246.62 211.24 249.26 213.25 251.62 214.74 C 254.85 216.78 255.98 218.18 256.20 220.37 C 256.58 224.04 259.25 225.95 261.80 224.36 C 263.29 223.43 264.55 223.91 269.04 227.12 L 274.47 231.00 L 239.74 231.00 L 205.00 231.00 L 205.00 222.67Z"/></g>
<g fill="#383234FF">
<path d="M 313.70 201.99 L 308.89 195.00 L 350.95 195.00 L 393.00 195.00 L 393.00 202.00 L 393.00 209.00 L 355.75 208.99 L 318.50 208.99 L 313.70 201.99Z"/></g>
<g fill="#CE4646FF">
<path d="M 416.58 473.57 C 413.40 469.40 410.63 466.00 410.43 466.00 C 410.24 466.00 407.70 466.86 404.79 467.90 C 397.45 470.54 394.00 471.22 394.00 470.04 C 394.00 468.94 398.46 456.64 400.00 453.50 C 400.54 452.40 402.05 448.62 403.35 445.09 L 405.72 438.69 L 406.40 442.34 C 406.78 444.36 407.41 446.00 407.79 446.00 C 408.18 446.00 412.05 444.81 416.40 443.37 L 424.31 440.73 L 428.53 445.60 L 432.76 450.46 L 431.30 455.35 C 430.51 458.03 428.17 464.93 426.12 470.68 L 422.38 481.13 L 416.58 473.57Z"/></g>
<g fill="#CE4646FF">
<path d="M 448.15 478.87 C 447.66 477.57 445.35 471.00 443.01 464.28 L 438.76 452.07 L 442.97 447.03 C 445.29 444.27 447.93 442.02 448.84 442.04 C 449.75 442.05 453.43 442.71 457.00 443.50 C 465.62 445.40 465.99 445.37 466.07 442.75 C 466.12 441.05 466.48 441.41 467.50 444.21 C 468.25 446.25 469.55 449.40 470.39 451.21 C 473.46 457.82 477.77 469.90 477.24 470.42 C 476.55 471.12 472.81 470.27 466.38 467.96 L 461.26 466.12 L 458.78 468.81 C 457.42 470.29 454.67 473.69 452.67 476.37 C 449.14 481.10 449.01 481.17 448.15 478.87Z"/></g>
<g fill="#383234FF">
<path d="M 190.00 331.50 L 190.00 301.00 L 197.00 301.00 L 204.00 301.00 L 204.00 331.50 L 204.00 362.00 L 197.00 362.00 L 190.00 362.00 L 190.00 331.50Z"/></g>
<g fill="#EC764EFF">
<path d="M 155.00 135.06 C 155.00 123.48 155.22 114.00 155.50 114.00 C 156.64 114.00 191.00 134.34 191.00 135.02 C 191.00 135.56 168.31 148.88 155.75 155.71 C 155.34 155.93 155.00 146.64 155.00 135.06Z"/></g>
<g fill="#EC764EFF">
<path d="M 604.03 228.25 C 604.05 227.84 604.71 222.78 605.50 217.00 C 606.47 209.89 606.95 196.92 606.97 176.86 L 607.00 147.22 L 586.78 134.61 C 571.65 125.18 565.74 122.00 563.30 122.00 C 561.51 122.00 558.23 121.28 556.02 120.39 C 552.90 119.14 552.00 118.25 552.00 116.39 C 552.00 114.02 552.02 114.02 553.95 115.95 C 556.73 118.73 563.92 120.53 566.30 119.05 C 567.88 118.06 571.30 119.85 589.82 131.37 L 611.50 144.84 L 612.14 177.67 C 612.49 195.73 613.27 213.43 613.87 217.00 C 614.47 220.57 614.97 224.74 614.98 226.25 C 615.00 228.92 614.84 229.00 609.50 229.00 C 606.48 229.00 604.01 228.66 604.03 228.25Z"/></g>
<g fill="#827E81FF">
<path d="M 54.08 587.25 C 54.13 586.20 54.36 586.00 54.66 586.75 C 55.40 588.59 771.60 588.59 772.34 586.75 C 772.64 586.00 772.87 586.20 772.92 587.25 C 773.00 588.91 755.24 589.00 413.50 589.00 C 71.76 589.00 54.00 588.91 54.08 587.25Z"/></g>
<g fill="#B0AFD1FF">
<path d="M 603.00 220.00 C 603.00 210.50 603.22 209.00 604.63 209.00 C 606.29 209.00 606.21 212.89 604.32 225.25 L 603.74 229.00 L 609.51 229.00 L 615.28 229.00 L 614.61 222.25 C 614.24 218.54 613.67 213.98 613.34 212.13 L 612.73 208.76 L 623.31 209.15 C 632.81 209.51 634.15 209.79 636.44 211.95 C 638.79 214.15 639.00 215.04 639.00 222.67 L 639.00 231.00 L 621.00 231.00 L 603.00 231.00 L 603.00 220.00Z"/></g>
<g fill="#F6B69BFF">
<path d="M 733.00 578.00 C 733.00 571.08 733.24 569.99 734.75 569.92 C 735.80 569.87 736.00 569.64 735.25 569.34 C 733.88 568.78 733.40 553.03 734.75 552.96 C 735.16 552.94 740.33 554.85 746.24 557.21 L 756.99 561.50 L 756.98 569.50 L 756.98 577.50 L 746.24 581.77 C 740.33 584.12 734.94 586.04 734.25 586.02 C 733.36 586.01 733.00 583.72 733.00 578.00Z"/></g>
<g fill="#CE4646FF">
<path d="M 529.00 562.20 C 529.00 557.47 529.47 553.93 530.20 553.20 C 531.00 552.40 535.47 552.00 543.70 552.00 L 556.00 552.00 L 556.00 561.00 L 556.00 570.00 L 542.50 570.00 L 529.00 570.00 L 529.00 562.20Z"/></g>
<g fill="#EC764EFF">
<path d="M 529.67 585.25 C 529.42 584.84 529.01 577.98 528.76 570.00 C 528.51 562.02 528.48 558.76 528.69 562.75 L 529.08 570.00 L 542.54 570.00 L 556.00 570.00 L 556.00 578.00 L 556.00 586.00 L 543.06 586.00 C 535.94 586.00 529.91 585.66 529.67 585.25Z"/></g>
<g fill="#827E81FF">
<path d="M 565.75 469.25 L 653.99 468.99 L 654.25 338.24 L 654.51 207.50 L 654.51 338.50 L 654.50 469.50 L 566.00 469.51 L 477.50 469.52 L 565.75 469.25Z"/></g>
<g fill="#B0AFD1FF">
<path d="M 387.57 325.69 L 382.64 319.76 L 383.90 299.64 C 384.59 288.57 385.23 279.44 385.33 279.35 C 385.42 279.26 387.20 280.61 389.27 282.36 L 393.04 285.53 L 392.77 308.57 L 392.50 331.61 L 387.57 325.69Z"/></g>
<g fill="#000000FF">
<path d="M 545.00 217.00 L 545.00 206.77 L 552.01 207.17 C 557.87 207.50 559.44 207.98 561.54 210.09 C 562.93 211.47 564.32 214.21 564.64 216.17 C 565.12 219.15 564.74 220.26 562.23 223.07 C 559.46 226.17 558.70 226.45 552.12 226.82 L 545.00 227.23 L 545.00 217.00ZM 560.28 220.84 C 562.44 217.94 562.13 214.28 559.52 211.66 C 557.86 210.00 550.63 208.49 549.04 209.48 C 548.47 209.83 548.00 213.26 548.00 217.11 L 548.00 224.10 L 553.15 223.80 C 557.37 223.55 558.65 223.02 560.28 220.84Z"/></g>
<g fill="#CE4646FF">
<path d="M 351.42 246.63 C 346.35 244.75 339.00 240.59 339.00 239.60 C 339.00 239.45 341.36 239.51 344.25 239.72 C 350.46 240.18 355.58 237.59 357.26 233.12 L 358.31 230.33 L 365.41 233.13 C 369.77 234.84 372.37 236.42 372.17 237.21 C 371.45 240.03 366.67 245.13 362.98 247.01 C 358.29 249.40 358.92 249.42 351.42 246.63Z"/></g>
<g fill="#827E81FF">
<path d="M 639.48 331.50 C 639.48 268.25 639.60 242.52 639.75 274.33 C 639.90 306.13 639.90 357.88 639.75 389.33 C 639.60 420.77 639.48 394.75 639.48 331.50Z"/></g>
<g fill="#000000FF">
<path d="M 428.00 217.00 L 428.00 207.00 L 433.05 207.00 C 441.77 207.00 446.14 210.86 443.95 216.63 C 442.90 219.39 439.40 221.00 434.43 221.00 C 431.29 221.00 431.00 221.25 431.00 224.00 C 431.00 226.00 430.50 227.00 429.50 227.00 C 428.27 227.00 428.00 225.22 428.00 217.00Z"/></g>
<g fill="#EC764EFF">
<path d="M 296.00 570.00 L 296.00 563.00 L 305.00 563.00 L 314.00 563.00 L 314.00 570.06 C 314.00 577.70 314.14 577.62 308.40 573.32 L 305.31 571.00 L 301.16 574.00 C 298.88 575.65 296.79 577.00 296.51 577.00 C 296.23 577.00 296.00 573.85 296.00 570.00Z"/></g>
<g fill="#383234FF">
<path d="M 427.58 466.75 C 431.49 454.41 431.42 454.52 435.63 454.20 L 439.58 453.91 L 441.79 460.77 C 443.00 464.55 444.00 467.95 444.00 468.32 C 444.00 468.69 440.14 469.00 435.43 469.00 C 427.00 469.00 426.88 468.96 427.58 466.75Z"/></g>
<g fill="#000000FF">
<path d="M 446.00 226.41 C 446.00 226.09 447.89 221.59 450.19 216.41 C 453.00 210.11 454.92 207.00 456.01 207.00 C 457.10 207.00 459.04 210.09 461.83 216.25 C 464.13 221.34 466.01 225.84 466.01 226.25 C 465.99 227.98 463.87 226.81 462.82 224.50 C 461.80 222.26 461.09 222.00 455.95 222.00 C 450.67 222.00 450.17 222.20 449.59 224.50 C 449.06 226.60 446.00 228.23 446.00 226.41Z"/></g>
<g fill="#827E81FF">
<path d="M 511.75 453.25 C 533.89 453.10 570.11 453.10 592.25 453.25 C 614.39 453.40 596.27 453.52 552.00 453.52 C 507.73 453.52 489.61 453.40 511.75 453.25Z"/></g>
<g fill="#000000FF">
<path d="M 526.00 217.00 L 526.00 207.00 L 533.00 207.00 C 541.12 207.00 542.52 208.75 534.75 209.20 C 529.63 209.49 529.49 209.58 529.19 212.75 L 528.87 216.00 L 533.94 216.00 C 536.72 216.00 539.00 216.45 539.00 217.00 C 539.00 217.55 536.75 218.00 534.00 218.00 C 529.11 218.00 529.00 218.07 529.00 221.00 C 529.00 223.97 529.06 224.00 534.50 224.00 C 538.72 224.00 540.00 224.35 540.00 225.50 C 540.00 226.69 538.56 227.00 533.00 227.00 L 526.00 227.00 L 526.00 217.00Z"/></g>
</svg>
