<?xml version="1.0" encoding="utf-8"?>
<!DOCTYPE svg PUBLIC "-//W3C//DTD SVG 20010904//EN" "http://www.w3.org/TR/2001/REC-SVG-20010904/DTD/svg10.dtd">
<svg version="1.0" xmlns="http://www.w3.org/2000/svg" width="829pt" height="623pt" viewBox="0 0 829 623" preserveAspectRatio="xMidYMid meet">
<g fill="#EA844FFF">
<path d="M 334.00 439.39 C 334.00 433.81 334.39 432.33 336.49 429.83 C 344.07 420.83 343.67 403.34 335.32 377.50 C 333.90 373.10 332.49 369.09 332.20 368.58 C 331.38 367.16 325.22 386.78 323.30 396.91 L 321.58 406.00 L 315.79 406.00 L 310.00 406.00 L 310.00 383.00 L 310.00 360.00 L 294.50 360.00 L 279.00 360.00 L 279.00 383.00 L 279.00 406.00 L 273.52 406.00 C 268.43 406.00 267.99 405.81 267.37 403.35 L 266.71 400.71 L 265.32 403.35 C 263.98 405.92 263.65 406.00 254.97 406.00 L 246.00 406.00 L 246.00 383.00 L 246.00 360.00 L 230.50 360.00 L 215.00 360.00 L 215.00 383.00 L 215.00 406.00 L 198.50 406.00 L 182.00 406.00 L 182.00 383.00 L 182.00 360.00 L 166.52 360.00 L 151.04 360.00 L 150.77 382.75 L 150.50 405.50 L 136.75 405.78 L 123.00 406.06 L 123.00 366.53 L 123.00 327.00 L 227.00 327.00 L 331.00 327.00 L 331.00 320.00 L 331.00 313.00 L 268.00 313.00 L 205.00 313.00 L 205.00 296.00 L 205.00 279.00 L 268.00 279.00 L 331.00 279.00 L 331.00 272.12 C 331.00 266.07 331.24 265.17 333.00 264.71 C 334.92 264.21 335.00 263.35 335.00 244.09 L 335.00 224.00 L 348.50 224.00 L 362.00 224.00 L 362.00 216.61 L 362.00 209.22 L 387.57 186.86 C 401.64 174.56 413.54 164.36 414.01 164.19 C 414.49 164.02 427.05 174.52 441.94 187.54 L 469.00 211.20 L 469.00 217.60 L 469.00 224.00 L 482.50 224.00 L 496.00 224.00 L 496.00 244.50 C 496.00 261.77 496.23 265.00 497.45 265.00 C 498.55 265.00 498.98 266.65 499.20 271.75 L 499.50 278.50 L 562.25 278.76 L 625.00 279.02 L 625.00 296.00 L 625.00 312.98 L 562.25 313.24 L 499.50 313.50 L 499.20 320.25 L 498.91 327.00 L 603.47 327.00 L 708.02 327.00 L 707.76 366.25 L 707.50 405.50 L 693.75 405.78 L 680.00 406.06 L 680.00 383.03 L 680.00 360.00 L 664.50 360.00 L 649.00 360.00 L 649.00 383.00 L 649.00 406.00 L 632.50 406.00 L 616.00 406.00 L 616.00 383.00 L 616.00 360.00 L 600.52 360.00 L 585.04 360.00 L 584.77 382.75 L 584.50 405.50 L 568.00 405.50 L 551.50 405.50 L 551.23 382.75 L 550.96 360.00 L 535.48 360.00 L 520.00 360.00 L 520.00 383.00 L 520.00 406.00 L 509.43 406.00 L 498.87 406.00 L 499.18 408.75 L 499.50 411.50 L 510.25 411.78 L 521.00 412.07 L 521.00 424.53 L 521.00 437.00 L 536.00 437.00 L 551.00 437.00 L 551.00 424.50 L 551.00 412.00 L 568.00 412.00 L 585.00 412.00 L 585.00 424.50 L 585.00 437.00 L 600.50 437.00 L 616.00 437.00 L 616.00 424.50 L 616.00 412.00 L 622.04 412.00 C 627.73 412.00 628.01 412.11 627.02 413.97 C 625.51 416.79 619.00 440.90 619.00 443.67 L 619.00 446.00 L 551.00 446.00 L 483.00 446.00 L 483.00 441.62 C 483.00 439.13 483.59 436.75 484.38 436.10 C 486.87 434.03 488.32 426.34 487.67 418.70 C 487.09 412.00 483.01 395.68 481.54 394.21 C 479.27 391.93 474.50 411.21 474.50 422.67 C 474.50 430.61 474.80 432.24 476.75 434.88 C 478.21 436.85 479.00 439.34 479.00 441.96 L 479.00 446.00 L 461.00 446.00 L 443.00 446.00 L 443.00 420.50 L 443.00 395.00 L 415.00 395.00 L 387.00 395.00 L 387.00 420.50 L 387.00 446.00 L 360.50 446.00 L 334.00 446.00 L 334.00 439.39ZM 406.00 323.00 L 406.00 302.00 L 390.50 302.00 L 375.00 302.00 L 375.00 323.00 L 375.00 344.00 L 390.50 344.00 L 406.00 344.00 L 406.00 323.00ZM 455.00 323.00 L 455.00 302.00 L 439.50 302.00 L 424.00 302.00 L 424.00 323.00 L 424.00 344.00 L 439.50 344.00 L 455.00 344.00 L 455.00 323.00ZM 247.00 296.50 L 247.00 281.00 L 235.50 281.00 L 224.00 281.00 L 224.00 296.50 L 224.00 312.00 L 235.50 312.00 L 247.00 312.00 L 247.00 296.50ZM 306.00 296.50 L 306.00 281.00 L 294.50 281.00 L 283.00 281.00 L 283.00 296.50 L 283.00 312.00 L 294.50 312.00 L 306.00 312.00 L 306.00 296.50ZM 548.00 296.50 L 548.00 281.00 L 536.50 281.00 L 525.00 281.00 L 525.00 296.50 L 525.00 312.00 L 536.50 312.00 L 548.00 312.00 L 548.00 296.50ZM 607.00 296.50 L 607.00 281.00 L 595.50 281.00 L 584.00 281.00 L 584.00 296.50 L 584.00 312.00 L 595.50 312.00 L 607.00 312.00 L 607.00 296.50ZM 425.43 271.62 C 430.61 267.67 432.30 263.80 431.81 257.02 C 431.32 250.23 428.54 245.83 422.96 242.98 C 413.23 238.01 402.15 243.10 398.87 254.05 C 396.76 261.07 401.33 270.42 408.45 273.65 C 413.23 275.82 421.17 274.87 425.43 271.62Z"/></g>
<g fill="#5CC1ACFF">
<path d="M 504.15 506.99 L 482.81 486.08 L 504.72 485.79 L 526.62 485.50 L 526.19 490.77 C 525.71 496.52 527.45 504.30 529.62 506.10 C 530.51 506.84 531.00 509.35 531.00 513.12 C 531.00 517.68 531.34 519.00 532.50 519.00 C 533.66 519.00 534.00 517.71 534.00 513.37 C 534.00 509.29 534.61 506.74 536.23 504.14 C 538.01 501.24 538.44 499.11 538.39 493.27 L 538.32 486.00 L 583.16 486.00 L 628.00 486.00 L 628.00 495.00 C 628.00 502.33 628.28 504.00 629.50 504.00 C 630.72 504.00 631.00 502.34 631.00 495.06 C 631.00 490.14 630.55 485.84 630.00 485.50 C 629.36 485.10 629.03 470.99 629.08 446.19 L 629.15 407.50 L 632.50 417.24 C 634.34 422.60 636.84 431.26 638.05 436.49 L 640.25 446.00 L 689.62 446.00 L 739.00 446.00 L 739.00 451.00 L 739.00 456.00 L 690.14 456.00 L 641.28 456.00 L 640.65 461.75 C 640.31 464.91 639.78 468.77 639.48 470.32 C 638.87 473.49 635.12 479.83 632.64 481.89 C 631.74 482.63 631.00 483.86 631.00 484.62 C 631.00 485.78 639.72 486.00 684.47 486.00 L 737.95 486.00 L 737.22 489.25 C 736.43 492.81 736.53 497.93 737.54 505.25 C 738.38 511.28 740.56 511.56 741.43 505.75 C 743.02 495.11 743.12 493.08 742.17 489.65 L 741.16 486.00 L 756.83 486.03 L 772.50 486.07 L 794.00 506.99 L 815.50 527.91 L 670.50 527.91 L 525.50 527.90 L 504.15 506.99Z"/></g>
<g fill="#5CC1ACFF">
<path d="M 17.02 524.58 C 18.93 522.70 28.81 513.25 38.97 503.58 L 57.43 486.00 L 64.63 486.00 C 69.50 486.00 71.97 485.60 72.25 484.75 C 72.48 484.06 72.70 485.07 72.74 487.00 C 72.98 498.82 76.08 505.70 77.36 497.25 C 77.67 495.19 78.21 491.82 78.57 489.77 L 79.21 486.04 L 118.93 485.77 L 158.64 485.50 L 157.72 490.50 C 156.34 498.07 157.24 506.48 159.81 509.96 C 161.44 512.17 162.00 514.33 162.00 518.46 C 162.00 522.72 162.35 524.00 163.50 524.00 C 164.65 524.00 165.00 522.73 165.00 518.56 C 165.00 514.73 165.66 512.00 167.23 509.34 C 168.98 506.36 169.44 504.09 169.39 498.50 C 169.35 494.62 169.02 490.21 168.64 488.72 L 167.96 486.00 L 216.48 486.00 L 265.00 486.00 L 265.00 495.00 C 265.00 500.33 265.41 504.00 266.00 504.00 C 266.59 504.00 267.00 500.25 267.00 494.75 L 267.00 485.50 L 307.00 485.77 L 347.00 486.04 L 346.81 492.27 L 346.62 498.50 L 346.26 492.71 L 345.90 486.91 L 324.80 507.46 L 303.71 528.00 L 158.62 528.00 L 13.53 528.00 L 17.02 524.58Z"/></g>
<g fill="#5CC1ACFF">
<path d="M 266.07 442.25 C 266.14 404.67 266.26 401.81 267.66 405.50 C 270.68 413.45 275.77 431.66 276.96 438.75 L 278.18 446.00 L 448.71 446.00 L 619.23 446.00 L 618.63 448.25 C 618.30 449.49 618.02 451.74 618.01 453.25 L 618.00 456.00 L 448.00 456.00 L 278.00 456.00 L 277.99 459.75 C 277.98 464.08 275.64 472.37 273.53 475.60 C 271.62 478.51 267.44 483.00 266.64 483.00 C 266.29 483.00 266.03 464.66 266.07 442.25Z"/></g>
<g fill="#1A7B83FF">
<path d="M 503.36 518.64 L 483.00 497.77 L 483.00 492.28 L 483.00 486.78 L 492.75 495.82 C 498.11 500.79 507.67 510.07 513.98 516.43 L 525.47 528.00 L 670.73 528.00 L 816.00 528.00 L 816.00 533.75 L 816.00 539.50 L 669.86 539.50 L 523.71 539.50 L 503.36 518.64Z"/></g>
<g fill="#1A7B83FF">
<path d="M 13.00 533.75 L 13.00 528.00 L 158.36 528.00 L 303.71 528.00 L 324.86 507.41 L 346.00 486.81 L 346.00 492.67 L 346.00 498.52 L 325.74 518.76 L 305.48 539.00 L 159.24 539.25 L 13.00 539.50 L 13.00 533.75Z"/></g>
<g fill="#EA844FFF">
<path d="M 119.00 429.00 L 119.00 412.00 L 135.00 412.00 L 151.00 412.00 L 151.00 424.50 L 151.00 437.00 L 166.50 437.00 L 182.00 437.00 L 182.00 424.50 L 182.00 412.00 L 198.50 412.00 L 215.00 412.00 L 215.00 424.50 L 215.00 437.00 L 230.50 437.00 L 246.00 437.00 L 246.00 424.50 L 246.00 412.00 L 253.83 412.00 L 261.66 412.00 L 258.45 423.75 C 256.69 430.21 254.92 437.86 254.53 440.75 L 253.81 446.00 L 186.41 446.00 L 119.00 446.00 L 119.00 429.00Z"/></g>
<g fill="#EA844FFF">
<path d="M 639.20 439.39 C 638.51 435.76 636.43 428.11 634.58 422.39 L 631.21 412.00 L 640.10 412.00 L 649.00 412.00 L 649.00 424.50 L 649.00 437.00 L 664.50 437.00 L 680.00 437.00 L 680.00 424.50 L 680.00 412.00 L 696.00 412.00 L 712.00 412.00 L 712.00 429.00 L 712.00 446.00 L 676.23 446.00 L 640.46 446.00 L 639.20 439.39Z"/></g>
<g fill="#5CC1ACFF">
<path d="M 91.00 451.00 L 91.00 446.00 L 94.46 446.00 L 97.92 446.00 L 98.26 437.25 L 98.59 428.50 L 98.79 437.25 L 99.00 446.00 L 176.50 446.00 L 254.00 446.00 L 254.00 451.00 L 254.00 456.00 L 172.50 456.00 L 91.00 456.00 L 91.00 451.00Z"/></g>
<g fill="#EA844FFF">
<path d="M 278.00 443.04 C 278.00 441.42 276.43 433.94 274.50 426.43 C 272.57 418.92 271.00 412.60 271.00 412.39 C 271.00 412.17 272.80 412.00 275.00 412.00 L 279.00 412.00 L 279.00 424.50 L 279.00 437.00 L 294.50 437.00 L 310.00 437.00 L 310.00 424.50 L 310.00 412.00 L 316.00 412.00 L 322.00 412.00 L 322.00 415.37 C 322.00 419.83 324.44 426.58 327.52 430.61 C 329.53 433.25 330.00 435.02 330.00 439.93 L 330.00 446.00 L 304.00 446.00 L 278.00 446.00 L 278.00 443.04Z"/></g>
<g fill="#5CC1ACFF">
<path d="M 729.77 390.46 C 729.62 368.71 729.76 350.19 730.07 349.29 C 730.73 347.41 736.85 365.17 740.16 378.60 C 743.19 390.87 743.36 409.18 740.52 416.84 C 738.61 422.00 732.79 430.00 730.94 430.00 C 730.43 430.00 729.93 413.01 729.77 390.46Z"/></g>
<g fill="#1A7B83FF">
<path d="M 265.00 493.15 C 265.00 483.40 264.79 482.12 262.90 480.41 C 256.50 474.62 253.31 462.50 254.34 447.96 C 255.01 438.60 259.32 420.44 263.35 410.00 L 265.86 403.50 L 265.93 438.00 C 265.97 456.98 266.30 479.59 266.66 488.25 C 267.14 499.88 267.01 504.00 266.16 504.00 C 265.35 504.00 265.00 500.70 265.00 493.15Z"/></g>
<g fill="#1A7B83FF">
<path d="M 99.00 437.91 C 99.00 430.10 98.88 429.68 95.48 425.70 C 88.07 417.05 86.16 401.86 90.06 382.70 C 92.42 371.11 99.29 349.51 99.66 352.50 C 100.36 358.18 100.50 446.00 99.81 446.00 C 99.36 446.00 99.00 442.36 99.00 437.91Z"/></g>
<g fill="#5CC1ACFF">
<path d="M 99.77 390.17 C 99.62 368.08 99.82 350.00 100.20 350.00 C 101.00 350.00 105.69 364.24 109.10 377.00 C 110.93 383.84 111.39 388.24 111.44 399.50 C 111.49 412.08 111.26 414.02 109.18 418.62 C 107.91 421.43 105.33 425.22 103.46 427.04 L 100.05 430.35 L 99.77 390.17Z"/></g>
<g fill="#1A7B83FF">
<path d="M 729.00 437.17 C 729.00 429.13 728.79 428.15 726.58 426.08 C 721.87 421.65 719.64 414.52 719.20 402.43 C 718.73 389.46 720.26 380.56 726.00 363.07 L 729.80 351.50 L 729.90 390.75 C 729.96 416.18 730.35 430.00 731.00 430.00 C 731.58 430.00 732.00 433.33 732.00 438.00 C 732.00 444.44 731.71 446.00 730.50 446.00 C 729.28 446.00 729.00 444.35 729.00 437.17Z"/></g>
<g fill="#1A7B83FF">
<path d="M 628.00 493.56 C 628.00 487.77 627.56 482.85 627.01 482.51 C 625.08 481.31 620.08 473.22 619.52 470.38 C 619.21 468.80 618.69 463.90 618.38 459.50 C 617.69 450.06 620.16 436.51 625.46 420.57 L 628.81 410.50 L 628.90 447.69 C 628.97 471.30 629.37 485.11 630.00 485.50 C 630.55 485.84 631.00 490.14 631.00 495.06 C 631.00 502.34 630.72 504.00 629.50 504.00 C 628.26 504.00 628.00 502.17 628.00 493.56Z"/></g>
<g fill="#1A7B83FF">
<path d="M 331.00 440.01 C 331.00 434.73 330.59 433.49 327.58 429.53 C 323.24 423.85 321.53 416.14 322.38 406.07 C 323.03 398.29 326.86 382.42 330.04 374.28 L 331.91 369.50 L 331.95 398.60 C 331.98 414.60 332.29 431.81 332.65 436.85 C 333.12 443.45 332.98 446.00 332.15 446.00 C 331.41 446.00 331.00 443.86 331.00 440.01Z"/></g>
<g fill="#5CC1ACFF">
<path d="M 332.11 402.00 L 332.15 369.50 L 334.12 375.00 C 338.51 387.22 341.15 399.51 341.32 408.50 C 341.54 419.45 339.88 425.67 335.42 430.73 L 332.08 434.50 L 332.11 402.00Z"/></g>
<g fill="#1A7B83FF">
<path d="M 162.00 518.46 C 162.00 514.28 161.45 512.17 159.75 509.87 C 156.31 505.21 156.64 491.63 160.48 479.60 L 163.33 470.71 L 166.20 480.10 C 170.07 492.75 170.47 503.85 167.25 509.31 C 165.66 512.00 165.00 514.71 165.00 518.56 C 165.00 522.73 164.65 524.00 163.50 524.00 C 162.35 524.00 162.00 522.72 162.00 518.46Z"/></g>
<g fill="#1A7B83FF">
<path d="M 531.00 513.33 C 531.00 509.99 530.44 507.01 529.64 506.08 C 527.53 503.63 526.00 498.15 526.01 493.10 C 526.01 488.17 529.08 474.10 531.13 469.60 L 532.38 466.87 L 534.19 471.49 C 536.79 478.09 539.18 492.79 538.43 497.50 C 538.08 499.70 536.94 502.90 535.89 504.62 C 534.63 506.70 534.00 509.60 534.00 513.37 C 534.00 517.71 533.66 519.00 532.50 519.00 C 531.34 519.00 531.00 517.70 531.00 513.33Z"/></g>
<g fill="#5CC1ACFF">
<path d="M 596.67 539.25 C 636.37 539.11 701.62 539.11 741.67 539.25 C 781.73 539.39 749.25 539.51 669.50 539.51 C 589.75 539.51 556.98 539.39 596.67 539.25Z"/></g>
<g fill="#5CC1ACFF">
<path d="M 87.75 539.25 C 127.49 539.11 192.51 539.11 232.25 539.25 C 271.99 539.39 239.47 539.51 160.00 539.51 C 80.53 539.51 48.01 539.39 87.75 539.25Z"/></g>
<g fill="#1A7B83FF">
<path d="M 480.00 442.40 C 480.00 440.43 479.12 437.57 478.04 436.05 C 473.36 429.48 473.47 416.87 478.35 402.00 L 480.80 394.50 L 480.91 415.00 C 480.97 426.27 481.30 437.86 481.65 440.75 C 482.08 444.38 481.93 446.00 481.14 446.00 C 480.50 446.00 480.00 444.43 480.00 442.40Z"/></g>
<g fill="#5CC1ACFF">
<path d="M 481.11 417.00 L 481.15 394.50 L 483.54 401.34 C 488.82 416.47 488.80 430.04 483.48 436.55 L 481.07 439.50 L 481.11 417.00Z"/></g>
<g fill="#4D5059FF">
<path d="M 653.00 423.00 L 653.00 413.00 L 658.00 413.00 L 663.00 413.00 L 663.00 423.00 L 663.00 433.00 L 658.00 433.00 L 653.00 433.00 L 653.00 423.00Z"/></g>
<g fill="#4D5059FF">
<path d="M 588.00 423.00 L 588.00 413.00 L 593.00 413.00 L 598.00 413.00 L 598.00 423.00 L 598.00 433.00 L 593.00 433.00 L 588.00 433.00 L 588.00 423.00Z"/></g>
<g fill="#4D5059FF">
<path d="M 524.00 423.00 L 524.00 413.00 L 529.00 413.00 L 534.00 413.00 L 534.00 423.00 L 534.00 433.00 L 529.00 433.00 L 524.00 433.00 L 524.00 423.00Z"/></g>
<g fill="#4D5059FF">
<path d="M 296.00 423.00 L 296.00 413.00 L 301.00 413.00 L 306.00 413.00 L 306.00 423.00 L 306.00 433.00 L 301.00 433.00 L 296.00 433.00 L 296.00 423.00Z"/></g>
<g fill="#4D5059FF">
<path d="M 232.00 423.00 L 232.00 413.00 L 237.00 413.00 L 242.00 413.00 L 242.00 423.00 L 242.00 433.00 L 237.00 433.00 L 232.00 433.00 L 232.00 423.00Z"/></g>
<g fill="#4D5059FF">
<path d="M 168.00 423.00 L 168.00 413.00 L 173.00 413.00 L 178.00 413.00 L 178.00 423.00 L 178.00 433.00 L 173.00 433.00 L 168.00 433.00 L 168.00 423.00Z"/></g>
<g fill="#4D5059FF">
<path d="M 219.00 425.22 C 219.00 415.72 220.46 413.00 225.56 413.00 L 229.00 413.00 L 229.00 423.00 L 229.00 433.00 L 224.00 433.00 L 219.00 433.00 L 219.00 425.22Z"/></g>
<g fill="#4D5059FF">
<path d="M 538.00 376.50 L 538.00 367.00 L 543.00 367.00 L 548.00 367.00 L 548.00 376.50 L 548.00 386.00 L 543.00 386.00 L 538.00 386.00 L 538.00 376.50Z"/></g>
<g fill="#4D5059FF">
<path d="M 666.00 423.00 L 666.00 413.00 L 668.83 413.00 C 670.49 413.00 672.55 413.95 673.83 415.31 C 675.67 417.28 676.00 418.80 676.00 425.31 L 676.00 433.00 L 671.00 433.00 L 666.00 433.00 L 666.00 423.00Z"/></g>
<g fill="#4D5059FF">
<path d="M 602.00 423.00 L 602.00 413.00 L 604.83 413.00 C 606.49 413.00 608.55 413.95 609.83 415.31 C 611.67 417.28 612.00 418.80 612.00 425.31 L 612.00 433.00 L 607.00 433.00 L 602.00 433.00 L 602.00 423.00Z"/></g>
<g fill="#4D5059FF">
<path d="M 538.00 423.00 L 538.00 413.00 L 540.83 413.00 C 542.49 413.00 544.55 413.95 545.83 415.31 C 547.67 417.28 548.00 418.80 548.00 425.31 L 548.00 433.00 L 543.00 433.00 L 538.00 433.00 L 538.00 423.00Z"/></g>
<g fill="#4D5059FF">
<path d="M 283.00 425.17 C 283.00 418.29 283.28 417.09 285.31 415.17 C 286.59 413.98 288.84 413.00 290.31 413.00 L 293.00 413.00 L 293.00 423.00 L 293.00 433.00 L 288.00 433.00 L 283.00 433.00 L 283.00 425.17Z"/></g>
<g fill="#4D5059FF">
<path d="M 154.00 425.63 C 154.00 416.87 156.16 413.00 161.07 413.00 L 164.00 413.00 L 164.00 423.00 L 164.00 433.00 L 159.00 433.00 L 154.00 433.00 L 154.00 425.63Z"/></g>
<g fill="#4D5059FF">
<path d="M 154.00 376.55 L 154.00 367.00 L 159.05 367.00 L 164.10 367.00 L 163.93 376.33 L 163.75 385.65 L 158.88 385.88 L 154.00 386.10 L 154.00 376.55Z"/></g>
<g fill="#4D5059FF">
<path d="M 667.65 384.17 C 666.42 382.80 666.00 380.41 666.00 374.67 L 666.00 367.00 L 671.00 367.00 L 676.00 367.00 L 676.00 376.50 L 676.00 386.00 L 672.65 386.00 C 670.68 386.00 668.63 385.25 667.65 384.17Z"/></g>
<g fill="#4D5059FF">
<path d="M 603.65 384.17 C 602.42 382.80 602.00 380.41 602.00 374.67 L 602.00 367.00 L 607.00 367.00 L 612.00 367.00 L 612.00 376.50 L 612.00 386.00 L 608.65 386.00 C 606.68 386.00 604.63 385.25 603.65 384.17Z"/></g>
<g fill="#4D5059FF">
<path d="M 283.00 376.50 L 283.00 367.00 L 288.00 367.00 L 293.00 367.00 L 293.00 374.85 C 293.00 383.78 291.64 386.00 286.17 386.00 L 283.00 386.00 L 283.00 376.50Z"/></g>
<g fill="#4D5059FF">
<path d="M 219.00 376.50 L 219.00 367.00 L 224.00 367.00 L 229.00 367.00 L 229.00 374.85 C 229.00 383.78 227.64 386.00 222.17 386.00 L 219.00 386.00 L 219.00 376.50Z"/></g>
<g fill="#E4AB96FF">
<path d="M 625.22 296.26 L 625.00 279.02 L 562.25 278.76 L 499.50 278.50 L 499.21 271.81 C 498.97 266.51 498.56 265.04 497.21 264.68 C 495.98 264.36 496.13 264.20 497.75 264.12 C 499.88 264.01 500.00 264.37 500.00 271.00 L 500.00 278.00 L 562.53 278.00 C 612.63 278.00 625.16 278.26 625.56 279.29 C 625.83 280.00 625.92 287.98 625.75 297.04 L 625.45 313.50 L 625.22 296.26Z"/></g>
<g fill="#4D5059FF">
<path d="M 428.00 316.00 L 428.00 309.00 L 433.00 309.00 L 438.00 309.00 L 438.00 312.69 C 438.00 315.08 437.21 317.26 435.75 318.93 L 433.50 321.49 L 435.75 319.59 C 437.99 317.69 438.00 317.70 438.00 320.35 C 438.00 322.86 437.74 323.00 433.00 323.00 L 428.00 323.00 L 428.00 316.00Z"/></g>
<g fill="#4D5059FF">
<path d="M 379.00 316.00 L 379.00 309.00 L 384.05 309.00 L 389.09 309.00 L 388.80 315.75 C 388.50 322.43 388.47 322.50 385.50 322.83 L 382.50 323.16 L 385.50 319.83 L 388.50 316.50 L 384.95 319.75 C 379.72 324.55 379.00 324.09 379.00 316.00Z"/></g>
</svg>
