<?xml version="1.0" encoding="UTF-8"?>
<svg version="1.1" xmlns="http://www.w3.org/2000/svg" width="827" height="621">
<path d="M0 0 C272.91 0 545.82 0 827 0 C827 204.93 827 409.86 827 621 C554.09 621 281.18 621 0 621 C0 416.07 0 211.14 0 0 Z " fill="#FEFEFE" transform="translate(0,0)"/>
<path d="M0 0 C0.84629011 3.99737031 1.67466787 7.99825449 2.5 12 C2.73847656 13.12535156 2.97695313 14.25070313 3.22265625 15.41015625 C3.44824219 16.51230469 3.67382812 17.61445313 3.90625 18.75 C4.11572266 19.75546875 4.32519531 20.7609375 4.54101562 21.796875 C5 25 5 25 5 33 C-2.92 35.31 -10.84 37.62 -19 40 C-19.18178531 49.37877544 -18.65344992 58.44070829 -17.56567383 67.73803711 C-17.31336989 69.92994278 -17.08700614 72.1235733 -16.86132812 74.31835938 C-15.46662498 86.94668996 -11.85442254 98.13724513 -5.9375 109.4375 C-5.61201172 110.07880859 -5.28652344 110.72011719 -4.95117188 111.38085938 C-3.30497515 114.59827753 -1.57364233 117.73337303 0.2734375 120.83984375 C2 124 2 124 1.5625 126.125 C0 128 0 128 -2.56884766 130.17626953 C-5.65533881 133.76116175 -5.59616717 135.37407298 -5.4609375 140.0546875 C-5.44259857 140.77977509 -5.42425964 141.50486267 -5.40536499 142.25192261 C-5.0371661 152.95732922 -3.95997908 163.64299068 -2.97692871 174.3052063 C-2.38265086 180.75542962 -1.81223884 187.20775338 -1.2421875 193.66015625 C-1.13096558 194.91475143 -1.01974365 196.16934662 -0.90515137 197.46195984 C0.14533493 209.42508972 0.95383961 221.38990453 1.640625 233.37890625 C1.84126709 236.83046536 2.11584311 240.24705234 2.52734375 243.6796875 C3.07374456 248.30941183 3.25581497 252.90299075 3.3125 257.5625 C3.34150391 258.36107422 3.37050781 259.15964844 3.40039062 259.98242188 C3.46204102 265.80127049 2.35129564 270.18255743 -1 275 C-3.0703125 276.83984375 -3.0703125 276.83984375 -5.125 277.9375 C-5.80820312 278.31777344 -6.49140625 278.69804687 -7.1953125 279.08984375 C-14.10210342 282.57313874 -21.93486069 280.91981143 -29.41015625 279.90625 C-30.26306747 279.79526978 -31.1159787 279.68428955 -31.99473572 279.56994629 C-34.6847301 279.21868223 -37.37359336 278.85948595 -40.0625 278.5 C-41.90032133 278.25858646 -43.73821147 278.01769619 -45.57617188 277.77734375 C-50.05159882 277.19093639 -54.52603025 276.59741907 -59 276 C-59.15001465 276.7741626 -59.3000293 277.5483252 -59.45458984 278.34594727 C-60.95776749 285.66064921 -63.38230593 291.2760668 -69.31640625 295.94140625 C-74.98390166 299.50495905 -81.88604804 298.52236112 -88.11752319 297.16955566 C-93.1892304 295.98108946 -98.22440713 294.65338937 -103.26171875 293.328125 C-105.13936642 292.84342752 -107.01728626 292.35978327 -108.89546204 291.87713623 C-113.8260056 290.60702817 -118.75266298 289.32244012 -123.6786499 288.03479004 C-128.64997324 286.73813354 -133.6249703 285.45573929 -138.59960938 284.171875 C-154.08155162 280.17126596 -169.55517885 276.14185045 -185 272 C-184.38718724 264.95265331 -182.54643223 258.50569193 -180.5 251.75 C-179.86405006 249.61995081 -179.22861199 247.48974871 -178.59375 245.359375 C-178.31208984 244.42577148 -178.03042969 243.49216797 -177.74023438 242.53027344 C-177.10609938 240.36266951 -176.52794357 238.19547266 -176 236 C-167.70278012 235.67501709 -159.80045581 237.19906629 -151.64257812 238.578125 C-145.32931993 239.60646258 -139.39676682 240.2170695 -133 240 C-132.68546875 238.98679687 -132.3709375 237.97359375 -132.046875 236.9296875 C-131.6150756 235.57796765 -131.18275612 234.22641386 -130.75 232.875 C-130.54503906 232.20984375 -130.34007812 231.5446875 -130.12890625 230.859375 C-128.66654983 226.33936424 -126.80032707 222.84147431 -124 219 C-119.3817417 219.54792895 -116.01850353 221.58964488 -112.1875 224.0625 C-111.2912793 224.62807617 -111.2912793 224.62807617 -110.37695312 225.20507812 C-108.91363423 226.12989566 -107.45620477 227.06402065 -106 228 C-106.99281767 229.99899163 -107.9947869 231.99010495 -109.03515625 233.96484375 C-109.54369141 234.94130859 -109.54369141 234.94130859 -110.0625 235.9375 C-110.40410156 236.58589844 -110.74570312 237.23429688 -111.09765625 237.90234375 C-112.26118082 240.40747804 -112.26118082 240.40747804 -113 245 C-108.38 245.33 -103.76 245.66 -99 246 C-98.82476807 244.38593262 -98.82476807 244.38593262 -98.64599609 242.73925781 C-97.40546587 231.39639699 -96.04961674 220.07109776 -94.625 208.75 C-94.51772583 207.89557312 -94.41045166 207.04114624 -94.29992676 206.16082764 C-92.89337082 194.96583833 -91.4764797 183.77201055 -90.00701904 172.58508301 C-89.75469916 170.66083684 -89.50549374 168.73618311 -89.25634766 166.81152344 C-89.10472168 165.66973633 -88.9530957 164.52794922 -88.796875 163.3515625 C-88.66635742 162.35979004 -88.53583984 161.36801758 -88.40136719 160.34619141 C-88 158 -88 158 -87 156 C-88.98 156 -90.96 156 -93 156 C-92.52036225 151.89281077 -91.99250417 147.82523551 -91.24609375 143.7578125 C-85.74198713 113.01096446 -90.20019651 82.73210202 -99 53 C-103.1070032 51.89481485 -107.21469166 50.79222278 -111.32299805 49.69189453 C-112.7167378 49.31823517 -114.11029712 48.94390206 -115.50366211 48.56884766 C-122.97165583 46.55916151 -130.42930077 44.5929489 -138 43 C-137.4575198 31.5936399 -136.45998281 20.3254977 -135 9 C-132.12476286 9.31042917 -129.24982273 9.62327519 -126.375 9.9375 C-125.56675781 10.02451172 -124.75851562 10.11152344 -123.92578125 10.20117188 C-120.62874804 10.56304137 -117.38263995 10.92565555 -114.125 11.55859375 C-109.2989676 12.24027083 -104.49218027 12.14362441 -99.625 12.125 C-98.62210937 12.12886719 -97.61921875 12.13273438 -96.5859375 12.13671875 C-90.95493801 12.12934833 -85.57149324 11.80205013 -80 11 C-74.03611598 10.42437195 -69.96428294 11.02050424 -64.7265625 14.02734375 C-60.89436588 16.18620565 -57.61826268 16.10513131 -53.3125 16.0625 C-52.13300781 16.05347656 -50.95351563 16.04445312 -49.73828125 16.03515625 C-48.38283203 16.01775391 -48.38283203 16.01775391 -47 16 C-46.34 13.69 -45.68 11.38 -45 9 C-43.38774536 8.6443396 -43.38774536 8.6443396 -41.74291992 8.28149414 C-37.75623437 7.40159619 -33.77001599 6.5195977 -29.78393555 5.63696289 C-28.05847649 5.25520406 -26.33289117 4.87401545 -24.60717773 4.4934082 C-22.12710714 3.94632332 -19.64749744 3.39719125 -17.16796875 2.84765625 C-16.39599655 2.6778273 -15.62402435 2.50799835 -14.82865906 2.33302307 C-3.93485661 -0.08744126 -3.93485661 -0.08744126 0 0 Z " fill="#4F216C" transform="translate(470,216)"/>
<path d="M0 0 C0.68989014 0.21788681 1.37978027 0.43577362 2.09057617 0.66026306 C2.81075928 0.9005574 3.53094238 1.14085175 4.27294922 1.38842773 C5.04646729 1.6360939 5.81998535 1.88376007 6.61694336 2.13893127 C9.10750571 2.93908835 11.59247919 3.75524993 14.07763672 4.57202148 C15.78936741 5.12566441 17.50144628 5.67823195 19.21386719 6.22973633 C22.58690064 7.31744663 25.95799986 8.41084782 29.32763672 9.5090332 C33.27884517 10.79457206 37.23751482 12.05272207 41.20263672 13.29467773 C42.72606689 13.77215454 42.72606689 13.77215454 44.28027344 14.25927734 C46.08880496 14.825134 47.89770022 15.38983002 49.70703125 15.953125 C50.49190918 16.20118896 51.27678711 16.44925293 52.08544922 16.70483398 C52.74432129 16.91124512 53.40319336 17.11765625 54.08203125 17.33032227 C56.13050264 18.07410292 58.02236047 19.00123222 59.95263672 20.00952148 C45.98216034 27.76171806 31.87484601 35.20934363 17.65356445 42.48803711 C17.01147034 42.81723648 16.36937622 43.14643585 15.70782471 43.48561096 C13.96296869 44.37976916 12.21699982 45.27175481 10.47094727 46.16357422 C7.16206461 47.83091058 7.16206461 47.83091058 4.98440552 49.28565979 C-1.54615521 53.38419876 -7.60610762 54.08145676 -15.20361328 54.66967773 C-16.47994125 54.78511429 -17.75626923 54.90055084 -19.0712738 55.01948547 C-22.51576202 55.33042902 -25.96191749 55.61577659 -29.40903854 55.89580536 C-32.99750877 56.19152579 -36.58392659 56.51038272 -40.1706543 56.82641602 C-46.70597284 57.3985474 -53.24288066 57.94929527 -59.78090954 58.48949432 C-65.63352431 58.97344314 -71.48468942 59.47343109 -77.33566284 59.97685242 C-82.88480038 60.45321917 -88.43466183 60.9207297 -93.98486328 61.38452148 C-95.00580078 61.47001251 -96.02673828 61.55550354 -97.07861328 61.64358521 C-99.95196508 61.88206662 -102.82570923 62.11490809 -105.69970703 62.34545898 C-106.93303017 62.44809807 -106.93303017 62.44809807 -108.19126892 62.55281067 C-113.49243612 62.96920149 -118.72963399 63.06588497 -124.04736328 63.00952148 C-124.67193601 66.4446715 -125.04736328 69.50016962 -125.04736328 73.00952148 C-125.42236328 75.69702148 -125.42236328 75.69702148 -126.04736328 78.00952148 C-128.93152211 79.4516009 -131.46457857 79.10347035 -134.67236328 79.07202148 C-135.86087891 79.06299805 -137.04939453 79.05397461 -138.27392578 79.04467773 C-139.64677734 79.02727539 -139.64677734 79.02727539 -141.04736328 79.00952148 C-141.04736328 79.99952148 -141.04736328 80.98952148 -141.04736328 82.00952148 C-144.67736328 82.00952148 -148.30736328 82.00952148 -152.04736328 82.00952148 C-151.71736328 82.99952148 -151.38736328 83.98952148 -151.04736328 85.00952148 C-149.86085068 89.09546981 -149.89871149 92.77294542 -150.04736328 97.00952148 C-151.03736328 97.00952148 -152.02736328 97.00952148 -153.04736328 97.00952148 C-154.73486328 94.50952148 -154.73486328 94.50952148 -156.04736328 92.00952148 C-159.51236328 92.50452148 -159.51236328 92.50452148 -163.04736328 93.00952148 C-165.48379004 89.35488135 -165.12696162 87.30783181 -165.04736328 83.00952148 C-165.37736328 82.67952148 -165.70736328 82.34952148 -166.04736328 82.00952148 C-166.42236328 78.69702148 -166.42236328 78.69702148 -166.04736328 75.00952148 C-163.67236328 72.57202148 -163.67236328 72.57202148 -161.04736328 71.00952148 C-160.38736328 71.00952148 -159.72736328 71.00952148 -159.04736328 71.00952148 C-159.04736328 70.01952148 -159.04736328 69.02952148 -159.04736328 68.00952148 C-167.88357932 67.82142462 -176.58260486 68.56122086 -185.37158203 69.36499023 C-186.97962164 69.50881612 -188.58769546 69.65225986 -190.19580078 69.79534912 C-193.60761164 70.09979355 -197.01915451 70.40703374 -200.43051147 70.71652222 C-205.76631895 71.20056669 -211.10272936 71.6777294 -216.43920898 72.15429688 C-232.65489484 73.60466503 -248.86818124 75.0797181 -265.07861328 76.58764648 C-267.60766315 76.82180833 -270.13671578 77.05594029 -272.66577148 77.29003906 C-277.25872571 77.71539721 -281.85086178 78.14843706 -286.44262695 78.58642578 C-291.97416817 79.10829348 -297.50731952 79.58739381 -303.04736328 80.00952148 C-304.34109863 80.10894043 -305.63483398 80.20835937 -306.96777344 80.31079102 C-308.56371338 80.38015869 -308.56371338 80.38015869 -310.19189453 80.45092773 C-311.45996948 80.51002319 -311.45996948 80.51002319 -312.75366211 80.5703125 C-316.39619886 79.67974231 -317.80604969 77.9654498 -320.04736328 75.00952148 C-320.68918838 72.08812991 -321.03732564 69.65309484 -321.19189453 66.70874023 C-321.25140793 65.9135347 -321.31092133 65.11832916 -321.37223816 64.29902649 C-321.55630023 61.76599653 -321.70818334 59.23217453 -321.85986328 56.69702148 C-321.97956635 55.00481853 -322.10129155 53.31275733 -322.22509766 51.62084961 C-322.79000428 43.61451935 -322.79000428 43.61451935 -322.94570923 40.1109314 C-323.01483038 38.68204722 -323.11836006 37.25450274 -323.25228882 35.83023071 C-323.487539 32.21539168 -323.39257851 30.43584537 -321.08032227 27.58032227 C-317.26005604 25.60176694 -313.73948172 25.17028526 -309.52001953 24.87670898 C-308.26814598 24.76780838 -308.26814598 24.76780838 -306.99098206 24.65670776 C-305.22727345 24.504314 -303.4629261 24.35915925 -301.69805908 24.2208252 C-298.37809477 23.95616986 -295.06376583 23.64244026 -291.7482605 23.32751465 C-287.32861451 22.91323186 -282.90659662 22.52579281 -278.48486328 22.13452148 C-277.55429926 22.05207561 -276.62373524 21.96962975 -275.66497231 21.88468552 C-265.17694002 20.95798037 -254.68874415 20.04082602 -244.19067383 19.23461914 C-215.25601723 17.00844932 -186.35118881 14.47426673 -157.44580078 11.90014648 C-155.3327264 11.71207796 -153.21965178 11.52401212 -151.10657692 11.33594894 C-133.63273802 9.78037121 -116.15931001 8.22018647 -98.68615723 6.65692139 C-86.59796673 5.57543474 -74.50964866 4.49542869 -62.42088187 3.42040038 C-56.24932298 2.87141047 -50.07806171 2.3192211 -43.90701175 1.76454115 C-40.09374955 1.42251868 -36.28023018 1.08343568 -32.46663284 0.7451725 C-30.70570194 0.58838188 -28.94487801 0.43038422 -27.18417358 0.27107048 C-24.77706248 0.0534402 -22.36960027 -0.15980511 -19.96200562 -0.37200928 C-18.92752558 -0.46713574 -18.92752558 -0.46713574 -17.87214696 -0.56418395 C-5.13661275 -1.66947136 -5.13661275 -1.66947136 0 0 Z " fill="#D87245" transform="translate(550.04736328125,99.990478515625)"/>
<path d="M0 0 C0.84629011 3.99737031 1.67466787 7.99825449 2.5 12 C2.73847656 13.12535156 2.97695313 14.25070313 3.22265625 15.41015625 C3.44824219 16.51230469 3.67382812 17.61445313 3.90625 18.75 C4.11572266 19.75546875 4.32519531 20.7609375 4.54101562 21.796875 C5 25 5 25 5 33 C-2.92 35.31 -10.84 37.62 -19 40 C-19.18178531 49.37877544 -18.65344992 58.44070829 -17.56567383 67.73803711 C-17.31336989 69.92994278 -17.08700614 72.1235733 -16.86132812 74.31835938 C-15.46662498 86.94668996 -11.85442254 98.13724513 -5.9375 109.4375 C-5.61201172 110.07880859 -5.28652344 110.72011719 -4.95117188 111.38085938 C-3.30497515 114.59827753 -1.57364233 117.73337303 0.2734375 120.83984375 C2 124 2 124 1.5625 126.125 C-0.47576823 128.57092187 -2.74937234 130.74937234 -5 133 C-6.29519995 135.16620544 -6.29519995 135.16620544 -7 137 C-7 136.34 -7 135.68 -7 135 C-7.79921875 135.51949219 -8.5984375 136.03898438 -9.421875 136.57421875 C-11.06929687 137.62029297 -11.06929687 137.62029297 -12.75 138.6875 C-13.81734375 139.37199219 -14.8846875 140.05648437 -15.984375 140.76171875 C-24.91121217 145.99615017 -34.51696903 148.96140669 -44.5625 151.1875 C-45.69220215 151.44160645 -46.8219043 151.69571289 -47.98583984 151.95751953 C-63.00496329 155.22254637 -77.65565668 156.38096301 -93 156 C-92.52036225 151.89281077 -91.99250417 147.82523551 -91.24609375 143.7578125 C-85.74198713 113.01096446 -90.20019651 82.73210202 -99 53 C-103.1070032 51.89481485 -107.21469166 50.79222278 -111.32299805 49.69189453 C-112.7167378 49.31823517 -114.11029712 48.94390206 -115.50366211 48.56884766 C-122.97165583 46.55916151 -130.42930077 44.5929489 -138 43 C-137.4575198 31.5936399 -136.45998281 20.3254977 -135 9 C-132.12476286 9.31042917 -129.24982273 9.62327519 -126.375 9.9375 C-125.56675781 10.02451172 -124.75851562 10.11152344 -123.92578125 10.20117188 C-120.62874804 10.56304137 -117.38263995 10.92565555 -114.125 11.55859375 C-109.2989676 12.24027083 -104.49218027 12.14362441 -99.625 12.125 C-98.62210937 12.12886719 -97.61921875 12.13273438 -96.5859375 12.13671875 C-90.95493801 12.12934833 -85.57149324 11.80205013 -80 11 C-74.03611598 10.42437195 -69.96428294 11.02050424 -64.7265625 14.02734375 C-60.89436588 16.18620565 -57.61826268 16.10513131 -53.3125 16.0625 C-52.13300781 16.05347656 -50.95351563 16.04445312 -49.73828125 16.03515625 C-48.38283203 16.01775391 -48.38283203 16.01775391 -47 16 C-46.34 13.69 -45.68 11.38 -45 9 C-43.92516357 8.76289307 -42.85032715 8.52578613 -41.74291992 8.28149414 C-37.75623437 7.40159619 -33.77001599 6.5195977 -29.78393555 5.63696289 C-28.05847649 5.25520406 -26.33289117 4.87401545 -24.60717773 4.4934082 C-22.12710714 3.94632332 -19.64749744 3.39719125 -17.16796875 2.84765625 C-16.39599655 2.6778273 -15.62402435 2.50799835 -14.82865906 2.33302307 C-3.93485661 -0.08744126 -3.93485661 -0.08744126 0 0 Z " fill="#5CC1AC" transform="translate(470,216)"/>
<path d="M0 0 C0.70012207 0.22022827 1.40024414 0.44045654 2.12158203 0.6673584 C2.84587402 0.90796997 3.57016602 1.14858154 4.31640625 1.39648438 C5.08194824 1.64064087 5.84749023 1.88479736 6.63623047 2.13635254 C9.0540832 2.91019894 11.46640244 3.69988983 13.87890625 4.49023438 C15.52830477 5.02124286 17.17804179 5.55120111 18.828125 6.08007812 C22.84906606 7.3713593 26.86512827 8.67686525 30.87890625 9.99023438 C31.20890625 14.28023437 31.53890625 18.57023437 31.87890625 22.99023438 C25.21238599 23.57524786 18.54568903 24.15822043 11.87890625 24.74023438 C10.84220795 24.83082123 9.80550964 24.92140808 8.73739624 25.01473999 C-2.58181804 26.00284043 -13.90147735 26.98173226 -25.2265625 27.90039062 C-51.68561937 30.0511324 -78.11474011 32.46104393 -104.54324341 34.95465088 C-125.05440114 36.88927875 -145.56677138 38.75532094 -166.10302734 40.40759277 C-176.27229624 41.22588595 -186.4312482 42.09424229 -196.58203125 43.11914062 C-197.98668137 43.26037605 -197.98668137 43.26037605 -199.41970825 43.40446472 C-203.810028 43.84795533 -208.19895633 44.30137365 -212.58642578 44.7722168 C-222.49573311 45.80830258 -232.15332478 46.14953662 -242.12109375 45.99023438 C-242.78109375 37.41023438 -243.44109375 28.83023438 -244.12109375 19.99023438 C-230.94681307 18.48075198 -217.76830978 17.1891976 -204.56005859 16.01904297 C-202.462022 15.83171643 -200.36399996 15.64422687 -198.26599121 15.45658875 C-192.6263723 14.95275486 -186.98653294 14.45143276 -181.34662962 13.95079374 C-176.6242906 13.53141573 -171.90205306 13.1109008 -167.17981112 12.69043124 C-156.0440317 11.69896554 -144.9080603 10.70967692 -133.77197266 9.72167969 C-122.29823829 8.70367944 -110.82487407 7.68158004 -99.35167539 6.65756166 C-89.47293693 5.77602116 -79.59395898 4.89720071 -69.71478808 4.02051985 C-63.82594242 3.49790239 -57.93719675 2.97421606 -52.04868698 2.44782639 C-46.52159341 1.95384753 -40.99420901 1.46326146 -35.46658325 0.97527504 C-33.44122173 0.79589899 -31.41596598 0.61532398 -29.39082718 0.4334507 C-26.62292053 0.18506229 -23.85466159 -0.05895877 -21.08627319 -0.3019104 C-20.28919114 -0.37447418 -19.4921091 -0.44703796 -18.67087305 -0.52180064 C-5.21370065 -1.68678551 -5.21370065 -1.68678551 0 0 Z " fill="#F0884F" transform="translate(550.12109375,100.009765625)"/>
<path d="M0 0 C6.8786465 0.45963306 13.42620357 1.67462879 20.1484375 3.17578125 C26.41241149 4.51624627 32.72408037 5.57275245 39.03613281 6.65917969 C43.36267507 7.41003163 47.68100299 8.20709558 52 9 C52 9.66 52 10.32 52 11 C50.35 11.66 48.7 12.32 47 13 C48.65 15.31 50.3 17.62 52 20 C54.31 18.35 56.62 16.7 59 15 C58.01 13.02 58.01 13.02 57 11 C59.64 11.33 62.28 11.66 65 12 C64.34 14.97 63.68 17.94 63 21 C63.99 20.34 64.98 19.68 66 19 C69.83646321 18.48847157 71.71408007 18.8542369 75.1875 20.625 C79.28225587 24.08279385 80.72191443 26.630093 81.3515625 31.99609375 C81.67573434 39.37526851 80.99851699 44.43286864 76 50 C68.13971909 58.03892366 58.73883331 58.51866126 48 59 C47.67 59.99 47.34 60.98 47 62 C48.65 62 50.3 62 52 62 C52.6875 64.3125 52.6875 64.3125 53 67 C51.9375 68.875 51.9375 68.875 50 70 C47 70.125 47 70.125 44 69 C42.52723723 66.71449037 41.85740146 64.6198378 41 62 C40.49210937 62.34933594 39.98421875 62.69867188 39.4609375 63.05859375 C38.77257812 63.51363281 38.08421875 63.96867187 37.375 64.4375 C36.70210937 64.88996094 36.02921875 65.34242188 35.3359375 65.80859375 C33 67 33 67 27 68 C27.66 73.94 28.32 79.88 29 86 C32.96 86.33 36.92 86.66 41 87 C40.67 91.29 40.34 95.58 40 100 C41.98 100.495 41.98 100.495 44 101 C43.34 104.96 42.68 108.92 42 113 C30.52279674 110.98886641 19.05312995 108.93899713 7.59204102 106.83789062 C5.87906053 106.52442561 4.16583624 106.21229046 2.45239258 105.90136719 C-0.06223001 105.44497913 -2.57610542 104.9846678 -5.08984375 104.5234375 C-6.24117043 104.31562149 -6.24117043 104.31562149 -7.41575623 104.10360718 C-12.77177922 103.11411039 -12.77177922 103.11411039 -15 102 C-14.85904936 100.3745692 -14.71207913 98.74965949 -14.5625 97.125 C-14.48128906 96.22007812 -14.40007812 95.31515625 -14.31640625 94.3828125 C-14 92 -14 92 -13 90 C-11.68 90 -10.36 90 -9 90 C-8.01 86.37 -7.02 82.74 -6 79 C-1.71 79.33 2.58 79.66 7 80 C7.969375 78.4325 8.93875 76.865 9.9375 75.25 C10.48277344 74.36828125 11.02804688 73.4865625 11.58984375 72.578125 C12.82715712 70.31600083 13.53590513 68.51433675 14 66 C13.2575 65.46375 12.515 64.9275 11.75 64.375 C8.82225302 61.84649125 7.08443526 59.2344685 5 56 C4.34 55.67 3.68 55.34 3 55 C2.690625 55.639375 2.38125 56.27875 2.0625 56.9375 C1 59 1 59 0 60 C-2.9375 60.1875 -2.9375 60.1875 -6 60 C-8 58 -8 58 -8.25 55.5 C-8 53 -8 53 -6 51 C-4.68 51 -3.36 51 -2 51 C-2 52.65 -2 54.3 -2 56 C-0.78384032 54.95533891 -0.78384032 54.95533891 -0.4375 52.75 C-0.70810667 49.99620736 -0.70810667 49.99620736 -2.43359375 48.76953125 C-4.58491469 47.43198966 -6.77107157 46.20405137 -9 45 C-16.33046858 40.97371278 -20.81465058 38.02630367 -24.25 30.125 C-26.04327162 22.6530349 -25.14955386 17.93592306 -21.4765625 11.27734375 C-19.2224918 7.80082729 -17.63818954 6.0989555 -14 4 C-9.21073215 3.05909959 -6.05229652 3.31278595 -1.9375 6 C-1.298125 6.66 -0.65875 7.32 0 8 C0 5.36 0 2.72 0 0 Z " fill="#F18B53" transform="translate(150,252)"/>
<path d="M0 0 C0.12117188 1.16917969 0.24234375 2.33835938 0.3671875 3.54296875 C0.53608401 5.09118671 0.70537568 6.63936161 0.875 8.1875 C0.95363281 8.95642578 1.03226562 9.72535156 1.11328125 10.51757812 C1.580215 14.7020229 2.30843262 18.11448244 4 22 C4.61484415 24.32522878 5.19423731 26.65994657 5.75 29 C6.91082697 33.84078585 8.1645835 38.63309322 9.59375 43.40234375 C10.00415527 44.7800293 10.00415527 44.7800293 10.42285156 46.18554688 C10.96151395 47.97769636 11.50986775 49.76697059 12.06933594 51.55273438 C13.68754393 56.96342211 14.93587272 62.33763872 14 68 C9.30709546 73.76556843 1.67031887 76.09119906 -5 79 C-5.90363281 79.41894531 -6.80726563 79.83789062 -7.73828125 80.26953125 C-8.52589844 80.63433594 -9.31351562 80.99914062 -10.125 81.375 C-10.80820312 81.69210938 -11.49140625 82.00921875 -12.1953125 82.3359375 C-14 83 -14 83 -17 83 C-17.67097694 79.39662187 -18.33603957 75.79217704 -19 72.1875 C-19.19078125 71.16333984 -19.3815625 70.13917969 -19.578125 69.08398438 C-19.75859375 68.10107422 -19.9390625 67.11816406 -20.125 66.10546875 C-20.29257812 65.19949951 -20.46015625 64.29353027 -20.6328125 63.36010742 C-21 61 -21 61 -21 58 C-25.39254001 58.96008868 -29.78503489 59.92038346 -34.17749023 60.88085938 C-35.6680381 61.20676073 -37.15859774 61.53260829 -38.64916992 61.85839844 C-40.09708155 62.17487124 -41.54496801 62.4914592 -42.99282837 62.8081665 C-44.40578405 63.11705998 -45.81884891 63.42545453 -47.23202515 63.7333374 C-50.92276036 64.53873522 -54.60570355 65.3713669 -58.28515625 66.2265625 C-62 67 -62 67 -66 67 C-65.95875 67.94875 -65.9175 68.8975 -65.875 69.875 C-66 73 -66 73 -68 75 C-76.35293345 76.04411668 -83.57701725 74.94940749 -91 71 C-92.61780433 69.38219567 -92.33663973 67.46532928 -92.54296875 65.23046875 C-92.64802734 64.25916016 -92.75308594 63.28785156 -92.86132812 62.28710938 C-93.07735087 60.23424652 -93.27552226 58.17942024 -93.45507812 56.12304688 C-94.05213069 49.96837508 -94.05213069 49.96837508 -97.9921875 45.421875 C-98.98476563 44.95265625 -99.97734375 44.4834375 -101 44 C-102.9375 42.0625 -102.9375 42.0625 -104 40 C-103.75925978 36.62963689 -103.41201979 35.41201979 -101 33 C-97.70285207 33.32971479 -96.3773161 33.6226839 -94 36 C-94 36.99 -94 37.98 -94 39 C-93.01 39 -92.02 39 -91 39 C-91.66 34.05 -92.32 29.1 -93 24 C-89.37 24 -85.74 24 -82 24 C-82 23.01 -82 22.02 -82 21 C-81.08476562 20.93941406 -80.16953125 20.87882812 -79.2265625 20.81640625 C-77.44378906 20.69072266 -77.44378906 20.69072266 -75.625 20.5625 C-73.84996094 20.44068359 -73.84996094 20.44068359 -72.0390625 20.31640625 C-69.08481099 20.18915064 -69.08481099 20.18915064 -67 19 C-67.3403125 17.4840625 -67.3403125 17.4840625 -67.6875 15.9375 C-68.06916821 11.12848061 -67.00273344 9.2886297 -65 5 C-59.15104276 4.44601794 -53.30183391 3.89479433 -47.45239258 3.34594727 C-45.46925108 3.15950081 -43.48617601 2.97234624 -41.50317383 2.78442383 C-11.21854197 -0.08416343 -11.21854197 -0.08416343 0 0 Z " fill="#FEFDFD" transform="translate(491,158)"/>
<path d="M0 0 C1.37098869 2.74197738 1.37395124 5.19312671 1.63256836 8.25268555 C1.68802322 8.89568604 1.74347809 9.53868652 1.8006134 10.20117188 C1.98446402 12.34602675 2.16227149 14.49133561 2.33984375 16.63671875 C2.46787304 18.1514563 2.59617906 19.66617048 2.7247467 21.18086243 C2.99546926 24.3811846 3.26330201 27.58173193 3.52905273 30.7824707 C3.86153074 34.78511274 4.20013563 38.78720417 4.5408535 42.78915215 C5.99339813 59.87759289 7.33379559 76.96484974 8.35691833 94.08488464 C8.73991208 100.42110123 9.2630529 106.69570282 10 113 C10.21388653 116.1888269 10.27362713 119.36714994 10.3125 122.5625 C10.34150391 123.36107422 10.37050781 124.15964844 10.40039062 124.98242188 C10.46204102 130.80127049 9.35129564 135.18255743 6 140 C3.9296875 141.83984375 3.9296875 141.83984375 1.875 142.9375 C0.85019531 143.50791016 0.85019531 143.50791016 -0.1953125 144.08984375 C-6.99433413 147.51878756 -14.61836446 145.96058699 -21.97265625 144.90625 C-22.78117538 144.79526978 -23.58969452 144.68428955 -24.42271423 144.56994629 C-26.97013357 144.21896735 -29.51629067 143.8596409 -32.0625 143.5 C-33.80395942 143.25855825 -35.54549537 143.01766785 -37.28710938 142.77734375 C-41.52564991 142.19125767 -45.76308079 141.59768951 -50 141 C-51.24879231 136.00644351 -50.14051943 132.74326556 -48.3125 128.0625 C-47.74910381 126.5533855 -47.18925826 125.0429411 -46.6328125 123.53125 C-46.35469727 122.77585937 -46.07658203 122.02046875 -45.79003906 121.2421875 C-44.21795649 116.78050444 -43.00338427 112.22340802 -41.76171875 107.66015625 C-41 105 -41 105 -40 103 C-38.02 103 -36.04 103 -34 103 C-34.33 102.175 -34.66 101.35 -35 100.5 C-37.23325422 92.68361024 -35.62523225 86.90645597 -32.8125 79.5625 C-32.1619567 77.78900677 -31.51487131 76.01424163 -30.87109375 74.23828125 C-30.55124512 73.35736816 -30.23139648 72.47645508 -29.90185547 71.56884766 C-28.59040234 67.83330088 -27.46320999 64.05562833 -26.375 60.25 C-26.17616211 59.55849854 -25.97732422 58.86699707 -25.77246094 58.15454102 C-25.37735133 56.77957899 -24.98265162 55.40449911 -24.58837891 54.02929688 C-21.7726836 44.3180689 -18.62668231 34.73823728 -15.15820312 25.24121094 C-13.93648557 21.8508662 -12.82862288 18.49548645 -11.9765625 14.9921875 C-9.44539336 4.62953778 -9.44539336 4.62953778 -5.375 1.625 C-2 0 -2 0 0 0 Z " fill="#321648" transform="translate(463,351)"/>
<path d="M0 0 C0.75194499 2.77103167 1.21269858 5.43297347 1.48071289 8.2902832 C1.56072037 9.12827957 1.64072784 9.96627594 1.72315979 10.82966614 C1.80549362 11.72763412 1.88782745 12.62560211 1.97265625 13.55078125 C2.06002548 14.48294968 2.14739471 15.4151181 2.2374115 16.37553406 C2.42128462 18.34648616 2.60358416 20.31758561 2.78442383 22.28881836 C3.0605515 25.29131282 3.34340176 28.29312048 3.62695312 31.29492188 C3.80509437 33.21350393 3.98284154 35.13212263 4.16015625 37.05078125 C4.24451431 37.94267654 4.32887238 38.83457184 4.41578674 39.75349426 C4.84865783 44.52659075 5.08740435 49.2073961 5 54 C-3.13667919 54.78903694 -11.27392718 55.57181582 -19.41194534 56.34690857 C-23.19191843 56.70711811 -26.97167103 57.06937092 -30.75097656 57.43652344 C-34.40745883 57.7916642 -38.06444486 58.14113719 -41.72182465 58.48690796 C-43.10764128 58.61888524 -44.49327462 58.75280406 -45.87870026 58.88882446 C-50.24919805 59.31712356 -54.6197241 59.68741466 -59 60 C-60.70029358 60.12689209 -60.70029358 60.12689209 -62.43493652 60.25634766 C-70.06058135 60.58555821 -70.06058135 60.58555821 -74.1784668 58.01879883 C-76.44477683 54.26287824 -76.91962906 50.98333945 -77.14453125 46.69921875 C-77.20404465 45.90401321 -77.26355804 45.10880768 -77.32487488 44.289505 C-77.50893695 41.75647505 -77.66082005 39.22265304 -77.8125 36.6875 C-77.93220307 34.99529704 -78.05392827 33.30323584 -78.17773438 31.61132812 C-78.742641 23.60499786 -78.742641 23.60499786 -78.89834595 20.10140991 C-78.9674671 18.67252574 -79.07099678 17.24498125 -79.20492554 15.82070923 C-79.44064082 12.19872357 -79.34670404 10.4262186 -77.02319336 7.56982422 C-73.24886712 5.60996653 -69.79945704 5.17137064 -65.62890625 4.8828125 C-64.80258194 4.8110379 -63.97625763 4.73926331 -63.12489319 4.66531372 C-61.34387652 4.51137377 -59.56222983 4.364588 -57.78009033 4.22424316 C-54.02869546 3.9216542 -50.28367421 3.56052632 -46.53720093 3.20281982 C-42.65593133 2.83534923 -38.77301866 2.48735822 -34.88989258 2.14013672 C-31.90861614 1.87240611 -28.92796305 1.59831147 -25.94726562 1.32421875 C-24.01566 1.15065172 -22.08402053 0.97746088 -20.15234375 0.8046875 C-18.84268898 0.68285599 -18.84268898 0.68285599 -17.50657654 0.55856323 C-11.6572167 0.04515411 -5.87060754 -0.09072432 0 0 Z " fill="#ED5150" transform="translate(306,120)"/>
<path d="M0 0 C0 0.99 0 1.98 0 3 C0.75925781 3.26554688 1.51851562 3.53109375 2.30078125 3.8046875 C3.79158203 4.33449219 3.79158203 4.33449219 5.3125 4.875 C6.29863281 5.22304687 7.28476562 5.57109375 8.30078125 5.9296875 C11 7 11 7 14 9 C14 9.66 14 10.32 14 11 C14.5775 11.185625 15.155 11.37125 15.75 11.5625 C20.41149481 14.54067724 22.76905708 20.76849259 24 26 C25.28106848 34.49470409 22.64037283 40.91678773 18 48 C13.04238405 53.76124776 5.79459924 57.59491613 -1.8203125 58.23828125 C-11.17777666 58.44843706 -18.43659831 57.03319038 -25.58984375 50.6171875 C-32.6615207 42.50728651 -35.55960565 34.12382978 -35.37109375 23.51171875 C-34.52834387 15.53664359 -30.18599474 10.4452528 -24.12109375 5.50390625 C-17.65382447 0.9184575 -7.86675598 -3.93337799 0 0 Z " fill="#FEFBFC" transform="translate(584,222)"/>
<path d="M0 0 C1.02970259 1.31053056 2.02863248 2.64566513 3 4 C5.30672137 5.18576085 5.30672137 5.18576085 7.875 6 C16.38270302 9.23046115 19.82643967 14.08872584 24 22 C26.23554407 28.70663222 25.9337243 35.90745657 22.9375 42.3125 C20.27752147 46.96746242 17.19066655 50.65987042 13 54 C12.46246094 54.43441406 11.92492187 54.86882812 11.37109375 55.31640625 C4.7216659 59.58572569 -4.42701826 58.92830099 -12 58 C-15.1474829 57.13824407 -17.41436858 55.96352461 -20 54 C-21.546875 52.948125 -21.546875 52.948125 -23.125 51.875 C-28.94580204 46.73806268 -33.39179573 38.43582567 -34.25 30.765625 C-34.65552831 22.6043678 -32.519546 15.39032624 -27 9.25 C-19.83873928 2.80792572 -9.83900771 -2.59898317 0 0 Z " fill="#FEFBFC" transform="translate(670,296)"/>
<path d="M0 0 C0.75194499 2.77103167 1.21269858 5.43297347 1.48071289 8.2902832 C1.56072037 9.12827957 1.64072784 9.96627594 1.72315979 10.82966614 C1.80549362 11.72763412 1.88782745 12.62560211 1.97265625 13.55078125 C2.06002548 14.48294968 2.14739471 15.4151181 2.2374115 16.37553406 C2.42128462 18.34648616 2.60358416 20.31758561 2.78442383 22.28881836 C3.0605515 25.29131282 3.34340176 28.29312048 3.62695312 31.29492188 C3.80509437 33.21350393 3.98284154 35.13212263 4.16015625 37.05078125 C4.24451431 37.94267654 4.32887238 38.83457184 4.41578674 39.75349426 C4.84865783 44.52659075 5.08740435 49.2073961 5 54 C-7.40988005 55.43733874 -19.50563544 56.23230866 -32 56 C-33.71261289 44.38215301 -34.74885964 32.76920287 -35.625 21.0625 C-35.76003234 19.30010072 -35.89544682 17.53773068 -36.03125 15.77539062 C-36.35855745 11.51725007 -36.68074558 7.25875159 -37 3 C-34.45581346 2.67900626 -31.91153073 2.35880989 -29.3671875 2.0390625 C-28.65328857 1.94890869 -27.93938965 1.85875488 -27.20385742 1.76586914 C-18.10675644 0.62416993 -9.17851915 -0.17919018 0 0 Z " fill="#191516" transform="translate(306,120)"/>
<path d="M0 0 C0.12117188 1.16917969 0.24234375 2.33835938 0.3671875 3.54296875 C0.53608401 5.09118671 0.70537568 6.63936161 0.875 8.1875 C0.95363281 8.95642578 1.03226562 9.72535156 1.11328125 10.51757812 C1.580215 14.7020229 2.30843262 18.11448244 4 22 C4.61484415 24.32522878 5.19423731 26.65994657 5.75 29 C6.91082697 33.84078585 8.1645835 38.63309322 9.59375 43.40234375 C10.00415527 44.7800293 10.00415527 44.7800293 10.42285156 46.18554688 C10.96151395 47.97769636 11.50986775 49.76697059 12.06933594 51.55273438 C13.68754393 56.96342211 14.93587272 62.33763872 14 68 C9.30709546 73.76556843 1.67031887 76.09119906 -5 79 C-5.90363281 79.41894531 -6.80726563 79.83789062 -7.73828125 80.26953125 C-8.91970703 80.81673828 -8.91970703 80.81673828 -10.125 81.375 C-10.80820312 81.69210938 -11.49140625 82.00921875 -12.1953125 82.3359375 C-14 83 -14 83 -17 83 C-17.67097694 79.39662187 -18.33603957 75.79217704 -19 72.1875 C-19.19078125 71.16333984 -19.3815625 70.13917969 -19.578125 69.08398438 C-19.75859375 68.10107422 -19.9390625 67.11816406 -20.125 66.10546875 C-20.29257812 65.19949951 -20.46015625 64.29353027 -20.6328125 63.36010742 C-21 61 -21 61 -21 58 C-18.69 57.34 -16.38 56.68 -14 56 C-13.97285265 53.77090129 -13.95353746 51.54170633 -13.9375 49.3125 C-13.92589844 48.07113281 -13.91429687 46.82976562 -13.90234375 45.55078125 C-13.98641701 42.49387735 -14.40441499 39.9748665 -15 37 C-15.1815817 35.22126773 -15.33522336 33.43952199 -15.46484375 31.65625 C-15.54283203 30.65722656 -15.62082031 29.65820312 -15.70117188 28.62890625 C-15.85870207 26.5432585 -16.01234951 24.45731384 -16.16210938 22.37109375 C-16.24138672 21.37207031 -16.32066406 20.37304688 -16.40234375 19.34375 C-16.46929443 18.43818359 -16.53624512 17.53261719 -16.60522461 16.59960938 C-17.13976493 13.07964317 -17.95740833 10.04529269 -20.5078125 7.48828125 C-21.04148437 7.10027344 -21.57515625 6.71226562 -22.125 6.3125 C-23.548125 5.1678125 -23.548125 5.1678125 -25 4 C-25 3.34 -25 2.68 -25 2 C-21.50773711 0.83591237 -18.42505666 0.66810614 -14.75 0.4375 C-13.46609375 0.35371094 -12.1821875 0.26992187 -10.859375 0.18359375 C-7.2321036 0.01104137 -3.6306361 -0.03292028 0 0 Z " fill="#FBBB9E" transform="translate(491,158)"/>
<path d="M0 0 C-2.66529605 5.71134868 -2.66529605 5.71134868 -4.58984375 7.37109375 C-6.59060822 9.68222612 -6.33257095 11.22790333 -6.25 14.25 C-6.22421875 15.31863281 -6.1984375 16.38726562 -6.171875 17.48828125 C-5.93126639 22.40435261 -5.58268797 27.31014851 -5.22265625 32.21875 C-4.89311979 37.81508849 -4.91495524 43.396495 -5 49 C-3.2675 49.185625 -3.2675 49.185625 -1.5 49.375 C2.78044585 49.8336192 6.83902295 50.92478954 11 52 C10.03644647 69.85649203 10.03644647 69.85649203 9 78 C2.85311636 76.94183784 -2.72258694 74.53455419 -8.5 72.25 C-9.62792969 71.81945312 -10.75585938 71.38890625 -11.91796875 70.9453125 C-17.65598444 68.67726843 -22.11489572 66.87342028 -26 62 C-26.33 61.67 -26.66 61.34 -27 61 C-27.78643079 51.37993967 -26.331795 41.69637826 -25.24365234 32.15283203 C-23.13914629 19.82215358 -23.13914629 19.82215358 -25 8 C-25.039992 6.00039988 -25.04346799 3.99952758 -25 2 C-16.58173087 0.30117812 -8.58077055 -0.24911914 0 0 Z " fill="#FBBB9D" transform="translate(324,173)"/>
<path d="M0 0 C2.34634647 2.34634647 2.95441302 4.19890199 4.0625 7.3125 C4.40410156 8.25738281 4.74570312 9.20226562 5.09765625 10.17578125 C7.45701073 17.56025438 8.71679335 26.71899436 6.28125 34.2109375 C4.64980143 36.90809038 3.23825541 37.92419146 0.25 38.875 C-0.4925 38.91625 -1.235 38.9575 -2 39 C-1.505 40.175625 -1.01 41.35125 -0.5 42.5625 C0.973959 46.49538587 1.42283477 49.77165232 1 54 C-1.70476889 56.70476889 -3.22202887 56.33044845 -7 56.375 C-12.97635933 56.30195561 -20.50450742 55.49549258 -25 51 C-25.22482481 49.41576069 -25.39586714 47.82380534 -25.54296875 46.23046875 C-25.64802734 45.25916016 -25.75308594 44.28785156 -25.86132812 43.28710938 C-26.07735087 41.23424652 -26.27552226 39.17942024 -26.45507812 37.12304688 C-27.05213069 30.96837508 -27.05213069 30.96837508 -30.9921875 26.421875 C-31.98476563 25.95265625 -32.97734375 25.4834375 -34 25 C-35.9375 23.0625 -35.9375 23.0625 -37 21 C-36.75925978 17.62963689 -36.41201979 16.41201979 -34 14 C-30.70285207 14.32971479 -29.3773161 14.6226839 -27 17 C-27 17.99 -27 18.98 -27 20 C-26.01 20 -25.02 20 -24 20 C-24.66 15.05 -25.32 10.1 -26 5 C-22.37 5 -18.74 5 -15 5 C-15 4.01 -15 3.02 -15 2 C-14.08476562 1.93941406 -13.16953125 1.87882813 -12.2265625 1.81640625 C-10.44378906 1.69072266 -10.44378906 1.69072266 -8.625 1.5625 C-7.44164062 1.48128906 -6.25828125 1.40007812 -5.0390625 1.31640625 C-2.08481099 1.18915064 -2.08481099 1.18915064 0 0 Z " fill="#FABA9D" transform="translate(424,177)"/>
<path d="M0 0 C8.71865984 0.67849493 17.18810856 2.28802359 25.75 4 C27.83208173 4.41206356 29.91441788 4.82281019 31.99688721 5.23291016 C33.87564752 5.60355034 35.75376271 5.97745635 37.63183594 6.3515625 C40.74535789 6.95097641 43.87244428 7.47874071 47 8 C46.67 12.29 46.34 16.58 46 21 C47.32 21.33 48.64 21.66 50 22 C49.34 25.96 48.68 29.92 48 34 C36.52279674 31.98886641 25.05312995 29.93899713 13.59204102 27.83789062 C11.87906053 27.52442561 10.16583624 27.21229046 8.45239258 26.90136719 C5.93776999 26.44497913 3.42389458 25.9846678 0.91015625 25.5234375 C0.14260513 25.38489349 -0.62494598 25.24634949 -1.41575623 25.10360718 C-6.77177922 24.11411039 -6.77177922 24.11411039 -9 23 C-8.85904936 21.3745692 -8.71207913 19.74965949 -8.5625 18.125 C-8.48128906 17.22007812 -8.40007812 16.31515625 -8.31640625 15.3828125 C-8 13 -8 13 -7 11 C-5.68 11 -4.36 11 -3 11 C-2.01 7.37 -1.02 3.74 0 0 Z " fill="#3D3739" transform="translate(144,331)"/>
<path d="M0 0 C0.33 0 0.66 0 1 0 C1.99 14.355 1.99 14.355 3 29 C4.98 29 6.96 29 9 29 C9 29.33 9 29.66 9 30 C4.52068553 30.43452586 0.04072212 30.86140801 -4.43994141 31.28173828 C-5.95868752 31.42523427 -7.47725043 31.57068514 -8.99560547 31.71826172 C-13.99335964 32.20319232 -18.99209404 32.63424368 -24 33 C-25.18142578 33.08894531 -26.36285156 33.17789063 -27.58007812 33.26953125 C-32.24954162 33.46993741 -35.08900617 33.51945558 -39.19921875 31.17578125 C-41.81581119 26.56127008 -41.7809172 22.41269836 -41.8125 17.1875 C-41.83763672 16.20845703 -41.86277344 15.22941406 -41.88867188 14.22070312 C-41.94738663 11.81339803 -41.9837798 9.40790438 -42 7 C-32.57855842 5.3737213 -23.22603004 4.46361946 -13.6875 3.875 C-12.34957533 3.78828416 -11.01168434 3.70104697 -9.67382812 3.61328125 C-6.44950999 3.40375877 -3.22495624 3.19941573 0 3 C0 2.01 0 1.02 0 0 Z " fill="#CD4747" transform="translate(271,147)"/>
<path d="M0 0 C6.14563146 0.96884072 11.9852323 2.53291382 17.875 4.5 C18.51703369 4.71358154 19.15906738 4.92716309 19.82055664 5.1472168 C23.01119278 6.23534313 26.00691842 7.45739299 29 9 C15.02952362 16.75219658 0.92220929 24.19982214 -13.29907227 31.47851562 C-14.57048101 32.13019711 -15.84188415 32.78188953 -17.11328125 33.43359375 C-17.71817886 33.74251556 -18.32307648 34.05143738 -18.94630432 34.36972046 C-23.16450227 36.53514974 -27.28594163 38.83189174 -31.35229492 41.26977539 C-31.8960376 41.51074951 -32.43978027 41.75172363 -33 42 C-33.66 41.67 -34.32 41.34 -35 41 C-34.9896875 39.71222656 -34.979375 38.42445313 -34.96875 37.09765625 C-34.96875 32.19671762 -35.20213215 27.32816807 -35.5 22.4375 C-35.54769531 21.61958984 -35.59539063 20.80167969 -35.64453125 19.95898438 C-35.76069881 17.9725191 -35.8800115 15.98623814 -36 14 C-10.0298471 11.61223194 -10.0298471 11.61223194 1 12 C0.83628906 11.42765625 0.67257812 10.8553125 0.50390625 10.265625 C-0.26382871 6.81379339 -0.05883914 3.53034839 0 0 Z " fill="#DBA189" transform="translate(581,111)"/>
<path d="M0 0 C0.96603426 3.3545805 1.27948713 6.60102498 1.53515625 10.078125 C1.66567383 11.81835938 1.66567383 11.81835938 1.79882812 13.59375 C1.9293457 15.40359375 1.9293457 15.40359375 2.0625 17.25 C2.15337891 18.47203125 2.24425781 19.6940625 2.33789062 20.953125 C2.56169061 23.96853537 2.78227284 26.98414606 3 30 C2.505 28.515 2.505 28.515 2 27 C1.37134033 27.05534912 0.74268066 27.11069824 0.0949707 27.16772461 C-22.99644479 29.19743743 -22.99644479 29.19743743 -34 30 C-35.7270386 20.99592496 -36.52550099 12.14034937 -37 3 C-11.97709309 -0.23382611 -11.97709309 -0.23382611 0 0 Z " fill="#3A3334" transform="translate(306,120)"/>
<path d="M0 0 C1.9375 1.625 1.9375 1.625 3 4 C2.6875 7.5 2.6875 7.5 2 11 C2 12.32 2 13.64 2 15 C1.625 17.6875 1.625 17.6875 1 20 C-1.88415883 21.44207941 -4.41721528 21.09394887 -7.625 21.0625 C-8.81351562 21.05347656 -10.00203125 21.04445312 -11.2265625 21.03515625 C-12.14179688 21.02355469 -13.05703125 21.01195312 -14 21 C-14 21.99 -14 22.98 -14 24 C-17.63 24 -21.26 24 -25 24 C-24.67 24.99 -24.34 25.98 -24 27 C-22.8134874 31.08594833 -22.85134821 34.76342394 -23 39 C-23.99 39 -24.98 39 -26 39 C-27.6875 36.5 -27.6875 36.5 -29 34 C-32.465 34.495 -32.465 34.495 -36 35 C-38.43642676 31.34535987 -38.07959834 29.29831033 -38 25 C-38.33 24.67 -38.66 24.34 -39 24 C-39.375 20.6875 -39.375 20.6875 -39 17 C-36.625 14.5625 -36.625 14.5625 -34 13 C-33.34 13 -32.68 13 -32 13 C-31.938125 12.4225 -31.87625 11.845 -31.8125 11.25 C-30.62485842 7.9611464 -28.90582807 6.91661 -26 5 C-17.98788546 1.48591467 -8.71743388 -2.15153687 0 0 Z " fill="#3B3435" transform="translate(423,158)"/>
<path d="M0 0 C5.12295063 0.48460344 8.18497849 2.12948494 12.375 5.0625 C13.43460937 5.79597656 14.49421875 6.52945312 15.5859375 7.28515625 C16.38257813 7.85105469 17.17921875 8.41695313 18 9 C17.03049877 10.96943523 16.04839638 12.91471279 14.96484375 14.82421875 C14.62582031 15.43910156 14.28679687 16.05398438 13.9375 16.6875 C13.42509766 17.59048828 13.42509766 17.59048828 12.90234375 18.51171875 C11.9987765 21.00337389 11.91693151 22.70046148 11.8203125 25.3203125 C11.26851014 31.07786449 8.19733161 33.59876578 3.9375 37.1875 C3.29361328 37.76435547 2.64972656 38.34121094 1.98632812 38.93554688 C0.02520281 40.66986208 -1.97439372 42.34162313 -4 44 C-4.69464355 44.58088379 -5.38928711 45.16176758 -6.10498047 45.76025391 C-6.79092285 46.30987793 -7.47686523 46.85950195 -8.18359375 47.42578125 C-8.7964624 47.92118408 -9.40933105 48.41658691 -10.04077148 48.92700195 C-12.48807889 50.26730302 -14.2517525 50.19551928 -17 50 C-18.83251087 44.81661212 -16.8877437 40.82924768 -15.0625 35.9375 C-14.74764648 35.06859131 -14.43279297 34.19968262 -14.10839844 33.30444336 C-11.74775981 26.85554465 -9.27436717 20.448918 -6.75 14.0625 C-6.42136963 13.22904053 -6.09273926 12.39558105 -5.75415039 11.53686523 C-4.11551164 7.46847753 -2.41318386 3.68680867 0 0 Z " fill="#51246E" transform="translate(269,439)"/>
<path d="M0 0 C4.71878688 1.69164058 7.20582817 3.86048618 10 8 C11.78983568 13.36950705 11.88431724 18.19735333 9.375 23.3125 C6.27089251 26.82504268 3.62111018 29.58118706 -1.17578125 30.34765625 C-6.15696087 30.54020605 -9.78505543 29.84263704 -14 27 C-18.12712836 22.53823961 -19.31579995 19.17205257 -19.21484375 13.05859375 C-18.73807026 8.49023683 -16.77437114 5.69882274 -13.4375 2.6875 C-8.93032866 -0.43284939 -5.38721137 -0.49965704 0 0 Z " fill="#FEB9A6" transform="translate(181,270)"/>
<path d="M0 0 C8.19821082 1.63784234 16.10005703 4.11290532 24.0625 6.625 C25.41851359 7.04981832 26.77463265 7.4743001 28.13085938 7.8984375 C31.42201323 8.92780266 34.7108915 9.96402675 38 11 C38.495 17.435 38.495 17.435 39 24 C34.89621416 24.33870598 30.79207403 24.67110073 26.6875 25 C25.53958984 25.09539062 24.39167969 25.19078125 23.20898438 25.2890625 C16.12063288 25.85131134 9.11013931 26.12984909 2 26 C-0.29612756 8.14350797 -0.29612756 8.14350797 0 0 Z " fill="#FBBA9D" transform="translate(543,99)"/>
<path d="M0 0 C1.02970259 1.31053056 2.02863248 2.64566513 3 4 C5.30672137 5.18576085 5.30672137 5.18576085 7.875 6 C16.38270302 9.23046115 19.82643967 14.08872584 24 22 C26.23554407 28.70663222 25.9337243 35.90745657 22.9375 42.3125 C20.27752147 46.96746242 17.19066655 50.65987042 13 54 C12.46246094 54.43441406 11.92492187 54.86882812 11.37109375 55.31640625 C4.7216659 59.58572569 -4.42701826 58.92830099 -12 58 C-15.1474829 57.13824407 -17.41436858 55.96352461 -20 54 C-21.546875 52.948125 -21.546875 52.948125 -23.125 51.875 C-28.94580204 46.73806268 -33.39179573 38.43582567 -34.25 30.765625 C-34.65552831 22.6043678 -32.519546 15.39032624 -27 9.25 C-19.83873928 2.80792572 -9.83900771 -2.59898317 0 0 Z M-23.2109375 12.00390625 C-29.53455255 19.03459218 -30.5621194 24.95594722 -30.3125 34.328125 C-29.72371626 41.24633389 -26.77172136 46.1053741 -21.67578125 50.74609375 C-14.98237663 55.75444546 -7.08122146 55.89131119 1 55 C8.11382293 53.03099544 14.31874383 49.02359054 18.25 42.6875 C21.95766813 35.56568746 23.32951153 27.71892022 20.9375 19.9375 C18.67968857 14.54383936 14.99198709 11.2660309 9.63671875 9 C5.42433987 7.63736422 1.34066096 6.85751535 -3.0625 6.4375 C-4.361875 6.293125 -5.66125 6.14875 -7 6 C-7.33 5.34 -7.66 4.68 -8 4 C-13.36331836 4 -19.38013277 8.53181645 -23.2109375 12.00390625 Z " fill="#EA476E" transform="translate(670,296)"/>
<path d="M0 0 C0 0.99 0 1.98 0 3 C0.75925781 3.26554688 1.51851562 3.53109375 2.30078125 3.8046875 C3.79158203 4.33449219 3.79158203 4.33449219 5.3125 4.875 C6.29863281 5.22304687 7.28476562 5.57109375 8.30078125 5.9296875 C11 7 11 7 14 9 C14 9.66 14 10.32 14 11 C14.5775 11.185625 15.155 11.37125 15.75 11.5625 C20.41149481 14.54067724 22.76905708 20.76849259 24 26 C25.28106848 34.49470409 22.64037283 40.91678773 18 48 C13.04238405 53.76124776 5.79459924 57.59491613 -1.8203125 58.23828125 C-11.17777666 58.44843706 -18.43659831 57.03319038 -25.58984375 50.6171875 C-32.6615207 42.50728651 -35.55960565 34.12382978 -35.37109375 23.51171875 C-34.52834387 15.53664359 -30.18599474 10.4452528 -24.12109375 5.50390625 C-17.65382447 0.9184575 -7.86675598 -3.93337799 0 0 Z M-16.96484375 5.796875 C-23.62739004 9.73557799 -30.00489038 15.29887688 -32 23 C-32.94904899 31.06691645 -32.47902015 39.2481676 -27.55859375 45.96875 C-22.8031209 51.17659962 -17.34638799 54.38272381 -10.33203125 55.37890625 C-1.61510229 55.76004137 5.52339412 53.23217059 12.375 47.875 C18.47320078 42.04837901 20.20187981 35.52498114 20.4375 27.25 C20.23069525 21.18135021 19.10385236 17.45449441 15.125 12.8125 C8.54288651 7.19834437 1.9194347 5.81749972 -6.51171875 5.24609375 C-11.79970784 4.31991382 -11.79970784 4.31991382 -16.96484375 5.796875 Z " fill="#EA446C" transform="translate(584,222)"/>
<path d="M0 0 C2.87121002 2.69427271 4.3882549 5.39276097 6 9 C6 9.66 6 10.32 6 11 C9.96 11.33 13.92 11.66 18 12 C16 16 16 16 13.3125 17.9375 C9.9498419 22.39074992 10.96816135 25.96554554 11.60546875 31.33203125 C11.73566406 32.21246094 11.86585938 33.09289062 12 34 C11.23816406 33.58105469 10.47632813 33.16210938 9.69140625 32.73046875 C3.72558597 29.54135332 3.72558597 29.54135332 -2.73046875 29.78125 C-4.9313865 31.0737955 -6.93987637 32.49878883 -9 34 C-9.66 34 -10.32 34 -11 34 C-10.835 33.154375 -10.67 32.30875 -10.5 31.4375 C-9.34493094 24.60909307 -9.34493094 24.60909307 -11.71484375 18.390625 C-13.72752812 16.45222248 -15.79766041 14.71560809 -18 13 C-18 12.67 -18 12.34 -18 12 C-17.11957031 11.97164063 -16.23914063 11.94328125 -15.33203125 11.9140625 C-11.64668854 11.61138174 -8.50308398 11.20445018 -5 10 C-2.43546157 6.93877231 -1.14390267 3.80365183 0 0 Z " fill="#F18B53" transform="translate(538,343)"/>
<path d="M0 0 C3.1875 0.3125 3.1875 0.3125 5.5 2.1875 C9.50106583 7.22587919 8.80879034 13.13571811 8.1875 19.3125 C6.52915389 24.26429049 4.13538743 26.94184624 -0.40625 29.41796875 C-4.92403625 31.56464122 -9.38811133 32.38078496 -14.3125 33.0625 C-15.54613281 33.25005859 -15.54613281 33.25005859 -16.8046875 33.44140625 C-18.80550228 33.743855 -20.80878194 34.02992438 -22.8125 34.3125 C-22.36519531 33.64605469 -21.91789063 32.97960937 -21.45703125 32.29296875 C-16.22224134 24.3124255 -12.31910247 16.16627456 -8.8125 7.3125 C-8.1525 7.9725 -7.4925 8.6325 -6.8125 9.3125 C-4.74375966 9.9550235 -4.74375966 9.9550235 -2.8125 10.3125 C-2.93818359 9.35537109 -2.93818359 9.35537109 -3.06640625 8.37890625 C-3.16824219 7.55261719 -3.27007812 6.72632813 -3.375 5.875 C-3.47941406 5.05128906 -3.58382812 4.22757812 -3.69140625 3.37890625 C-3.73136719 2.69699219 -3.77132812 2.01507813 -3.8125 1.3125 C-2.8125 0.3125 -2.8125 0.3125 0 0 Z " fill="#FEFBF9" transform="translate(218.8125,273.6875)"/>
<path d="M0 0 C0.625 2.3125 0.625 2.3125 1 5 C0.01 6.485 0.01 6.485 -1 8 C-1 8.99 -1 9.98 -1 11 C0.32 11 1.64 11 3 11 C3.04898438 12.05058594 3.09796875 13.10117187 3.1484375 14.18359375 C3.55419953 23.29104587 3.55419953 23.29104587 5.125 32.25 C5.9436266 35.75839972 6.01229513 36.7777648 5 40 C4.360625 39.443125 3.72125 38.88625 3.0625 38.3125 C0.53724077 36.4056716 -1.64088578 35.1435831 -4.4375 33.75 C-10.15629447 30.67578995 -13.94495081 26.16514758 -16 20 C-16.8470516 13.86492629 -15.95341881 9.71471017 -12.3515625 4.6640625 C-8.55043234 -0.01594168 -6.02728704 -0.3477281 0 0 Z " fill="#FEFBF9" transform="translate(145,259)"/>
<path d="M0 0 C4.59942623 0.25325437 8.04559953 2.63102244 11.8125 5.0625 C12.40998047 5.43955078 13.00746094 5.81660156 13.62304688 6.20507812 C15.08636577 7.12989566 16.54379523 8.06402065 18 9 C17.00718233 10.99899163 16.0052131 12.99010495 14.96484375 14.96484375 C14.62582031 15.61582031 14.28679687 16.26679688 13.9375 16.9375 C13.59589844 17.58589844 13.25429688 18.23429687 12.90234375 18.90234375 C11.73881918 21.40747804 11.73881918 21.40747804 11 26 C1.595 24.515 1.595 24.515 -8 23 C-7.26320628 17.10565027 -6.65497544 13.40275705 -4.5625 8.125 C-4.13066406 7.01382812 -3.69882812 5.90265625 -3.25390625 4.7578125 C-2 2 -2 2 0 0 Z " fill="#331749" transform="translate(346,435)"/>
<path d="M0 0 C15.57739549 -0.34788228 31.64874108 0.24091837 43.70703125 11.609375 C52.81296299 21.21127252 56.01895189 32.27958584 58 45 C60.31 43.02 62.62 41.04 65 39 C65 43 65 43 63.03125 45.359375 C62.1959375 46.14828125 61.360625 46.9371875 60.5 47.75 C59.6646875 48.54921875 58.829375 49.3484375 57.96875 50.171875 C57.3190625 50.77515625 56.669375 51.3784375 56 52 C51.33790798 50.27687791 47.96667047 47.95555839 44 45 C44.33 44.01 44.66 43.02 45 42 C48.14191424 43.53604696 51.08596738 45.05731159 54 47 C51.32832954 33.73594197 48.66762759 20.65295896 37.62890625 11.6875 C28.01190215 5.51432649 17.762724 3.80428599 6.5625 3.9375 C5.46518555 3.94426758 5.46518555 3.94426758 4.34570312 3.95117188 C2.56376581 3.96281852 0.78187137 3.98074809 -1 4 C-0.67 2.68 -0.34 1.36 0 0 Z " fill="#EA466D" transform="translate(619,231)"/>
<path d="M0 0 C2.31211926 0.22375348 3.70773931 0.79634343 5.6105957 2.12231445 C7.71797398 4.97029307 7.33727928 7.35493689 7.29296875 10.85546875 C7.28872391 11.51710526 7.28447906 12.17874176 7.28010559 12.86042786 C7.26333693 14.9698691 7.22569099 17.07834846 7.1875 19.1875 C7.17245068 20.61912681 7.1587627 22.05076862 7.14648438 23.48242188 C7.1134403 26.98859288 7.06167167 30.49420254 7 34 C6.01 34 5.02 34 4 34 C2.55792059 31.11584117 2.90605113 28.58278472 2.9375 25.375 C2.94652344 24.18648438 2.95554687 22.99796875 2.96484375 21.7734375 C2.97644531 20.85820312 2.98804688 19.94296875 3 19 C0.69 19.33 -1.62 19.66 -4 20 C-4.66 23.63 -5.32 27.26 -6 31 C-7.32 30.67 -8.64 30.34 -10 30 C-9.505 25.545 -9.505 25.545 -9 21 C-10.98 21 -12.96 21 -15 21 C-15.33 20.01 -15.66 19.02 -16 18 C-13.03 17.67 -10.06 17.34 -7 17 C-6.67 15.68 -6.34 14.36 -6 13 C-5.37693286 11.11731228 -4.72949211 9.2425779 -4.0625 7.375 C-3.72347656 6.41335938 -3.38445313 5.45171875 -3.03515625 4.4609375 C-2 2 -2 2 0 0 Z " fill="#E93E67" transform="translate(663,308)"/>
<path d="M0 0 C0.66 0 1.32 0 2 0 C5 5.75 5 5.75 5 8 C8.3 8.33 11.6 8.66 15 9 C13 13 13 13 11.38671875 14.42578125 C9.41400553 16.66522752 9.69842035 18.25945575 9.8125 21.1875 C9.83957031 22.08855469 9.86664063 22.98960937 9.89453125 23.91796875 C9.92933594 24.60503906 9.96414063 25.29210937 10 26 C8.63875 25.5359375 8.63875 25.5359375 7.25 25.0625 C6.1775 24.711875 5.105 24.36125 4 24 C3.360625 23.731875 2.72125 23.46375 2.0625 23.1875 C-1.36914548 22.87553223 -3.93428398 24.52609807 -7 26 C-6.93039062 25.35933594 -6.86078125 24.71867187 -6.7890625 24.05859375 C-6.46885787 18.94294359 -6.5330687 15.83836982 -10 11.875 C-10.99 10.92625 -11.98 9.9775 -13 9 C-9.7 8.67 -6.4 8.34 -3 8 C-2.690625 7.05125 -2.38125 6.1025 -2.0625 5.125 C-1 2 -1 2 0 0 Z " fill="#E83963" transform="translate(304,304)"/>
<path d="M0 0 C6.14563146 0.96884072 11.9852323 2.53291382 17.875 4.5 C18.83805054 4.82037231 18.83805054 4.82037231 19.82055664 5.1472168 C23.01119278 6.23534313 26.00691842 7.45739299 29 9 C25.44003818 10.96297379 21.87660169 12.91955438 18.3125 14.875 C16.80139648 15.70837891 16.80139648 15.70837891 15.25976562 16.55859375 C13.79506836 17.36103516 13.79506836 17.36103516 12.30078125 18.1796875 C11.40528564 18.67194824 10.50979004 19.16420898 9.5871582 19.67138672 C7.1024851 20.94736964 4.60962783 22.00879384 2 23 C-0.29612756 7.25512528 -0.29612756 7.25512528 0 0 Z " fill="#1E1A1A" transform="translate(581,111)"/>
<path d="M0 0 C0 0.99 0 1.98 0 3 C2.31 3.66 4.62 4.32 7 5 C6.67 5.66 6.34 6.32 6 7 C3.56212615 6.8590651 1.12482147 6.71245458 -1.3125 6.5625 C-2.00279297 6.52318359 -2.69308594 6.48386719 -3.40429688 6.44335938 C-6.47161535 6.25072585 -9.06968152 5.97677283 -12 5 C-19.32758333 7.29884967 -25.56612634 12.01520545 -29.5 18.6875 C-33.00765245 26.6961224 -31.16869745 35.86738455 -29 44 C-34.2496667 39.01502238 -35.23284432 34.20080894 -35.5 27.125 C-35.30310628 19.38871744 -33.41547541 14.65579671 -28.16796875 9.0390625 C-21.39886605 2.71055229 -9.53052721 -4.7652636 0 0 Z " fill="#E9426A" transform="translate(584,222)"/>
<path d="M0 0 C0.33 0.99 0.66 1.98 1 3 C-5.93 4.485 -5.93 4.485 -13 6 C-13.33 8.64 -13.66 11.28 -14 14 C-13.34 13.67 -12.68 13.34 -12 13 C-9.6670134 12.95977609 -7.33293334 12.95679753 -5 13 C-4.67 13.66 -4.34 14.32 -4 15 C-5.4562545 15.67119549 -6.91507867 16.33681807 -8.375 17 C-9.59316406 17.556875 -9.59316406 17.556875 -10.8359375 18.125 C-13 19 -13 19 -15 19 C-15.66 23.29 -16.32 27.58 -17 32 C-19.475 32.495 -19.475 32.495 -22 33 C-21.2197513 22.93889835 -20.07303015 12.88391161 -18 3 C-17.34 3 -16.68 3 -16 3 C-16 2.01 -16 1.02 -16 0 C-13.02148438 0.04882812 -13.02148438 0.04882812 -10.04296875 0.09765625 C-1.31392045 -0.31960227 -1.31392045 -0.31960227 0 0 Z " fill="#E9426A" transform="translate(589,235)"/>
<path d="M0 0 C4.92311531 4.39088663 7.5214169 8.27651827 8.35546875 14.765625 C8.75978321 23.28901083 6.66636285 29.3636528 1.390625 36.03515625 C-0.30762028 37.86972856 -2.0460946 39.44265891 -4 41 C-4.53753906 41.43441406 -5.07507813 41.86882812 -5.62890625 42.31640625 C-12.3213295 46.61333125 -21.38378343 45.66836186 -29 45 C-31.515625 43.9765625 -31.515625 43.9765625 -33 43 C-33 42.34 -33 41.68 -33 41 C-31.87722656 41.04640625 -30.75445313 41.0928125 -29.59765625 41.140625 C-17.75068857 41.54341751 -17.75068857 41.54341751 -7 37 C-6.071875 36.401875 -5.14375 35.80375 -4.1875 35.1875 C1.63477415 29.36522585 3.59951814 22.48539683 4.3125 14.5 C3.93340711 10.2541596 2.6344624 6.89560986 1 3 C0.505 1.515 0.505 1.515 0 0 Z " fill="#E9426A" transform="translate(687,309)"/>
<path d="M0 0 C3.0220695 3.0220695 3.01252117 6.78134672 3.6640625 10.859375 C3.81715378 11.77520859 3.97024506 12.69104218 4.12797546 13.6346283 C4.6342478 16.67192886 5.12949338 19.71092621 5.625 22.75 C6.15522318 25.94727889 6.68828419 29.14407685 7.22145081 32.34086609 C7.58976237 34.55043811 7.95712855 36.7601679 8.32359314 38.970047 C9.5802534 46.53713368 10.87467716 54.09685482 12.19921875 61.65234375 C12.37747192 62.66964569 12.5557251 63.68694763 12.73937988 64.7350769 C13.42809261 68.66066855 14.11798715 72.58604628 14.81109619 76.51086426 C17.48020347 91.63703389 19.83779216 106.79361151 22 122 C21.34 122 20.68 122 20 122 C13.45704726 86.52657172 7.05999255 51.01796902 1.5 15.375 C1.33983398 14.35712402 1.17966797 13.33924805 1.01464844 12.29052734 C0.87575195 11.3773877 0.73685547 10.46424805 0.59375 9.5234375 C0.47708984 8.75950684 0.36042969 7.99557617 0.24023438 7.20849609 C-0.02277079 4.79066608 -0.04067298 2.43021079 0 0 Z " fill="#524D4E" transform="translate(484,407)"/>
<path d="M0 0 C0.33 0.66 0.66 1.32 1 2 C4.02934491 2.65772428 4.02934491 2.65772428 7 3 C6.3476221 9.78473021 5.16619751 16.52213664 3 23 C2.34 23.33 1.68 23.66 1 24 C-0.9453125 23.22265625 -0.9453125 23.22265625 -3.125 22.0625 C-3.84945313 21.68222656 -4.57390625 21.30195313 -5.3203125 20.91015625 C-5.87460937 20.60980469 -6.42890625 20.30945313 -7 20 C-7.76223562 11.61540819 -4.53846729 6.80770094 0 0 Z " fill="#F4B59C" transform="translate(287,448)"/>
<path d="M0 0 C1.11375 0.680625 1.11375 0.680625 2.25 1.375 C4.44874794 2.67426015 6.71569364 3.85784682 9 5 C8.34 9.29 7.68 13.58 7 18 C-2.57142857 18.14285714 -2.57142857 18.14285714 -7 17 C-6.70368676 10.18479548 -3.69535803 5.61649218 0 0 Z " fill="#F5B59A" transform="translate(364,444)"/>
<path d="M0 0 C1.98 0 3.96 0 6 0 C5.03644647 17.85649203 5.03644647 17.85649203 4 26 C0.63672037 25.43945339 -1.99112219 24.58158962 -5 23 C-4.35731979 19.72853891 -3.71031325 16.45794819 -3.0625 13.1875 C-2.78889648 11.7943457 -2.78889648 11.7943457 -2.50976562 10.37304688 C-2.33251953 9.48037109 -2.15527344 8.58769531 -1.97265625 7.66796875 C-1.81031494 6.84578857 -1.64797363 6.0236084 -1.48071289 5.17651367 C-1 3 -1 3 0 0 Z " fill="#E1A78C" transform="translate(329,225)"/>
<path d="M0 0 C1.37250361 3.24255652 2.71971548 6.49503652 4.0625 9.75 C4.45244141 10.67039063 4.84238281 11.59078125 5.24414062 12.5390625 C5.60830078 13.42851562 5.97246094 14.31796875 6.34765625 15.234375 C6.68804932 16.05131836 7.02844238 16.86826172 7.37915039 17.70996094 C8.07659793 20.2825358 8.03204078 21.55581639 7 24 C4.10888212 25.52164099 2.28176588 26 -1 26 C-1.67097694 22.39662187 -2.33603957 18.79217704 -3 15.1875 C-3.19078125 14.16333984 -3.3815625 13.13917969 -3.578125 12.08398438 C-3.75859375 11.10107422 -3.9390625 10.11816406 -4.125 9.10546875 C-4.29257812 8.19949951 -4.46015625 7.29353027 -4.6328125 6.36010742 C-5 4 -5 4 -5 1 C-3 0 -3 0 0 0 Z " fill="#E4A78B" transform="translate(475,215)"/>
<path d="M0 0 C6.14563146 0.96884072 11.9852323 2.53291382 17.875 4.5 C18.83805054 4.82037231 18.83805054 4.82037231 19.82055664 5.1472168 C23.00311325 6.23258771 26.04228404 7.39480742 29 9 C26.66596846 10.16701577 25.46825921 10.07032567 22.875 10 C15.56282359 9.9139744 8.2901182 10.49349055 1 11 C-0.28317892 7.15046324 -0.06643637 4.05261865 0 0 Z " fill="#423939" transform="translate(581,111)"/>
<path d="M0 0 C15.74487472 1.92710706 15.74487472 1.92710706 23 4 C22.67 5.98 22.34 7.96 22 10 C14.46783285 9.55761615 7.3197277 8.86094772 0 7 C-0.93423645 3.98968256 -1.04449911 3.13349732 0 0 Z " fill="#F6F6F6" transform="translate(155,337)"/>
<path d="M0 0 C2 3 2 3 2 6 C3.65 6.33 5.3 6.66 7 7 C7 7.66 7 8.32 7 9 C6.01 9.66 5.02 10.32 4 11 C3.26656572 14.06556598 3.26656572 14.06556598 3 17 C2.195625 16.2575 2.195625 16.2575 1.375 15.5 C-1.59358445 13.62510456 -3.55312427 13.76498575 -7 14 C-6.979375 13.071875 -6.95875 12.14375 -6.9375 11.1875 C-6.84230396 7.97713989 -6.84230396 7.97713989 -8 5 C-7.05125 4.731875 -6.1025 4.46375 -5.125 4.1875 C-1.74732727 3.25013412 -1.74732727 3.25013412 0 0 Z " fill="#F18B54" transform="translate(178,277)"/>
<path d="M0 0 C1.32 0.33 2.64 0.66 4 1 C4 2.32 4 3.64 4 5 C5.32 5 6.64 5 8 5 C8 5.66 8 6.32 8 7 C8.66 7 9.32 7 10 7 C10 7.66 10 8.32 10 9 C8.02 9 6.04 9 4 9 C4 11.64 4 14.28 4 17 C3.01 17 2.02 17 1 17 C0 16 0 16 -0.0625 12.9375 C-0.041875 11.968125 -0.02125 10.99875 0 10 C-1.65 9.67 -3.3 9.34 -5 9 C-5 8.34 -5 7.68 -5 7 C-3.35 7 -1.7 7 0 7 C0 4.69 0 2.38 0 0 Z " fill="#EB5478" transform="translate(680,315)"/>
<path d="M0 0 C0.66 0 1.32 0 2 0 C2.98723451 5.31460601 3.96541975 10.63077543 4.93579102 15.94848633 C5.26608097 17.75166055 5.59870251 19.55440951 5.93383789 21.35668945 C7.83112184 31.56912517 9.54353408 41.6037801 10 52 C7.30922581 49.30922581 7.16924013 46.54534489 6.5625 42.9296875 C6.43689697 42.21579865 6.31129395 41.50190979 6.18188477 40.76638794 C5.91597941 39.24546799 5.65396492 37.72386352 5.39550781 36.20166016 C5.00951511 33.93097469 4.61140762 31.66270261 4.2109375 29.39453125 C2.50751749 19.62788295 1.13867261 9.84784353 0 0 Z " fill="#555051" transform="translate(341,530)"/>
<path d="M0 0 C2.76223278 2.76223278 2.57856291 5.20706617 3 9 C4.11375 8.34 5.2275 7.68 6.375 7 C9.75 5 9.75 5 12 5 C12.66 7.64 13.32 10.28 14 13 C15.11375 12.34 16.2275 11.68 17.375 11 C20.75 9 20.75 9 23 9 C26.125 15.625 26.125 15.625 25 19 C23.68 16.69 22.36 14.38 21 12 C20.236875 12.495 19.47375 12.99 18.6875 13.5 C16 15 16 15 13 15 C11.74335022 12.09399739 11 10.20395416 11 7 C10.071875 7.66 9.14375 8.32 8.1875 9 C5 11 5 11 2 11 C1.01 8.69 0.02 6.38 -1 4 C-1.61875 4.495 -2.2375 4.99 -2.875 5.5 C-5 7 -5 7 -7 7 C-7 6.34 -7 5.68 -7 5 C-5.46875 3.7109375 -5.46875 3.7109375 -3.5 2.375 C-2.8503125 1.92898437 -2.200625 1.48296875 -1.53125 1.0234375 C-1.0259375 0.68570313 -0.520625 0.34796875 0 0 Z " fill="#F06B6A" transform="translate(136,178)"/>
<path d="M0 0 C2.29654786 3.44482179 2.70443504 5.88500515 3.4375 9.94921875 C3.56310303 10.63949661 3.68870605 11.32977448 3.81811523 12.04096985 C4.08360839 13.50888589 4.34564496 14.97743067 4.60449219 16.4465332 C4.9908926 18.63589702 5.38896295 20.82286913 5.7890625 23.00976562 C7.52768458 32.63877435 8.88379241 42.27996583 10 52 C9.34 52 8.68 52 8 52 C3.08267339 26.16725508 3.08267339 26.16725508 1.1875 13.625 C1.0639917 12.81901367 0.9404834 12.01302734 0.81323242 11.18261719 C0.26248278 7.42798352 -0.14370797 3.79691585 0 0 Z " fill="#5B5758" transform="translate(473,509)"/>
<path d="M0 0 C0.66 0 1.32 0 2 0 C1.26984513 6.42536288 0.02630841 12.85320799 -2 19 C-2.66 19.33 -3.32 19.66 -4 20 C-5.32 19.01 -6.64 18.02 -8 17 C-6.3341708 10.83643195 -3.12194714 5.51740344 0 0 Z " fill="#E2A38A" transform="translate(292,452)"/>
<path d="M0 0 C2.98979145 2.98979145 3.06397769 6.67015597 3.76171875 10.69921875 C3.91663284 11.56762894 4.07154694 12.43603912 4.2311554 13.33076477 C4.5569941 15.17186541 4.87867354 17.01370622 5.1965332 18.85620117 C5.68296276 21.66133475 6.18921903 24.46238339 6.69726562 27.26367188 C7.01163329 29.05447435 7.32482201 30.84548427 7.63671875 32.63671875 C7.78872238 33.46926682 7.94072601 34.30181488 8.09733582 35.15959167 C8.92889771 40.09458989 8.98669038 44.08548336 8 49 C7.67 49 7.34 49 7 49 C5.99760703 42.82615489 5.00133178 36.65134483 4.00927734 30.47583008 C3.67116382 28.37566855 3.33165716 26.27573081 2.99072266 24.17602539 C2.5005524 21.15569062 2.01541901 18.1345831 1.53125 15.11328125 C1.37813354 14.17664139 1.22501709 13.24000153 1.06726074 12.27497864 C0.92711548 11.39444321 0.78697021 10.51390778 0.64257812 9.60668945 C0.51822388 8.83613724 0.39386963 8.06558502 0.26574707 7.27168274 C-0.01999596 4.82906872 -0.04460885 2.4570627 0 0 Z " fill="#565052" transform="translate(484,407)"/>
<path d="M0 0 C3.3 0.33 6.6 0.66 10 1 C10 1.66 10 2.32 10 3 C7.36 2.67 4.72 2.34 2 2 C2 4.64 2 7.28 2 10 C-4.75 9.125 -4.75 9.125 -7 8 C-7 10.64 -7 13.28 -7 16 C-13.75 15.25 -13.75 15.25 -16 13 C-13.69 13.33 -11.38 13.66 -9 14 C-9 11.36 -9 8.72 -9 6 C-4.545 6.99 -4.545 6.99 0 8 C0 5.36 0 2.72 0 0 Z " fill="#8C88E6" transform="translate(196,412)"/>
<path d="M0 0 C0.99 0.33 1.98 0.66 3 1 C2.34 5.29 1.68 9.58 1 14 C-1.97 14 -4.94 14 -8 14 C-7.4225 13.175 -6.845 12.35 -6.25 11.5 C-3.80120261 7.84429532 -1.89208922 3.96533591 0 0 Z " fill="#E0A18A" transform="translate(370,448)"/>
<path d="M0 0 C3.3 0.66 6.6 1.32 10 2 C10 2.66 10 3.32 10 4 C7.36 3.67 4.72 3.34 2 3 C2 5.64 2 8.28 2 11 C-2.455 10.01 -2.455 10.01 -7 9 C-7 11.64 -7 14.28 -7 17 C-11.455 16.01 -11.455 16.01 -16 15 C-16 14.34 -16 13.68 -16 13 C-13.36 13.66 -10.72 14.32 -8 15 C-8 12.36 -8 9.72 -8 7 C-2.25 7.875 -2.25 7.875 0 9 C0 6.03 0 3.06 0 0 Z " fill="#8783E5" transform="translate(649,156)"/>
<path d="M0 0 C0.66 0 1.32 0 2 0 C2.66 1.98 3.32 3.96 4 6 C4.7425 5.505 5.485 5.01 6.25 4.5 C9 3 9 3 13 3 C13.66 4.65 14.32 6.3 15 8 C15.763125 7.690625 16.52625 7.38125 17.3125 7.0625 C19.18789677 6.32106407 21.08684652 5.63771783 23 5 C25.09230769 9.43076923 25.09230769 9.43076923 24.625 12.3125 C24.315625 13.1478125 24.315625 13.1478125 24 14 C23.01 12.02 22.02 10.04 21 8 C20.21625 8.66 19.4325 9.32 18.625 10 C16 12 16 12 14 12 C13.34 9.69 12.68 7.38 12 5 C8.04 6.98 8.04 6.98 4 9 C0 2.25 0 2.25 0 0 Z " fill="#3F9097" transform="translate(597,407)"/>
<path d="M0 0 C0.639375 0.61875 1.27875 1.2375 1.9375 1.875 C5.81563076 4.56594788 9.40435579 5.23906545 14 6 C14.33 7.98 14.66 9.96 15 12 C9.42574546 11.86064364 6.63862224 9.40077115 2.63671875 5.88671875 C0.89892054 3.8834812 0.39465999 2.59102864 0 0 Z " fill="#E8A88C" transform="translate(408,210)"/>
<path d="M0 0 C1.65 1.65 3.3 3.3 5 5 C3.35 6.65 1.7 8.3 0 10 C-1.65 8.35 -3.3 6.7 -5 5 C-3.35 3.35 -1.7 1.7 0 0 Z " fill="#FDF3EE" transform="translate(164,260)"/>
<path d="M0 0 C3.44165321 0.35299007 5.06872538 1.04581692 8 3 C8 3.66 8 4.32 8 5 C8.598125 5.2475 9.19625 5.495 9.8125 5.75 C12.28647521 7.16370012 13.43370255 8.65055383 15 11 C14.34 12.32 13.68 13.64 13 15 C11.47551369 12.0173094 10.06059933 9.181798 9 6 C6.19623648 4.87050779 6.19623648 4.87050779 3 4 C1.32836805 3.34588315 -0.34015202 2.68346682 -2 2 C-1.34 1.34 -0.68 0.68 0 0 Z " fill="#EB4F74" transform="translate(590,228)"/>
<path d="M0 0 C0.33 0 0.66 0 1 0 C1 3.63 1 7.26 1 11 C-0.65 11 -2.3 11 -4 11 C-3.49172849 6.62886504 -2.54826592 3.61004338 0 0 Z " fill="#FDF5F7" transform="translate(665,313)"/>
<path d="M0 0 C2.83634888 2.83634888 3.53830366 6.2544712 4.6875 10 C4.92533203 10.73734375 5.16316406 11.4746875 5.40820312 12.234375 C7.1245606 17.7508788 7.1245606 17.7508788 6 20 C2.62600732 13.83373752 0.65535718 7.82207807 -1 1 C-0.67 0.67 -0.34 0.34 0 0 Z " fill="#425350" transform="translate(368,256)"/>
<path d="M0 0 C0.556875 0.721875 1.11375 1.44375 1.6875 2.1875 C5.37055726 6.66689397 8.35044221 10.22442469 14 12 C13.01 13.485 13.01 13.485 12 15 C6.17510683 10.90514988 2.05012096 7.49808377 -1 1 C-0.67 0.67 -0.34 0.34 0 0 Z " fill="#EE6888" transform="translate(641,337)"/>
<path d="M0 0 C5.26170694 1.41167747 8.72171358 3.74850232 13 7 C12.34 7.66 11.68 8.32 11 9 C10.175 8.38125 9.35 7.7625 8.5 7.125 C4.8487774 4.66173499 1.28637498 3.8868362 -3 3 C-2.01 2.67 -1.02 2.34 0 2 C0 1.34 0 0.68 0 0 Z " fill="#ED5F81" transform="translate(675,301)"/>
<path d="M0 0 C1.79158489 -0.02696365 3.58328473 -0.04637917 5.375 -0.0625 C6.37273438 -0.07410156 7.37046875 -0.08570313 8.3984375 -0.09765625 C11 0 11 0 13 1 C13 1.66 13 2.32 13 3 C9.04 3 5.08 3 1 3 C0.67 2.01 0.34 1.02 0 0 Z " fill="#E93E67" transform="translate(662,300)"/>
<path d="M0 0 C3.90879961 1.65372291 6.76211625 4.30176354 10 7 C12.21587348 8.27852287 12.21587348 8.27852287 14 9 C14 9.99 14 10.98 14 12 C7.56187438 9.917077 3.08526592 5.99912817 0 0 Z " fill="#ED6182" transform="translate(554,266)"/>
<path d="M0 0 C2.64 0.33 5.28 0.66 8 1 C7.67 2.98 7.34 4.96 7 7 C4.03 6.505 4.03 6.505 1 6 C1 5.01 1 4.02 1 3 C0.67 2.01 0.34 1.02 0 0 Z " fill="#F39C6D" transform="translate(207,263)"/>
<path d="M0 0 C1.91635217 -0.05423638 3.83314925 -0.09289963 5.75 -0.125 C7.35101562 -0.15980469 7.35101562 -0.15980469 8.984375 -0.1953125 C11.92470106 -0.00487687 13.52361878 0.47329896 16 2 C12.20732808 2.9360342 9.06325435 2.98276252 5.1875 2.5625 C4.21167969 2.46066406 3.23585938 2.35882813 2.23046875 2.25390625 C1.12638672 2.12822266 1.12638672 2.12822266 0 2 C0 1.34 0 0.68 0 0 Z " fill="#E83963" transform="translate(575,226)"/>
<path d="M0 0 C0.33 0 0.66 0 1 0 C1.38855926 2.4568901 1.76130088 4.91441833 2.125 7.375 C2.23714844 8.07367188 2.34929687 8.77234375 2.46484375 9.4921875 C2.72816466 11.31787914 2.8718116 13.1598762 3 15 C2.34 15.66 1.68 16.32 1 17 C-0.46619907 10.97767819 -1.32528788 6.09632423 0 0 Z " fill="#757173" transform="translate(499,490)"/>
<path d="M0 0 C2.12508244 3.18762365 2.5020163 5.26512223 3 9 C1.02 9 -0.96 9 -3 9 C-2.01 6.03 -1.02 3.06 0 0 Z " fill="#E3DEE7" transform="translate(426,445)"/>
<path d="M0 0 C0.33 0 0.66 0 1 0 C1.22245393 1.60226955 1.42746669 3.20696767 1.625 4.8125 C1.74101562 5.70582031 1.85703125 6.59914063 1.9765625 7.51953125 C2 10 2 10 0 13 C-0.19551338 11.39679026 -0.38111983 9.79237014 -0.5625 8.1875 C-0.71912109 6.84751953 -0.71912109 6.84751953 -0.87890625 5.48046875 C-1 3 -1 3 0 0 Z " fill="#7F7B7C" transform="translate(346,551)"/>
<path d="M0 0 C0.33 0 0.66 0 1 0 C1.22245393 1.60226955 1.42746669 3.20696767 1.625 4.8125 C1.74101562 5.70582031 1.85703125 6.59914063 1.9765625 7.51953125 C2 10 2 10 0 13 C-0.19551338 11.39679026 -0.38111983 9.79237014 -0.5625 8.1875 C-0.71912109 6.84751953 -0.71912109 6.84751953 -0.87890625 5.48046875 C-1 3 -1 3 0 0 Z " fill="#7F7B7C" transform="translate(491,443)"/>
<path d="M0 0 C0.66 1.32 1.32 2.64 2 4 C1.2575 4.12375 0.515 4.2475 -0.25 4.375 C-2.80141485 4.95486701 -4.7267573 5.73708739 -7 7 C-7 6.34 -7 5.68 -7 5 C-5.46875 3.7109375 -5.46875 3.7109375 -3.5 2.375 C-2.8503125 1.92898437 -2.200625 1.48296875 -1.53125 1.0234375 C-1.0259375 0.68570313 -0.520625 0.34796875 0 0 Z " fill="#F17271" transform="translate(136,178)"/>
<path d="M0 0 C2.95662966 0.22743305 4.55033688 0.61235938 6.8125 2.5625 C7.204375 3.036875 7.59625 3.51125 8 4 C3.82412255 5.39195915 1.86525224 3.82323219 -2 2 C-1.34 1.34 -0.68 0.68 0 0 Z " fill="#EC5C7F" transform="translate(590,228)"/>
<path d="M0 0 C-0.66 1.32 -1.32 2.64 -2 4 C-4.97 3.505 -4.97 3.505 -8 3 C-5.36657694 0.36657694 -3.69534435 0 0 0 Z " fill="#FEF3EE" transform="translate(430,201)"/>
<path d="M0 0 C5.75 1.75 5.75 1.75 8 4 C7.34 4.66 6.68 5.32 6 6 C3.96166576 4.7260411 1.96147874 3.38938077 0 2 C0 1.34 0 0.68 0 0 Z " fill="#EC597C" transform="translate(647,346)"/>
</svg>
