<?xml version="1.0" encoding="utf-8"?>
<!DOCTYPE svg PUBLIC "-//W3C//DTD SVG 20010904//EN" "http://www.w3.org/TR/2001/REC-SVG-20010904/DTD/svg10.dtd">
<svg version="1.0" xmlns="http://www.w3.org/2000/svg" width="829pt" height="623pt" viewBox="0 0 829 623" preserveAspectRatio="xMidYMid meet">
<g fill="#197982FF">
<path d="M 348.15 464.20 C 348.64 462.17 351.27 451.05 353.98 439.50 C 358.12 421.85 360.54 411.89 365.45 392.34 C 365.77 391.05 365.67 390.00 365.22 390.00 C 364.76 390.00 363.36 394.39 362.11 399.75 C 360.85 405.11 359.39 411.19 358.87 413.25 L 357.92 417.00 L 336.46 417.00 C 316.10 417.00 315.00 416.90 315.00 415.11 C 315.00 410.23 323.18 360.98 324.63 357.10 C 326.49 352.13 331.64 345.99 336.35 343.13 C 339.26 341.35 384.04 323.51 387.32 322.81 C 388.13 322.64 391.87 324.80 395.64 327.60 C 404.64 334.30 410.06 336.98 416.01 337.69 C 420.49 338.22 421.14 338.01 423.96 335.20 C 425.64 333.51 427.31 330.71 427.65 328.98 C 428.00 327.25 428.83 325.62 429.50 325.36 C 431.30 324.67 459.85 332.75 463.42 334.95 C 465.12 336.00 467.69 338.13 469.15 339.68 C 471.16 341.81 483.97 361.97 493.65 378.22 C 493.89 378.62 492.15 378.22 489.79 377.35 C 487.36 376.45 480.83 375.54 474.73 375.25 C 464.21 374.75 463.82 374.81 457.61 377.87 C 454.11 379.59 450.79 381.00 450.22 381.00 C 449.65 381.00 448.21 379.00 447.02 376.55 C 444.23 370.78 434.82 362.11 425.27 356.52 C 418.02 352.28 417.59 352.16 414.86 353.57 C 412.30 354.89 411.74 354.87 409.46 353.38 C 407.52 352.11 406.39 351.96 404.67 352.74 C 402.69 353.64 401.23 358.29 392.60 391.09 C 387.20 411.62 382.57 428.96 382.32 429.62 C 382.06 430.29 387.18 434.85 393.83 439.87 C 405.00 448.31 405.86 449.20 406.50 453.03 C 406.89 455.29 406.92 457.41 406.58 457.75 C 406.24 458.09 393.93 460.28 379.23 462.62 C 364.53 464.95 351.32 467.10 349.87 467.38 C 347.29 467.89 347.26 467.83 348.15 464.20Z"/></g>
<g fill="#FAB99BFF">
<path d="M 319.14 509.69 C 312.76 507.27 308.28 502.54 307.09 496.97 C 304.98 487.13 305.92 471.62 310.60 439.00 C 311.98 429.38 313.34 420.71 313.62 419.75 C 314.09 418.15 316.05 418.00 336.18 418.00 L 358.23 418.00 L 357.75 420.25 C 357.48 421.49 354.95 432.58 352.12 444.91 C 349.29 457.23 347.14 467.47 347.32 467.66 C 347.51 467.85 361.06 465.87 377.42 463.27 L 407.18 458.54 L 406.49 448.92 C 405.60 436.39 407.40 424.00 410.11 424.00 C 412.78 424.00 415.05 428.08 415.91 434.44 C 416.33 437.50 416.87 440.21 417.12 440.46 C 417.38 440.71 419.94 437.82 422.82 434.05 C 429.31 425.53 440.68 416.00 444.34 416.00 C 446.33 416.00 447.12 416.63 447.61 418.59 C 448.17 420.80 447.38 422.09 442.27 427.34 C 429.53 440.45 429.87 443.08 442.75 431.05 C 452.61 421.84 455.14 420.65 457.34 424.16 C 458.17 425.49 457.27 427.30 452.89 433.16 C 449.88 437.20 446.31 442.07 444.97 443.99 L 442.53 447.47 L 445.67 445.23 C 447.40 444.00 450.70 440.74 453.00 438.00 C 457.15 433.04 460.54 431.63 461.61 434.42 C 462.34 436.34 453.36 451.72 450.35 453.69 C 447.38 455.64 447.88 456.47 451.12 454.98 C 452.43 454.38 454.77 452.11 456.31 449.94 C 459.31 445.74 461.01 445.11 462.97 447.46 C 463.94 448.64 463.53 449.98 460.84 454.46 C 457.95 459.26 455.83 461.10 445.10 468.09 C 435.72 474.19 431.32 476.44 427.10 477.29 C 424.02 477.90 402.60 485.57 379.50 494.32 C 341.19 508.84 336.84 510.27 330.00 510.60 C 325.45 510.82 321.18 510.46 319.14 509.69Z"/></g>
<g fill="#E37A4CFF">
<path d="M 452.26 464.92 C 450.96 464.46 451.27 463.95 453.79 462.46 C 455.54 461.43 458.59 457.96 460.57 454.75 C 463.49 450.03 463.94 448.64 462.96 447.46 C 461.01 445.11 459.31 445.74 456.31 449.94 C 454.77 452.11 452.43 454.38 451.12 454.98 C 447.88 456.47 447.38 455.64 450.35 453.69 C 453.36 451.72 462.34 436.34 461.61 434.42 C 460.54 431.63 457.15 433.04 453.00 438.00 C 450.70 440.74 447.40 444.00 445.67 445.23 L 442.53 447.47 L 444.97 443.99 C 446.31 442.07 449.88 437.20 452.89 433.16 C 457.27 427.30 458.17 425.49 457.34 424.16 C 455.61 421.40 452.66 421.71 449.54 424.96 C 445.58 429.09 444.83 428.78 446.54 423.75 C 447.34 421.41 450.08 412.07 452.64 403.00 C 455.19 393.93 457.52 385.86 457.81 385.09 C 458.10 384.31 457.90 383.95 457.36 384.28 C 456.82 384.61 454.38 391.88 451.94 400.44 C 447.56 415.77 447.46 415.99 444.68 416.00 C 443.13 416.00 440.32 417.18 438.43 418.62 C 436.54 420.06 435.00 420.91 435.00 420.50 C 435.00 420.09 437.25 411.46 440.00 401.30 C 442.75 391.15 444.99 382.32 444.97 381.67 C 444.89 378.61 442.78 385.15 437.91 403.50 C 433.82 418.96 432.11 423.89 430.42 425.24 C 429.21 426.19 425.82 430.11 422.90 433.95 C 419.98 437.78 417.38 440.71 417.12 440.46 C 416.87 440.21 416.33 437.50 415.91 434.44 C 415.05 428.09 412.78 424.00 410.12 424.00 C 408.64 424.00 408.08 425.30 407.15 430.94 C 406.52 434.76 406.00 440.20 406.00 443.03 C 406.00 445.85 405.60 448.02 405.11 447.83 C 402.51 446.86 383.07 431.30 383.04 430.17 C 383.00 428.98 397.85 371.60 401.65 358.25 C 403.92 350.26 405.25 350.69 425.91 366.20 C 448.02 382.80 447.38 382.59 480.99 384.14 C 494.47 384.76 505.68 385.43 505.91 385.63 C 506.13 385.82 505.51 389.92 504.52 394.74 C 502.83 402.98 489.53 459.51 488.41 463.20 C 487.95 464.71 485.89 464.94 470.90 465.20 C 461.55 465.37 453.16 465.24 452.26 464.92ZM 431.41 402.32 C 432.28 399.75 433.00 397.30 433.00 396.88 C 433.00 396.15 405.71 377.00 404.67 377.00 C 404.26 377.00 402.65 383.90 402.53 386.15 C 402.50 386.87 428.10 406.87 429.16 406.95 C 429.52 406.98 430.53 404.89 431.41 402.32Z"/></g>
<g fill="#362D36FF">
<path d="M 310.82 576.62 C 304.81 574.98 299.78 571.12 297.39 566.31 C 295.56 562.63 295.49 557.04 295.24 397.75 L 294.98 233.00 L 298.99 233.00 L 303.00 233.00 L 303.00 394.68 L 303.00 556.37 L 305.12 560.75 C 306.40 563.39 308.86 566.20 311.30 567.82 L 315.35 570.50 L 361.03 570.78 L 406.70 571.06 L 408.98 557.78 C 410.23 550.48 412.24 538.89 413.43 532.03 L 415.61 519.55 L 425.06 518.30 C 430.25 517.61 438.25 516.30 442.83 515.40 C 447.52 514.47 451.50 514.14 451.94 514.63 C 452.37 515.11 453.48 525.62 454.42 538.00 C 455.35 550.38 456.38 562.86 456.70 565.75 L 457.28 571.00 L 473.67 571.00 C 494.50 571.00 498.63 569.57 503.11 560.79 C 504.88 557.32 505.00 554.31 505.00 514.54 C 505.00 481.18 505.27 472.00 506.25 471.99 C 506.94 471.98 508.51 471.70 509.75 471.37 L 512.00 470.77 L 512.00 515.92 C 512.00 554.40 511.77 561.61 510.45 564.77 C 508.47 569.51 505.52 572.65 500.50 575.35 L 496.50 577.50 L 406.00 577.70 C 335.34 577.85 314.47 577.61 310.82 576.62Z"/></g>
<g fill="#FAB99BFF">
<path d="M 495.00 470.64 C 493.07 469.93 489.70 468.40 487.50 467.22 C 484.37 465.55 483.97 465.08 485.68 465.04 C 486.88 465.02 488.10 464.21 488.40 463.25 C 490.07 457.73 503.01 402.37 503.03 400.61 C 503.06 398.61 503.12 398.60 504.14 400.36 C 505.42 402.56 504.21 404.62 527.35 360.87 C 541.15 334.79 543.23 330.25 544.71 322.88 C 546.19 315.46 547.05 313.59 552.22 306.53 L 558.06 298.56 L 566.03 298.21 C 570.41 298.02 574.00 298.10 574.00 298.39 C 574.00 299.42 568.50 304.00 567.26 304.00 C 565.74 304.00 565.75 303.73 567.07 309.88 C 568.08 314.61 567.76 317.40 565.47 323.50 C 564.74 325.43 564.78 325.44 566.61 323.71 C 568.17 322.23 568.50 320.47 568.50 313.45 C 568.50 306.31 568.77 304.89 570.22 304.43 C 572.36 303.75 576.00 299.24 576.00 297.26 C 576.00 296.03 574.68 295.91 567.88 296.51 C 562.32 297.00 559.87 296.90 560.13 296.17 C 560.33 295.59 566.12 288.26 573.00 279.88 C 579.88 271.50 585.84 264.16 586.25 263.57 C 587.59 261.65 589.08 265.30 588.45 269.00 C 588.13 270.93 586.83 274.07 585.57 276.00 C 584.30 277.93 581.47 282.91 579.28 287.07 L 575.28 294.64 L 578.21 295.93 C 579.83 296.65 581.62 298.26 582.19 299.52 C 583.10 301.52 582.58 302.59 578.12 307.96 C 575.30 311.34 573.02 314.64 573.03 315.30 C 573.05 315.96 574.51 314.72 576.28 312.54 C 578.05 310.36 580.47 307.43 581.66 306.04 L 583.82 303.51 L 585.05 306.20 C 586.18 308.70 585.96 309.27 582.04 313.95 C 577.75 319.08 577.71 321.07 582.00 316.50 C 586.85 311.34 584.99 317.04 580.04 322.50 C 578.55 324.15 576.12 327.62 574.64 330.21 C 573.17 332.80 570.12 336.20 567.85 337.76 L 563.74 340.61 L 540.55 403.44 C 515.60 471.03 516.75 468.61 508.50 470.89 C 503.36 472.30 499.37 472.23 495.00 470.64Z"/></g>
<g fill="#362D36FF">
<path d="M 505.02 397.49 C 505.01 395.29 505.45 391.93 505.99 390.03 C 506.64 387.75 506.64 386.24 505.99 385.59 C 505.35 384.95 505.00 342.88 505.00 265.77 C 505.00 161.09 504.82 146.50 503.46 143.25 C 499.55 133.89 495.01 132.05 475.75 132.02 C 462.83 132.00 461.00 132.20 461.00 133.61 C 461.00 137.11 456.59 143.02 452.50 145.00 C 448.56 146.91 446.33 147.00 404.25 147.00 C 375.51 147.00 359.15 146.63 357.32 145.94 C 353.05 144.33 349.09 140.04 347.95 135.80 L 346.92 132.00 L 332.35 132.00 C 318.65 132.00 317.49 132.15 313.14 134.52 C 310.59 135.91 307.38 138.69 306.00 140.70 C 303.54 144.29 303.50 144.70 303.20 167.17 L 302.90 190.00 L 298.90 190.00 L 294.91 190.00 L 295.20 164.08 L 295.50 138.17 L 298.54 133.83 C 300.22 131.45 303.59 128.38 306.04 127.00 L 310.50 124.50 L 400.50 124.19 C 462.78 123.97 492.06 124.21 495.56 124.97 C 501.76 126.30 507.60 130.90 510.11 136.43 C 511.87 140.32 511.96 146.04 511.98 264.55 L 512.00 388.59 L 508.52 395.05 L 505.05 401.50 L 505.02 397.49ZM 425.00 136.50 L 425.00 134.00 L 409.50 134.00 L 394.00 134.00 L 394.00 136.50 L 394.00 139.00 L 409.50 139.00 L 425.00 139.00 L 425.00 136.50Z"/></g>
<g fill="#4F216BFF">
<path d="M 335.40 565.75 C 335.70 562.86 336.19 554.42 336.49 547.00 C 336.79 539.58 337.30 529.88 337.62 525.45 L 338.20 517.40 L 347.35 518.83 C 353.57 519.80 365.87 520.30 385.75 520.38 C 409.40 520.48 415.00 520.76 415.00 521.83 C 415.00 522.57 413.20 533.50 411.00 546.12 C 408.80 558.75 407.00 569.51 407.00 570.04 C 407.00 570.64 393.34 571.00 370.93 571.00 L 334.86 571.00 L 335.40 565.75Z"/></g>
<g fill="#197982FF">
<path d="M 363.50 520.41 C 352.81 519.36 340.32 517.83 338.75 517.37 C 337.55 517.02 337.01 515.87 337.02 513.68 L 337.05 510.50 L 380.27 494.33 C 404.05 485.43 425.40 477.89 427.73 477.57 C 430.48 477.19 434.90 475.06 440.38 471.49 C 445.02 468.47 449.91 466.00 451.25 466.00 C 453.65 466.00 453.71 466.20 454.35 476.66 C 454.71 482.52 455.00 492.85 455.00 499.62 C 455.00 510.33 454.77 512.05 453.25 512.83 C 451.11 513.94 438.10 516.49 424.00 518.56 C 414.02 520.03 372.56 521.30 363.50 520.41Z"/></g>
<g fill="#6D68DFFF">
<path d="M 340.00 238.64 L 334.50 232.11 L 307.09 232.09 C 288.70 232.08 279.32 231.72 278.59 230.99 C 276.86 229.27 276.54 194.98 278.23 192.69 C 279.47 191.00 281.97 190.88 316.53 190.94 C 350.02 191.00 353.62 191.16 354.75 192.69 C 356.33 194.82 356.51 227.17 354.96 230.07 C 354.21 231.47 352.86 232.00 350.01 232.00 L 346.09 232.00 L 345.80 238.59 L 345.50 245.17 L 340.00 238.64Z"/></g>
<g fill="#FAB99BFF">
<path d="M 412.99 337.07 C 408.92 335.83 403.91 333.04 397.12 328.23 L 390.73 323.71 L 391.38 313.60 C 391.74 308.05 392.30 300.47 392.64 296.77 C 393.23 290.35 393.15 290.01 390.88 289.13 C 386.37 287.39 383.70 283.41 383.23 277.72 C 382.72 271.62 384.14 269.66 388.68 270.18 C 390.58 270.40 391.91 271.39 392.80 273.25 C 393.54 274.80 394.92 276.00 395.97 276.00 C 397.00 276.00 398.62 276.30 399.57 276.67 C 401.11 277.26 401.23 276.85 400.63 273.08 C 400.03 269.31 400.23 268.60 402.45 266.86 C 403.83 265.78 405.49 263.10 406.15 260.90 C 406.97 258.15 407.78 257.08 408.75 257.46 C 409.53 257.76 416.58 258.00 424.42 258.00 L 438.68 258.00 L 439.91 275.25 C 441.71 300.28 439.87 308.95 431.88 313.05 C 428.26 314.91 428.26 314.91 427.81 322.72 C 427.29 331.64 425.49 335.28 420.78 336.93 C 417.32 338.13 416.55 338.15 412.99 337.07Z"/></g>
<g fill="#E37A4CFF">
<path d="M 596.00 438.53 C 596.00 437.38 594.87 437.00 591.50 437.00 C 586.48 437.00 586.55 437.07 588.16 433.55 C 589.15 431.37 589.97 431.00 593.79 431.00 C 598.21 431.00 598.24 431.03 597.65 434.00 L 597.05 437.00 L 626.97 437.00 C 656.75 437.00 656.89 436.99 658.44 434.78 C 659.30 433.56 660.00 430.51 660.00 428.00 C 660.00 425.49 659.30 422.44 658.44 421.22 L 656.89 419.00 L 617.03 419.00 C 595.10 419.00 576.45 418.73 575.59 418.40 C 573.00 417.40 574.86 416.00 578.76 416.00 C 581.59 416.00 582.13 415.73 581.20 414.80 C 580.54 414.14 580.00 411.25 580.00 408.37 C 580.00 399.83 579.46 400.00 607.14 400.00 C 628.96 400.00 631.00 400.14 629.57 401.57 C 627.82 403.33 627.42 411.54 628.98 414.00 C 629.79 415.28 636.22 415.57 673.44 416.00 L 716.95 416.50 L 719.22 418.78 C 721.15 420.71 721.50 422.11 721.50 428.00 C 721.50 433.89 721.16 435.29 719.22 437.22 L 716.95 439.50 L 656.47 439.78 C 602.74 440.03 596.00 439.89 596.00 438.53Z"/></g>
<g fill="#197982FF">
<path d="M 613.03 464.02 L 571.56 463.50 L 570.29 461.00 C 569.60 459.62 569.02 455.27 569.01 451.32 C 569.00 444.75 569.22 443.97 571.63 442.07 C 573.56 440.56 575.72 440.00 579.63 440.00 L 585.00 440.00 L 585.00 447.50 C 585.00 451.62 585.38 455.00 585.85 455.00 C 586.31 455.00 587.51 454.09 588.51 452.98 L 590.34 450.97 L 592.48 452.98 C 593.66 454.09 594.94 455.00 595.31 455.00 C 595.69 455.00 596.00 451.62 596.00 447.49 L 596.00 439.98 L 656.25 440.24 C 695.58 440.41 716.50 440.85 716.50 441.50 C 716.50 442.13 705.00 442.68 685.00 443.00 C 667.67 443.27 652.94 443.86 652.25 444.31 C 650.52 445.43 650.56 458.39 652.30 459.84 C 653.16 460.54 664.32 461.02 684.72 461.21 C 701.83 461.37 716.20 461.86 716.64 462.30 C 719.46 465.13 712.06 465.25 613.03 464.02Z"/></g>
<g fill="#362D36FF">
<path d="M 394.00 274.50 C 394.00 271.66 390.02 268.75 386.98 269.35 C 384.52 269.85 384.03 269.53 383.08 266.81 C 382.49 265.10 382.00 261.58 382.00 258.99 C 382.00 252.86 384.68 249.36 390.50 247.90 C 393.84 247.05 395.12 246.14 396.04 243.90 C 397.74 239.81 403.24 235.28 408.10 233.97 C 410.37 233.36 417.69 232.96 424.37 233.08 C 431.04 233.20 439.03 232.95 442.11 232.53 C 447.30 231.83 447.85 231.95 449.36 234.11 C 453.26 239.67 450.42 253.78 445.07 255.48 C 443.42 256.00 442.99 256.99 442.95 260.32 C 442.93 262.62 442.33 265.85 441.63 267.50 C 440.35 270.48 440.34 270.47 439.73 264.64 C 439.40 261.42 438.89 258.55 438.60 258.26 C 438.31 257.98 430.86 257.51 422.04 257.23 L 406.00 256.72 L 406.00 259.46 C 406.00 261.23 404.83 263.37 402.69 265.51 C 399.91 268.29 399.45 269.39 399.80 272.41 C 400.20 275.85 400.09 276.00 397.11 276.00 C 395.01 276.00 394.00 275.51 394.00 274.50Z"/></g>
<g fill="#B1B1D3FF">
<path d="M 187.00 215.50 L 187.00 201.00 L 209.50 201.00 L 232.00 201.00 L 232.00 215.50 L 232.00 230.00 L 209.50 230.00 L 187.00 230.00 L 187.00 215.50Z"/></g>
<g fill="#B1B1D3FF">
<path d="M 134.00 215.50 L 134.00 201.00 L 156.50 201.00 L 179.00 201.00 L 179.00 215.50 L 179.00 230.00 L 156.50 230.00 L 134.00 230.00 L 134.00 215.50Z"/></g>
<g fill="#B1B1D3FF">
<path d="M 82.00 215.50 L 82.00 201.00 L 104.50 201.00 L 127.00 201.00 L 127.00 215.50 L 127.00 230.00 L 104.50 230.00 L 82.00 230.00 L 82.00 215.50Z"/></g>
<g fill="#B1B1D3FF">
<path d="M 187.00 263.50 L 187.00 249.00 L 209.50 249.00 L 232.00 249.00 L 232.00 263.50 L 232.00 278.00 L 209.50 278.00 L 187.00 278.00 L 187.00 263.50Z"/></g>
<g fill="#B1B1D3FF">
<path d="M 134.00 263.50 L 134.00 249.00 L 156.50 249.00 L 179.00 249.00 L 179.00 263.50 L 179.00 278.00 L 156.50 278.00 L 134.00 278.00 L 134.00 263.50Z"/></g>
<g fill="#B1B1D3FF">
<path d="M 82.00 263.50 L 82.00 249.00 L 104.50 249.00 L 127.00 249.00 L 127.00 263.50 L 127.00 278.00 L 104.50 278.00 L 82.00 278.00 L 82.00 263.50Z"/></g>
<g fill="#B1B1D3FF">
<path d="M 100.00 181.50 L 100.00 177.00 L 149.50 177.00 L 199.00 177.00 L 199.00 181.50 L 199.00 186.00 L 149.50 186.00 L 100.00 186.00 L 100.00 181.50Z"/></g>
<g fill="#B1B1D3FF">
<path d="M 582.00 122.50 L 582.00 119.00 L 644.00 119.00 L 706.00 119.00 L 706.00 122.50 L 706.00 126.00 L 644.00 126.00 L 582.00 126.00 L 582.00 122.50Z"/></g>
<g fill="#362D36FF">
<path d="M 151.24 125.75 L 151.00 82.00 L 401.00 82.00 L 651.00 82.00 L 650.78 94.25 L 650.57 106.50 L 650.25 94.75 L 649.94 83.00 L 400.98 83.00 L 152.02 83.00 L 151.75 126.25 L 151.48 169.50 L 151.24 125.75Z"/></g>
<g fill="#B1B1D3FF">
<path d="M 687.00 151.00 L 687.00 140.00 L 700.50 140.00 L 714.00 140.00 L 714.00 151.00 L 714.00 162.00 L 700.50 162.00 L 687.00 162.00 L 687.00 151.00Z"/></g>
<g fill="#B1B1D3FF">
<path d="M 687.00 239.00 L 687.00 228.00 L 700.50 228.00 L 714.00 228.00 L 714.00 239.00 L 714.00 250.00 L 700.50 250.00 L 687.00 250.00 L 687.00 239.00Z"/></g>
<g fill="#B1B1D3FF">
<path d="M 560.00 215.50 L 560.00 212.00 L 601.00 212.00 L 642.00 212.00 L 642.00 215.50 L 642.00 219.00 L 601.00 219.00 L 560.00 219.00 L 560.00 215.50Z"/></g>
<g fill="#B1B1D3FF">
<path d="M 687.00 180.50 L 687.00 170.00 L 700.50 170.00 L 714.00 170.00 L 714.00 180.50 L 714.00 191.00 L 700.50 191.00 L 687.00 191.00 L 687.00 180.50Z"/></g>
<g fill="#B1B1D3FF">
<path d="M 687.00 209.50 L 687.00 199.00 L 700.50 199.00 L 714.00 199.00 L 714.00 209.50 L 714.00 220.00 L 700.50 220.00 L 687.00 220.00 L 687.00 209.50Z"/></g>
<g fill="#B1B1D3FF">
<path d="M 275.75 81.25 C 344.64 81.11 457.36 81.11 526.25 81.25 C 595.14 81.39 538.78 81.51 401.00 81.51 C 263.22 81.51 206.86 81.39 275.75 81.25Z"/></g>
<g fill="#B1B1D3FF">
<path d="M 214.00 474.00 L 214.00 466.00 L 228.50 466.00 L 243.00 466.00 L 243.00 474.00 L 243.00 482.00 L 228.50 482.00 L 214.00 482.00 L 214.00 474.00Z"/></g>
<g fill="#6D68DFFF">
<path d="M 610.00 398.71 C 607.63 397.51 607.49 396.95 607.22 387.83 C 606.98 380.06 607.24 377.90 608.54 376.61 C 609.96 375.18 615.02 375.00 653.57 375.00 C 681.86 375.00 697.00 375.35 697.00 376.00 C 697.00 376.65 682.41 377.00 655.22 377.00 C 605.99 377.00 609.00 376.35 609.00 386.99 C 609.00 397.57 607.13 397.00 641.57 397.00 C 667.06 397.00 671.00 397.20 671.00 398.50 C 671.00 399.80 667.09 400.00 641.75 399.99 C 620.21 399.97 611.84 399.64 610.00 398.71Z"/></g>
<g fill="#B1B1D3FF">
<path d="M 155.00 405.50 L 155.00 403.00 L 190.50 403.00 L 226.00 403.00 L 226.00 405.50 L 226.00 408.00 L 190.50 408.00 L 155.00 408.00 L 155.00 405.50Z"/></g>
<g fill="#8C9194FF">
<path d="M 294.49 395.00 C 294.49 305.62 294.61 269.06 294.75 313.75 C 294.89 358.44 294.89 431.56 294.75 476.25 C 294.61 520.94 294.49 484.38 294.49 395.00Z"/></g>
<g fill="#B1B1D3FF">
<path d="M 303.49 392.50 C 303.49 303.95 303.61 267.87 303.75 312.33 C 303.89 356.78 303.89 429.23 303.75 473.33 C 303.61 517.42 303.49 481.05 303.49 392.50Z"/></g>
<g fill="#B1B1D3FF">
<path d="M 214.00 433.50 L 214.00 428.00 L 228.50 428.00 L 243.00 428.00 L 243.00 433.50 L 243.00 439.00 L 228.50 439.00 L 214.00 439.00 L 214.00 433.50Z"/></g>
<g fill="#362D36FF">
<path d="M 737.75 427.25 L 754.00 426.95 L 754.00 360.98 L 754.00 295.00 L 706.00 295.00 L 658.00 295.00 L 658.23 275.75 L 658.45 256.50 L 658.75 275.25 L 659.04 294.00 L 707.02 294.00 L 755.00 294.00 L 755.00 361.00 L 755.00 428.00 L 738.25 427.78 L 721.50 427.55 L 737.75 427.25Z"/></g>
<g fill="#D8404FFF">
<path d="M 629.57 414.43 C 628.57 413.43 628.00 411.08 628.00 408.00 C 628.00 400.04 628.10 400.00 651.07 400.00 C 663.69 400.00 671.00 400.37 671.00 401.00 C 671.00 401.63 664.19 402.00 652.58 402.00 C 642.45 402.00 633.45 402.27 632.58 402.61 C 630.35 403.46 630.35 412.54 632.58 413.39 C 633.45 413.73 652.58 414.00 675.08 414.00 C 701.69 414.00 716.00 414.35 716.00 415.00 C 716.00 415.65 701.19 416.00 673.57 416.00 C 636.33 416.00 630.95 415.81 629.57 414.43Z"/></g>
<g fill="#B1B1D3FF">
<path d="M 222.75 83.25 C 261.94 83.11 326.06 83.11 365.25 83.25 C 404.44 83.39 372.38 83.51 294.00 83.51 C 215.62 83.51 183.56 83.39 222.75 83.25Z"/></g>
<g fill="#D8404FFF">
<path d="M 611.00 173.00 L 611.00 159.93 L 620.00 166.16 C 624.95 169.59 629.00 172.67 629.00 173.00 C 629.00 173.33 624.95 176.41 620.00 179.84 L 611.00 186.07 L 611.00 173.00Z"/></g>
<g fill="#6B6468FF">
<path d="M 512.48 266.00 C 512.48 199.17 512.60 171.84 512.75 205.25 C 512.90 238.66 512.90 293.34 512.75 326.75 C 512.60 360.16 512.48 332.83 512.48 266.00Z"/></g>
<g fill="#B1B1D3FF">
<path d="M 567.37 242.24 C 564.76 241.82 561.28 238.20 560.89 235.50 C 559.99 229.35 565.16 224.22 570.97 225.49 C 581.77 227.87 578.31 244.00 567.37 242.24Z"/></g>
<g fill="#B1B1D3FF">
<path d="M 755.24 361.26 L 755.00 294.02 L 707.25 293.75 L 659.50 293.48 L 707.28 293.24 C 744.76 293.05 755.17 293.27 755.54 294.25 C 755.80 294.94 755.90 325.43 755.75 362.00 L 755.49 428.50 L 755.24 361.26Z"/></g>
<g fill="#B1B1D3FF">
<path d="M 753.00 361.51 L 753.00 296.02 L 705.25 295.75 L 657.50 295.48 L 705.75 295.24 L 754.00 295.00 L 754.00 361.00 C 754.00 397.30 753.77 427.00 753.50 427.00 C 753.23 427.00 753.00 397.53 753.00 361.51Z"/></g>
<g fill="#B1B1D3FF">
<path d="M 223.00 449.50 L 223.00 444.00 L 233.00 444.00 L 243.00 444.00 L 243.00 449.50 L 243.00 455.00 L 233.00 455.00 L 223.00 455.00 L 223.00 449.50Z"/></g>
<g fill="#B1B1D3FF">
<path d="M 489.67 83.25 C 518.92 83.10 567.07 83.10 596.67 83.25 C 626.28 83.40 602.35 83.52 543.50 83.52 C 484.65 83.52 460.43 83.40 489.67 83.25Z"/></g>
<g fill="#B1B1D3FF">
<path d="M 134.00 236.50 L 134.00 234.00 L 151.50 234.00 L 169.00 234.00 L 169.00 236.50 L 169.00 239.00 L 151.50 239.00 L 134.00 239.00 L 134.00 236.50Z"/></g>
<g fill="#B1B1D3FF">
<path d="M 586.00 228.00 L 586.00 225.00 L 600.50 225.00 L 615.00 225.00 L 615.00 228.00 L 615.00 231.00 L 600.50 231.00 L 586.00 231.00 L 586.00 228.00Z"/></g>
<g fill="#B1B1D3FF">
<path d="M 187.00 236.50 L 187.00 234.00 L 204.00 234.00 L 221.00 234.00 L 221.00 236.50 L 221.00 239.00 L 204.00 239.00 L 187.00 239.00 L 187.00 236.50Z"/></g>
<g fill="#B1B1D3FF">
<path d="M 82.00 236.50 L 82.00 234.00 L 99.00 234.00 L 116.00 234.00 L 116.00 236.50 L 116.00 239.00 L 99.00 239.00 L 82.00 239.00 L 82.00 236.50Z"/></g>
<g fill="#197982FF">
<path d="M 671.17 403.75 C 671.26 400.31 670.81 396.52 670.17 395.32 C 668.23 391.70 668.77 391.00 673.50 391.00 C 677.04 391.00 678.00 391.36 678.00 392.67 C 678.00 393.59 678.61 395.05 679.37 395.92 C 680.34 397.04 680.59 399.32 680.24 403.79 C 679.77 409.87 679.69 410.03 677.88 408.39 C 676.13 406.81 675.87 406.80 674.17 408.35 C 673.17 409.26 672.04 410.00 671.67 410.00 C 671.30 410.00 671.08 407.19 671.17 403.75Z"/></g>
<g fill="#362D36FF">
<path d="M 197.00 361.00 L 197.00 325.00 L 174.00 325.00 L 151.00 325.00 L 151.23 305.75 L 151.45 286.50 L 151.75 305.25 L 152.04 324.00 L 175.02 324.00 L 198.00 324.00 L 198.00 360.50 C 198.00 380.57 197.78 397.00 197.50 397.00 C 197.22 397.00 197.00 380.80 197.00 361.00Z"/></g>
<g fill="#A3252BFF">
<path d="M 586.00 446.67 L 586.00 438.00 L 590.39 438.00 C 593.48 438.00 594.97 438.47 595.39 439.58 C 596.22 441.74 596.17 454.00 595.33 454.00 C 594.96 454.00 593.83 453.25 592.82 452.34 C 591.09 450.77 590.83 450.82 588.49 453.01 L 586.00 455.35 L 586.00 446.67Z"/></g>
</svg>
